%FSLAX45Y45*%
G04 Gerber Fmt 4.5, Leading zero omitted, Abs format (unit mm)*
G04 Created by KiCad (PCBNEW (5.1.12)-1) date 2023-03-06 18:56:20*
%MOMM*%
%LPD*%
G01*
G04 APERTURE LIST*
%TA.AperFunction,Profile*%
%ADD10C,0.150000*%
%TD*%
%ADD11C,0.200000*%
%ADD12C,0.300000*%
G04 APERTURE END LIST*
D10*
X11300000Y-9600000D02*
X5300000Y-9600000D01*
X11300000Y-10600000D02*
X11300000Y-9600000D01*
X12300000Y-10600000D02*
X11300000Y-10600000D01*
X12300000Y-12600000D02*
X12300000Y-10600000D01*
X11300000Y-12600000D02*
X12300000Y-12600000D01*
X11300000Y-13600000D02*
X11300000Y-12600000D01*
X5300000Y-13600000D02*
X11300000Y-13600000D01*
X5300000Y-9600000D02*
X5300000Y-13600000D01*
D11*
X11905000Y-11320000D02*
X12015000Y-11430000D01*
X12015000Y-11320000D02*
X11905000Y-11430000D01*
X11905000Y-11770000D02*
X12015000Y-11880000D01*
X12015000Y-11770000D02*
X11905000Y-11880000D01*
D12*
X5578928Y-14073214D02*
X5578928Y-13773214D01*
X5650357Y-13773214D01*
X5693214Y-13787500D01*
X5721786Y-13816071D01*
X5736071Y-13844643D01*
X5750357Y-13901786D01*
X5750357Y-13944643D01*
X5736071Y-14001786D01*
X5721786Y-14030357D01*
X5693214Y-14058929D01*
X5650357Y-14073214D01*
X5578928Y-14073214D01*
X5878928Y-14073214D02*
X5878928Y-13873214D01*
X5878928Y-13930357D02*
X5893214Y-13901786D01*
X5907500Y-13887500D01*
X5936071Y-13873214D01*
X5964643Y-13873214D01*
X6064643Y-14073214D02*
X6064643Y-13873214D01*
X6064643Y-13773214D02*
X6050357Y-13787500D01*
X6064643Y-13801786D01*
X6078928Y-13787500D01*
X6064643Y-13773214D01*
X6064643Y-13801786D01*
X6250357Y-14073214D02*
X6221786Y-14058929D01*
X6207500Y-14030357D01*
X6207500Y-13773214D01*
X6407500Y-14073214D02*
X6378928Y-14058929D01*
X6364643Y-14030357D01*
X6364643Y-13773214D01*
X6750357Y-14073214D02*
X6750357Y-13773214D01*
X6850357Y-13987500D01*
X6950357Y-13773214D01*
X6950357Y-14073214D01*
X7221786Y-14073214D02*
X7221786Y-13916071D01*
X7207500Y-13887500D01*
X7178928Y-13873214D01*
X7121786Y-13873214D01*
X7093214Y-13887500D01*
X7221786Y-14058929D02*
X7193214Y-14073214D01*
X7121786Y-14073214D01*
X7093214Y-14058929D01*
X7078928Y-14030357D01*
X7078928Y-14001786D01*
X7093214Y-13973214D01*
X7121786Y-13958929D01*
X7193214Y-13958929D01*
X7221786Y-13944643D01*
X7364643Y-13873214D02*
X7364643Y-14173214D01*
X7364643Y-13887500D02*
X7393214Y-13873214D01*
X7450357Y-13873214D01*
X7478928Y-13887500D01*
X7493214Y-13901786D01*
X7507500Y-13930357D01*
X7507500Y-14016071D01*
X7493214Y-14044643D01*
X7478928Y-14058929D01*
X7450357Y-14073214D01*
X7393214Y-14073214D01*
X7364643Y-14058929D01*
X7636071Y-14044643D02*
X7650357Y-14058929D01*
X7636071Y-14073214D01*
X7621786Y-14058929D01*
X7636071Y-14044643D01*
X7636071Y-14073214D01*
X7636071Y-13887500D02*
X7650357Y-13901786D01*
X7636071Y-13916071D01*
X7621786Y-13901786D01*
X7636071Y-13887500D01*
X7636071Y-13916071D01*
X5182500Y-14512500D02*
X5292500Y-14622500D01*
X5292500Y-14512500D02*
X5182500Y-14622500D01*
X5736071Y-14703214D02*
X5564643Y-14703214D01*
X5650357Y-14703214D02*
X5650357Y-14403214D01*
X5621786Y-14446071D01*
X5593214Y-14474643D01*
X5564643Y-14488929D01*
X5864643Y-14674643D02*
X5878928Y-14688929D01*
X5864643Y-14703214D01*
X5850357Y-14688929D01*
X5864643Y-14674643D01*
X5864643Y-14703214D01*
X6164643Y-14703214D02*
X5993214Y-14703214D01*
X6078928Y-14703214D02*
X6078928Y-14403214D01*
X6050357Y-14446071D01*
X6021786Y-14474643D01*
X5993214Y-14488929D01*
X6350357Y-14403214D02*
X6378928Y-14403214D01*
X6407500Y-14417500D01*
X6421786Y-14431786D01*
X6436071Y-14460357D01*
X6450357Y-14517500D01*
X6450357Y-14588929D01*
X6436071Y-14646071D01*
X6421786Y-14674643D01*
X6407500Y-14688929D01*
X6378928Y-14703214D01*
X6350357Y-14703214D01*
X6321786Y-14688929D01*
X6307500Y-14674643D01*
X6293214Y-14646071D01*
X6278928Y-14588929D01*
X6278928Y-14517500D01*
X6293214Y-14460357D01*
X6307500Y-14431786D01*
X6321786Y-14417500D01*
X6350357Y-14403214D01*
X6636071Y-14403214D02*
X6664643Y-14403214D01*
X6693214Y-14417500D01*
X6707500Y-14431786D01*
X6721786Y-14460357D01*
X6736071Y-14517500D01*
X6736071Y-14588929D01*
X6721786Y-14646071D01*
X6707500Y-14674643D01*
X6693214Y-14688929D01*
X6664643Y-14703214D01*
X6636071Y-14703214D01*
X6607500Y-14688929D01*
X6593214Y-14674643D01*
X6578928Y-14646071D01*
X6564643Y-14588929D01*
X6564643Y-14517500D01*
X6578928Y-14460357D01*
X6593214Y-14431786D01*
X6607500Y-14417500D01*
X6636071Y-14403214D01*
X6864643Y-14703214D02*
X6864643Y-14503214D01*
X6864643Y-14531786D02*
X6878928Y-14517500D01*
X6907500Y-14503214D01*
X6950357Y-14503214D01*
X6978928Y-14517500D01*
X6993214Y-14546071D01*
X6993214Y-14703214D01*
X6993214Y-14546071D02*
X7007500Y-14517500D01*
X7036071Y-14503214D01*
X7078928Y-14503214D01*
X7107500Y-14517500D01*
X7121786Y-14546071D01*
X7121786Y-14703214D01*
X7264643Y-14703214D02*
X7264643Y-14503214D01*
X7264643Y-14531786D02*
X7278928Y-14517500D01*
X7307500Y-14503214D01*
X7350357Y-14503214D01*
X7378928Y-14517500D01*
X7393214Y-14546071D01*
X7393214Y-14703214D01*
X7393214Y-14546071D02*
X7407500Y-14517500D01*
X7436071Y-14503214D01*
X7478928Y-14503214D01*
X7507500Y-14517500D01*
X7521786Y-14546071D01*
X7521786Y-14703214D01*
X8107500Y-14388929D02*
X7850357Y-14774643D01*
X8493214Y-14403214D02*
X8521786Y-14403214D01*
X8550357Y-14417500D01*
X8564643Y-14431786D01*
X8578928Y-14460357D01*
X8593214Y-14517500D01*
X8593214Y-14588929D01*
X8578928Y-14646071D01*
X8564643Y-14674643D01*
X8550357Y-14688929D01*
X8521786Y-14703214D01*
X8493214Y-14703214D01*
X8464643Y-14688929D01*
X8450357Y-14674643D01*
X8436071Y-14646071D01*
X8421786Y-14588929D01*
X8421786Y-14517500D01*
X8436071Y-14460357D01*
X8450357Y-14431786D01*
X8464643Y-14417500D01*
X8493214Y-14403214D01*
X8721786Y-14674643D02*
X8736071Y-14688929D01*
X8721786Y-14703214D01*
X8707500Y-14688929D01*
X8721786Y-14674643D01*
X8721786Y-14703214D01*
X8921786Y-14403214D02*
X8950357Y-14403214D01*
X8978928Y-14417500D01*
X8993214Y-14431786D01*
X9007500Y-14460357D01*
X9021786Y-14517500D01*
X9021786Y-14588929D01*
X9007500Y-14646071D01*
X8993214Y-14674643D01*
X8978928Y-14688929D01*
X8950357Y-14703214D01*
X8921786Y-14703214D01*
X8893214Y-14688929D01*
X8878928Y-14674643D01*
X8864643Y-14646071D01*
X8850357Y-14588929D01*
X8850357Y-14517500D01*
X8864643Y-14460357D01*
X8878928Y-14431786D01*
X8893214Y-14417500D01*
X8921786Y-14403214D01*
X9278928Y-14503214D02*
X9278928Y-14703214D01*
X9207500Y-14388929D02*
X9136071Y-14603214D01*
X9321786Y-14603214D01*
X9407500Y-14403214D02*
X9593214Y-14403214D01*
X9493214Y-14517500D01*
X9536071Y-14517500D01*
X9564643Y-14531786D01*
X9578928Y-14546071D01*
X9593214Y-14574643D01*
X9593214Y-14646071D01*
X9578928Y-14674643D01*
X9564643Y-14688929D01*
X9536071Y-14703214D01*
X9450357Y-14703214D01*
X9421786Y-14688929D01*
X9407500Y-14674643D01*
X9693214Y-14403214D02*
X9878928Y-14403214D01*
X9778928Y-14517500D01*
X9821786Y-14517500D01*
X9850357Y-14531786D01*
X9864643Y-14546071D01*
X9878928Y-14574643D01*
X9878928Y-14646071D01*
X9864643Y-14674643D01*
X9850357Y-14688929D01*
X9821786Y-14703214D01*
X9736071Y-14703214D01*
X9707500Y-14688929D01*
X9693214Y-14674643D01*
X9993214Y-14403214D02*
X9993214Y-14460357D01*
X10107500Y-14403214D02*
X10107500Y-14460357D01*
X10550357Y-14817500D02*
X10536071Y-14803214D01*
X10507500Y-14760357D01*
X10493214Y-14731786D01*
X10478928Y-14688929D01*
X10464643Y-14617500D01*
X10464643Y-14560357D01*
X10478928Y-14488929D01*
X10493214Y-14446071D01*
X10507500Y-14417500D01*
X10536071Y-14374643D01*
X10550357Y-14360357D01*
X10650357Y-14431786D02*
X10664643Y-14417500D01*
X10693214Y-14403214D01*
X10764643Y-14403214D01*
X10793214Y-14417500D01*
X10807500Y-14431786D01*
X10821786Y-14460357D01*
X10821786Y-14488929D01*
X10807500Y-14531786D01*
X10636071Y-14703214D01*
X10821786Y-14703214D01*
X11178928Y-14703214D02*
X11178928Y-14403214D01*
X11307500Y-14703214D02*
X11307500Y-14546071D01*
X11293214Y-14517500D01*
X11264643Y-14503214D01*
X11221786Y-14503214D01*
X11193214Y-14517500D01*
X11178928Y-14531786D01*
X11493214Y-14703214D02*
X11464643Y-14688929D01*
X11450357Y-14674643D01*
X11436071Y-14646071D01*
X11436071Y-14560357D01*
X11450357Y-14531786D01*
X11464643Y-14517500D01*
X11493214Y-14503214D01*
X11536071Y-14503214D01*
X11564643Y-14517500D01*
X11578928Y-14531786D01*
X11593214Y-14560357D01*
X11593214Y-14646071D01*
X11578928Y-14674643D01*
X11564643Y-14688929D01*
X11536071Y-14703214D01*
X11493214Y-14703214D01*
X11764643Y-14703214D02*
X11736071Y-14688929D01*
X11721786Y-14660357D01*
X11721786Y-14403214D01*
X11993214Y-14688929D02*
X11964643Y-14703214D01*
X11907500Y-14703214D01*
X11878928Y-14688929D01*
X11864643Y-14660357D01*
X11864643Y-14546071D01*
X11878928Y-14517500D01*
X11907500Y-14503214D01*
X11964643Y-14503214D01*
X11993214Y-14517500D01*
X12007500Y-14546071D01*
X12007500Y-14574643D01*
X11864643Y-14603214D01*
X12121786Y-14688929D02*
X12150357Y-14703214D01*
X12207500Y-14703214D01*
X12236071Y-14688929D01*
X12250357Y-14660357D01*
X12250357Y-14646071D01*
X12236071Y-14617500D01*
X12207500Y-14603214D01*
X12164643Y-14603214D01*
X12136071Y-14588929D01*
X12121786Y-14560357D01*
X12121786Y-14546071D01*
X12136071Y-14517500D01*
X12164643Y-14503214D01*
X12207500Y-14503214D01*
X12236071Y-14517500D01*
X12350357Y-14817500D02*
X12364643Y-14803214D01*
X12393214Y-14760357D01*
X12407500Y-14731786D01*
X12421786Y-14688929D01*
X12436071Y-14617500D01*
X12436071Y-14560357D01*
X12421786Y-14488929D01*
X12407500Y-14446071D01*
X12393214Y-14417500D01*
X12364643Y-14374643D01*
X12350357Y-14360357D01*
X12893214Y-14817500D02*
X12878928Y-14803214D01*
X12850357Y-14760357D01*
X12836071Y-14731786D01*
X12821786Y-14688929D01*
X12807500Y-14617500D01*
X12807500Y-14560357D01*
X12821786Y-14488929D01*
X12836071Y-14446071D01*
X12850357Y-14417500D01*
X12878928Y-14374643D01*
X12893214Y-14360357D01*
X13007500Y-14503214D02*
X13007500Y-14703214D01*
X13007500Y-14531786D02*
X13021786Y-14517500D01*
X13050357Y-14503214D01*
X13093214Y-14503214D01*
X13121786Y-14517500D01*
X13136071Y-14546071D01*
X13136071Y-14703214D01*
X13321786Y-14703214D02*
X13293214Y-14688929D01*
X13278928Y-14674643D01*
X13264643Y-14646071D01*
X13264643Y-14560357D01*
X13278928Y-14531786D01*
X13293214Y-14517500D01*
X13321786Y-14503214D01*
X13364643Y-14503214D01*
X13393214Y-14517500D01*
X13407500Y-14531786D01*
X13421786Y-14560357D01*
X13421786Y-14646071D01*
X13407500Y-14674643D01*
X13393214Y-14688929D01*
X13364643Y-14703214D01*
X13321786Y-14703214D01*
X13507500Y-14503214D02*
X13621786Y-14503214D01*
X13550357Y-14403214D02*
X13550357Y-14660357D01*
X13564643Y-14688929D01*
X13593214Y-14703214D01*
X13621786Y-14703214D01*
X13950357Y-14503214D02*
X13950357Y-14803214D01*
X13950357Y-14517500D02*
X13978928Y-14503214D01*
X14036071Y-14503214D01*
X14064643Y-14517500D01*
X14078928Y-14531786D01*
X14093214Y-14560357D01*
X14093214Y-14646071D01*
X14078928Y-14674643D01*
X14064643Y-14688929D01*
X14036071Y-14703214D01*
X13978928Y-14703214D01*
X13950357Y-14688929D01*
X14264643Y-14703214D02*
X14236071Y-14688929D01*
X14221786Y-14660357D01*
X14221786Y-14403214D01*
X14507500Y-14703214D02*
X14507500Y-14546071D01*
X14493214Y-14517500D01*
X14464643Y-14503214D01*
X14407500Y-14503214D01*
X14378928Y-14517500D01*
X14507500Y-14688929D02*
X14478928Y-14703214D01*
X14407500Y-14703214D01*
X14378928Y-14688929D01*
X14364643Y-14660357D01*
X14364643Y-14631786D01*
X14378928Y-14603214D01*
X14407500Y-14588929D01*
X14478928Y-14588929D01*
X14507500Y-14574643D01*
X14607500Y-14503214D02*
X14721786Y-14503214D01*
X14650357Y-14403214D02*
X14650357Y-14660357D01*
X14664643Y-14688929D01*
X14693214Y-14703214D01*
X14721786Y-14703214D01*
X14936071Y-14688929D02*
X14907500Y-14703214D01*
X14850357Y-14703214D01*
X14821786Y-14688929D01*
X14807500Y-14660357D01*
X14807500Y-14546071D01*
X14821786Y-14517500D01*
X14850357Y-14503214D01*
X14907500Y-14503214D01*
X14936071Y-14517500D01*
X14950357Y-14546071D01*
X14950357Y-14574643D01*
X14807500Y-14603214D01*
X15207500Y-14703214D02*
X15207500Y-14403214D01*
X15207500Y-14688929D02*
X15178928Y-14703214D01*
X15121786Y-14703214D01*
X15093214Y-14688929D01*
X15078928Y-14674643D01*
X15064643Y-14646071D01*
X15064643Y-14560357D01*
X15078928Y-14531786D01*
X15093214Y-14517500D01*
X15121786Y-14503214D01*
X15178928Y-14503214D01*
X15207500Y-14517500D01*
X15321786Y-14817500D02*
X15336071Y-14803214D01*
X15364643Y-14760357D01*
X15378928Y-14731786D01*
X15393214Y-14688929D01*
X15407500Y-14617500D01*
X15407500Y-14560357D01*
X15393214Y-14488929D01*
X15378928Y-14446071D01*
X15364643Y-14417500D01*
X15336071Y-14374643D01*
X15321786Y-14360357D01*
M02*
