%TF.GenerationSoftware,KiCad,Pcbnew,(5.1.12)-1*%
%TF.CreationDate,2023-03-06T18:53:53+01:00*%
%TF.ProjectId,C4V1,43345631-2e6b-4696-9361-645f70636258,rev?*%
%TF.SameCoordinates,Original*%
%TF.FileFunction,Soldermask,Top*%
%TF.FilePolarity,Negative*%
%FSLAX46Y46*%
G04 Gerber Fmt 4.6, Leading zero omitted, Abs format (unit mm)*
G04 Created by KiCad (PCBNEW (5.1.12)-1) date 2023-03-06 18:53:53*
%MOMM*%
%LPD*%
G01*
G04 APERTURE LIST*
%ADD10R,1.000000X1.500000*%
%ADD11R,1.550000X1.300000*%
%ADD12C,1.100000*%
%ADD13C,3.900000*%
%ADD14R,1.200000X1.400000*%
%ADD15R,1.550000X2.400000*%
%ADD16R,0.650000X0.350000*%
%ADD17R,1.350000X0.650000*%
%ADD18R,3.600000X3.600000*%
%ADD19R,0.250000X0.850000*%
%ADD20R,0.850000X0.250000*%
%ADD21R,1.200000X0.600000*%
%ADD22O,1.700000X1.700000*%
%ADD23R,1.700000X1.700000*%
G04 APERTURE END LIST*
D10*
X105510000Y-103910000D03*
X108710000Y-103910000D03*
X105510000Y-99010000D03*
X108710000Y-99010000D03*
D11*
X84175000Y-119250000D03*
X84175000Y-114750000D03*
X76225000Y-114750000D03*
X76225000Y-119250000D03*
X76125000Y-107750000D03*
X76125000Y-112250000D03*
X84075000Y-112250000D03*
X84075000Y-107750000D03*
G36*
G01*
X94530000Y-104500000D02*
X94870000Y-104500000D01*
G75*
G02*
X95010000Y-104640000I0J-140000D01*
G01*
X95010000Y-104920000D01*
G75*
G02*
X94870000Y-105060000I-140000J0D01*
G01*
X94530000Y-105060000D01*
G75*
G02*
X94390000Y-104920000I0J140000D01*
G01*
X94390000Y-104640000D01*
G75*
G02*
X94530000Y-104500000I140000J0D01*
G01*
G37*
G36*
G01*
X94530000Y-103540000D02*
X94870000Y-103540000D01*
G75*
G02*
X95010000Y-103680000I0J-140000D01*
G01*
X95010000Y-103960000D01*
G75*
G02*
X94870000Y-104100000I-140000J0D01*
G01*
X94530000Y-104100000D01*
G75*
G02*
X94390000Y-103960000I0J140000D01*
G01*
X94390000Y-103680000D01*
G75*
G02*
X94530000Y-103540000I140000J0D01*
G01*
G37*
G36*
G01*
X65440000Y-101285000D02*
X65440000Y-100915000D01*
G75*
G02*
X65575000Y-100780000I135000J0D01*
G01*
X65845000Y-100780000D01*
G75*
G02*
X65980000Y-100915000I0J-135000D01*
G01*
X65980000Y-101285000D01*
G75*
G02*
X65845000Y-101420000I-135000J0D01*
G01*
X65575000Y-101420000D01*
G75*
G02*
X65440000Y-101285000I0J135000D01*
G01*
G37*
G36*
G01*
X64420000Y-101285000D02*
X64420000Y-100915000D01*
G75*
G02*
X64555000Y-100780000I135000J0D01*
G01*
X64825000Y-100780000D01*
G75*
G02*
X64960000Y-100915000I0J-135000D01*
G01*
X64960000Y-101285000D01*
G75*
G02*
X64825000Y-101420000I-135000J0D01*
G01*
X64555000Y-101420000D01*
G75*
G02*
X64420000Y-101285000I0J135000D01*
G01*
G37*
G36*
G01*
X65885000Y-119560000D02*
X65515000Y-119560000D01*
G75*
G02*
X65380000Y-119425000I0J135000D01*
G01*
X65380000Y-119155000D01*
G75*
G02*
X65515000Y-119020000I135000J0D01*
G01*
X65885000Y-119020000D01*
G75*
G02*
X66020000Y-119155000I0J-135000D01*
G01*
X66020000Y-119425000D01*
G75*
G02*
X65885000Y-119560000I-135000J0D01*
G01*
G37*
G36*
G01*
X65885000Y-120580000D02*
X65515000Y-120580000D01*
G75*
G02*
X65380000Y-120445000I0J135000D01*
G01*
X65380000Y-120175000D01*
G75*
G02*
X65515000Y-120040000I135000J0D01*
G01*
X65885000Y-120040000D01*
G75*
G02*
X66020000Y-120175000I0J-135000D01*
G01*
X66020000Y-120445000D01*
G75*
G02*
X65885000Y-120580000I-135000J0D01*
G01*
G37*
G36*
G01*
X59815000Y-109050000D02*
X60185000Y-109050000D01*
G75*
G02*
X60320000Y-109185000I0J-135000D01*
G01*
X60320000Y-109455000D01*
G75*
G02*
X60185000Y-109590000I-135000J0D01*
G01*
X59815000Y-109590000D01*
G75*
G02*
X59680000Y-109455000I0J135000D01*
G01*
X59680000Y-109185000D01*
G75*
G02*
X59815000Y-109050000I135000J0D01*
G01*
G37*
G36*
G01*
X59815000Y-108030000D02*
X60185000Y-108030000D01*
G75*
G02*
X60320000Y-108165000I0J-135000D01*
G01*
X60320000Y-108435000D01*
G75*
G02*
X60185000Y-108570000I-135000J0D01*
G01*
X59815000Y-108570000D01*
G75*
G02*
X59680000Y-108435000I0J135000D01*
G01*
X59680000Y-108165000D01*
G75*
G02*
X59815000Y-108030000I135000J0D01*
G01*
G37*
G36*
G01*
X70385000Y-111260000D02*
X70015000Y-111260000D01*
G75*
G02*
X69880000Y-111125000I0J135000D01*
G01*
X69880000Y-110855000D01*
G75*
G02*
X70015000Y-110720000I135000J0D01*
G01*
X70385000Y-110720000D01*
G75*
G02*
X70520000Y-110855000I0J-135000D01*
G01*
X70520000Y-111125000D01*
G75*
G02*
X70385000Y-111260000I-135000J0D01*
G01*
G37*
G36*
G01*
X70385000Y-112280000D02*
X70015000Y-112280000D01*
G75*
G02*
X69880000Y-112145000I0J135000D01*
G01*
X69880000Y-111875000D01*
G75*
G02*
X70015000Y-111740000I135000J0D01*
G01*
X70385000Y-111740000D01*
G75*
G02*
X70520000Y-111875000I0J-135000D01*
G01*
X70520000Y-112145000D01*
G75*
G02*
X70385000Y-112280000I-135000J0D01*
G01*
G37*
G36*
G01*
X65415000Y-125640000D02*
X65785000Y-125640000D01*
G75*
G02*
X65920000Y-125775000I0J-135000D01*
G01*
X65920000Y-126045000D01*
G75*
G02*
X65785000Y-126180000I-135000J0D01*
G01*
X65415000Y-126180000D01*
G75*
G02*
X65280000Y-126045000I0J135000D01*
G01*
X65280000Y-125775000D01*
G75*
G02*
X65415000Y-125640000I135000J0D01*
G01*
G37*
G36*
G01*
X65415000Y-124620000D02*
X65785000Y-124620000D01*
G75*
G02*
X65920000Y-124755000I0J-135000D01*
G01*
X65920000Y-125025000D01*
G75*
G02*
X65785000Y-125160000I-135000J0D01*
G01*
X65415000Y-125160000D01*
G75*
G02*
X65280000Y-125025000I0J135000D01*
G01*
X65280000Y-124755000D01*
G75*
G02*
X65415000Y-124620000I135000J0D01*
G01*
G37*
G36*
G01*
X101915000Y-106140000D02*
X102285000Y-106140000D01*
G75*
G02*
X102420000Y-106275000I0J-135000D01*
G01*
X102420000Y-106545000D01*
G75*
G02*
X102285000Y-106680000I-135000J0D01*
G01*
X101915000Y-106680000D01*
G75*
G02*
X101780000Y-106545000I0J135000D01*
G01*
X101780000Y-106275000D01*
G75*
G02*
X101915000Y-106140000I135000J0D01*
G01*
G37*
G36*
G01*
X101915000Y-105120000D02*
X102285000Y-105120000D01*
G75*
G02*
X102420000Y-105255000I0J-135000D01*
G01*
X102420000Y-105525000D01*
G75*
G02*
X102285000Y-105660000I-135000J0D01*
G01*
X101915000Y-105660000D01*
G75*
G02*
X101780000Y-105525000I0J135000D01*
G01*
X101780000Y-105255000D01*
G75*
G02*
X101915000Y-105120000I135000J0D01*
G01*
G37*
G36*
G01*
X65630000Y-103400000D02*
X65970000Y-103400000D01*
G75*
G02*
X66110000Y-103540000I0J-140000D01*
G01*
X66110000Y-103820000D01*
G75*
G02*
X65970000Y-103960000I-140000J0D01*
G01*
X65630000Y-103960000D01*
G75*
G02*
X65490000Y-103820000I0J140000D01*
G01*
X65490000Y-103540000D01*
G75*
G02*
X65630000Y-103400000I140000J0D01*
G01*
G37*
G36*
G01*
X65630000Y-102440000D02*
X65970000Y-102440000D01*
G75*
G02*
X66110000Y-102580000I0J-140000D01*
G01*
X66110000Y-102860000D01*
G75*
G02*
X65970000Y-103000000I-140000J0D01*
G01*
X65630000Y-103000000D01*
G75*
G02*
X65490000Y-102860000I0J140000D01*
G01*
X65490000Y-102580000D01*
G75*
G02*
X65630000Y-102440000I140000J0D01*
G01*
G37*
G36*
G01*
X65870000Y-117000000D02*
X65530000Y-117000000D01*
G75*
G02*
X65390000Y-116860000I0J140000D01*
G01*
X65390000Y-116580000D01*
G75*
G02*
X65530000Y-116440000I140000J0D01*
G01*
X65870000Y-116440000D01*
G75*
G02*
X66010000Y-116580000I0J-140000D01*
G01*
X66010000Y-116860000D01*
G75*
G02*
X65870000Y-117000000I-140000J0D01*
G01*
G37*
G36*
G01*
X65870000Y-117960000D02*
X65530000Y-117960000D01*
G75*
G02*
X65390000Y-117820000I0J140000D01*
G01*
X65390000Y-117540000D01*
G75*
G02*
X65530000Y-117400000I140000J0D01*
G01*
X65870000Y-117400000D01*
G75*
G02*
X66010000Y-117540000I0J-140000D01*
G01*
X66010000Y-117820000D01*
G75*
G02*
X65870000Y-117960000I-140000J0D01*
G01*
G37*
G36*
G01*
X59830000Y-111600000D02*
X60170000Y-111600000D01*
G75*
G02*
X60310000Y-111740000I0J-140000D01*
G01*
X60310000Y-112020000D01*
G75*
G02*
X60170000Y-112160000I-140000J0D01*
G01*
X59830000Y-112160000D01*
G75*
G02*
X59690000Y-112020000I0J140000D01*
G01*
X59690000Y-111740000D01*
G75*
G02*
X59830000Y-111600000I140000J0D01*
G01*
G37*
G36*
G01*
X59830000Y-110640000D02*
X60170000Y-110640000D01*
G75*
G02*
X60310000Y-110780000I0J-140000D01*
G01*
X60310000Y-111060000D01*
G75*
G02*
X60170000Y-111200000I-140000J0D01*
G01*
X59830000Y-111200000D01*
G75*
G02*
X59690000Y-111060000I0J140000D01*
G01*
X59690000Y-110780000D01*
G75*
G02*
X59830000Y-110640000I140000J0D01*
G01*
G37*
G36*
G01*
X70370000Y-108800000D02*
X70030000Y-108800000D01*
G75*
G02*
X69890000Y-108660000I0J140000D01*
G01*
X69890000Y-108380000D01*
G75*
G02*
X70030000Y-108240000I140000J0D01*
G01*
X70370000Y-108240000D01*
G75*
G02*
X70510000Y-108380000I0J-140000D01*
G01*
X70510000Y-108660000D01*
G75*
G02*
X70370000Y-108800000I-140000J0D01*
G01*
G37*
G36*
G01*
X70370000Y-109760000D02*
X70030000Y-109760000D01*
G75*
G02*
X69890000Y-109620000I0J140000D01*
G01*
X69890000Y-109340000D01*
G75*
G02*
X70030000Y-109200000I140000J0D01*
G01*
X70370000Y-109200000D01*
G75*
G02*
X70510000Y-109340000I0J-140000D01*
G01*
X70510000Y-109620000D01*
G75*
G02*
X70370000Y-109760000I-140000J0D01*
G01*
G37*
G36*
G01*
X65430000Y-128200000D02*
X65770000Y-128200000D01*
G75*
G02*
X65910000Y-128340000I0J-140000D01*
G01*
X65910000Y-128620000D01*
G75*
G02*
X65770000Y-128760000I-140000J0D01*
G01*
X65430000Y-128760000D01*
G75*
G02*
X65290000Y-128620000I0J140000D01*
G01*
X65290000Y-128340000D01*
G75*
G02*
X65430000Y-128200000I140000J0D01*
G01*
G37*
G36*
G01*
X65430000Y-127240000D02*
X65770000Y-127240000D01*
G75*
G02*
X65910000Y-127380000I0J-140000D01*
G01*
X65910000Y-127660000D01*
G75*
G02*
X65770000Y-127800000I-140000J0D01*
G01*
X65430000Y-127800000D01*
G75*
G02*
X65290000Y-127660000I0J140000D01*
G01*
X65290000Y-127380000D01*
G75*
G02*
X65430000Y-127240000I140000J0D01*
G01*
G37*
D12*
X119600000Y-113750000D03*
X119600000Y-118250000D03*
D13*
X119600000Y-110150000D03*
X119600000Y-121850000D03*
G36*
G01*
X104925000Y-126999999D02*
X104925000Y-129200001D01*
G75*
G02*
X104675001Y-129450000I-249999J0D01*
G01*
X104024999Y-129450000D01*
G75*
G02*
X103775000Y-129200001I0J249999D01*
G01*
X103775000Y-126999999D01*
G75*
G02*
X104024999Y-126750000I249999J0D01*
G01*
X104675001Y-126750000D01*
G75*
G02*
X104925000Y-126999999I0J-249999D01*
G01*
G37*
G36*
G01*
X107875000Y-126999999D02*
X107875000Y-129200001D01*
G75*
G02*
X107625001Y-129450000I-249999J0D01*
G01*
X106974999Y-129450000D01*
G75*
G02*
X106725000Y-129200001I0J249999D01*
G01*
X106725000Y-126999999D01*
G75*
G02*
X106974999Y-126750000I249999J0D01*
G01*
X107625001Y-126750000D01*
G75*
G02*
X107875000Y-126999999I0J-249999D01*
G01*
G37*
D14*
X92250000Y-110400000D03*
X92250000Y-108200000D03*
X93950000Y-108200000D03*
X93950000Y-110400000D03*
D15*
X109500000Y-119200000D03*
D16*
X111050000Y-118225000D03*
X111050000Y-118875000D03*
X111050000Y-119525000D03*
X111050000Y-120175000D03*
X107950000Y-120175000D03*
X107950000Y-119525000D03*
X107950000Y-118875000D03*
X107950000Y-118225000D03*
G36*
G01*
X98485000Y-105160000D02*
X98115000Y-105160000D01*
G75*
G02*
X97980000Y-105025000I0J135000D01*
G01*
X97980000Y-104755000D01*
G75*
G02*
X98115000Y-104620000I135000J0D01*
G01*
X98485000Y-104620000D01*
G75*
G02*
X98620000Y-104755000I0J-135000D01*
G01*
X98620000Y-105025000D01*
G75*
G02*
X98485000Y-105160000I-135000J0D01*
G01*
G37*
G36*
G01*
X98485000Y-106180000D02*
X98115000Y-106180000D01*
G75*
G02*
X97980000Y-106045000I0J135000D01*
G01*
X97980000Y-105775000D01*
G75*
G02*
X98115000Y-105640000I135000J0D01*
G01*
X98485000Y-105640000D01*
G75*
G02*
X98620000Y-105775000I0J-135000D01*
G01*
X98620000Y-106045000D01*
G75*
G02*
X98485000Y-106180000I-135000J0D01*
G01*
G37*
G36*
G01*
X95215000Y-111240000D02*
X95585000Y-111240000D01*
G75*
G02*
X95720000Y-111375000I0J-135000D01*
G01*
X95720000Y-111645000D01*
G75*
G02*
X95585000Y-111780000I-135000J0D01*
G01*
X95215000Y-111780000D01*
G75*
G02*
X95080000Y-111645000I0J135000D01*
G01*
X95080000Y-111375000D01*
G75*
G02*
X95215000Y-111240000I135000J0D01*
G01*
G37*
G36*
G01*
X95215000Y-110220000D02*
X95585000Y-110220000D01*
G75*
G02*
X95720000Y-110355000I0J-135000D01*
G01*
X95720000Y-110625000D01*
G75*
G02*
X95585000Y-110760000I-135000J0D01*
G01*
X95215000Y-110760000D01*
G75*
G02*
X95080000Y-110625000I0J135000D01*
G01*
X95080000Y-110355000D01*
G75*
G02*
X95215000Y-110220000I135000J0D01*
G01*
G37*
G36*
G01*
X94985000Y-128060000D02*
X94615000Y-128060000D01*
G75*
G02*
X94480000Y-127925000I0J135000D01*
G01*
X94480000Y-127655000D01*
G75*
G02*
X94615000Y-127520000I135000J0D01*
G01*
X94985000Y-127520000D01*
G75*
G02*
X95120000Y-127655000I0J-135000D01*
G01*
X95120000Y-127925000D01*
G75*
G02*
X94985000Y-128060000I-135000J0D01*
G01*
G37*
G36*
G01*
X94985000Y-129080000D02*
X94615000Y-129080000D01*
G75*
G02*
X94480000Y-128945000I0J135000D01*
G01*
X94480000Y-128675000D01*
G75*
G02*
X94615000Y-128540000I135000J0D01*
G01*
X94985000Y-128540000D01*
G75*
G02*
X95120000Y-128675000I0J-135000D01*
G01*
X95120000Y-128945000D01*
G75*
G02*
X94985000Y-129080000I-135000J0D01*
G01*
G37*
G36*
G01*
X103760000Y-125215000D02*
X103760000Y-125585000D01*
G75*
G02*
X103625000Y-125720000I-135000J0D01*
G01*
X103355000Y-125720000D01*
G75*
G02*
X103220000Y-125585000I0J135000D01*
G01*
X103220000Y-125215000D01*
G75*
G02*
X103355000Y-125080000I135000J0D01*
G01*
X103625000Y-125080000D01*
G75*
G02*
X103760000Y-125215000I0J-135000D01*
G01*
G37*
G36*
G01*
X104780000Y-125215000D02*
X104780000Y-125585000D01*
G75*
G02*
X104645000Y-125720000I-135000J0D01*
G01*
X104375000Y-125720000D01*
G75*
G02*
X104240000Y-125585000I0J135000D01*
G01*
X104240000Y-125215000D01*
G75*
G02*
X104375000Y-125080000I135000J0D01*
G01*
X104645000Y-125080000D01*
G75*
G02*
X104780000Y-125215000I0J-135000D01*
G01*
G37*
G36*
G01*
X94885000Y-121760000D02*
X94515000Y-121760000D01*
G75*
G02*
X94380000Y-121625000I0J135000D01*
G01*
X94380000Y-121355000D01*
G75*
G02*
X94515000Y-121220000I135000J0D01*
G01*
X94885000Y-121220000D01*
G75*
G02*
X95020000Y-121355000I0J-135000D01*
G01*
X95020000Y-121625000D01*
G75*
G02*
X94885000Y-121760000I-135000J0D01*
G01*
G37*
G36*
G01*
X94885000Y-122780000D02*
X94515000Y-122780000D01*
G75*
G02*
X94380000Y-122645000I0J135000D01*
G01*
X94380000Y-122375000D01*
G75*
G02*
X94515000Y-122240000I135000J0D01*
G01*
X94885000Y-122240000D01*
G75*
G02*
X95020000Y-122375000I0J-135000D01*
G01*
X95020000Y-122645000D01*
G75*
G02*
X94885000Y-122780000I-135000J0D01*
G01*
G37*
G36*
G01*
X103215000Y-119840000D02*
X103585000Y-119840000D01*
G75*
G02*
X103720000Y-119975000I0J-135000D01*
G01*
X103720000Y-120245000D01*
G75*
G02*
X103585000Y-120380000I-135000J0D01*
G01*
X103215000Y-120380000D01*
G75*
G02*
X103080000Y-120245000I0J135000D01*
G01*
X103080000Y-119975000D01*
G75*
G02*
X103215000Y-119840000I135000J0D01*
G01*
G37*
G36*
G01*
X103215000Y-118820000D02*
X103585000Y-118820000D01*
G75*
G02*
X103720000Y-118955000I0J-135000D01*
G01*
X103720000Y-119225000D01*
G75*
G02*
X103585000Y-119360000I-135000J0D01*
G01*
X103215000Y-119360000D01*
G75*
G02*
X103080000Y-119225000I0J135000D01*
G01*
X103080000Y-118955000D01*
G75*
G02*
X103215000Y-118820000I135000J0D01*
G01*
G37*
D17*
X96300000Y-128705000D03*
X96300000Y-127435000D03*
X96300000Y-126165000D03*
X96300000Y-124895000D03*
X101900000Y-124895000D03*
X101900000Y-126165000D03*
X101900000Y-127435000D03*
X101900000Y-128705000D03*
X96300000Y-122705000D03*
X96300000Y-121435000D03*
X96300000Y-120165000D03*
X96300000Y-118895000D03*
X101900000Y-118895000D03*
X101900000Y-120165000D03*
X101900000Y-121435000D03*
X101900000Y-122705000D03*
G36*
G01*
X96470000Y-107400000D02*
X96130000Y-107400000D01*
G75*
G02*
X95990000Y-107260000I0J140000D01*
G01*
X95990000Y-106980000D01*
G75*
G02*
X96130000Y-106840000I140000J0D01*
G01*
X96470000Y-106840000D01*
G75*
G02*
X96610000Y-106980000I0J-140000D01*
G01*
X96610000Y-107260000D01*
G75*
G02*
X96470000Y-107400000I-140000J0D01*
G01*
G37*
G36*
G01*
X96470000Y-108360000D02*
X96130000Y-108360000D01*
G75*
G02*
X95990000Y-108220000I0J140000D01*
G01*
X95990000Y-107940000D01*
G75*
G02*
X96130000Y-107800000I140000J0D01*
G01*
X96470000Y-107800000D01*
G75*
G02*
X96610000Y-107940000I0J-140000D01*
G01*
X96610000Y-108220000D01*
G75*
G02*
X96470000Y-108360000I-140000J0D01*
G01*
G37*
G36*
G01*
X101100000Y-113930000D02*
X101100000Y-114270000D01*
G75*
G02*
X100960000Y-114410000I-140000J0D01*
G01*
X100680000Y-114410000D01*
G75*
G02*
X100540000Y-114270000I0J140000D01*
G01*
X100540000Y-113930000D01*
G75*
G02*
X100680000Y-113790000I140000J0D01*
G01*
X100960000Y-113790000D01*
G75*
G02*
X101100000Y-113930000I0J-140000D01*
G01*
G37*
G36*
G01*
X102060000Y-113930000D02*
X102060000Y-114270000D01*
G75*
G02*
X101920000Y-114410000I-140000J0D01*
G01*
X101640000Y-114410000D01*
G75*
G02*
X101500000Y-114270000I0J140000D01*
G01*
X101500000Y-113930000D01*
G75*
G02*
X101640000Y-113790000I140000J0D01*
G01*
X101920000Y-113790000D01*
G75*
G02*
X102060000Y-113930000I0J-140000D01*
G01*
G37*
G36*
G01*
X103530000Y-112900000D02*
X103870000Y-112900000D01*
G75*
G02*
X104010000Y-113040000I0J-140000D01*
G01*
X104010000Y-113320000D01*
G75*
G02*
X103870000Y-113460000I-140000J0D01*
G01*
X103530000Y-113460000D01*
G75*
G02*
X103390000Y-113320000I0J140000D01*
G01*
X103390000Y-113040000D01*
G75*
G02*
X103530000Y-112900000I140000J0D01*
G01*
G37*
G36*
G01*
X103530000Y-111940000D02*
X103870000Y-111940000D01*
G75*
G02*
X104010000Y-112080000I0J-140000D01*
G01*
X104010000Y-112360000D01*
G75*
G02*
X103870000Y-112500000I-140000J0D01*
G01*
X103530000Y-112500000D01*
G75*
G02*
X103390000Y-112360000I0J140000D01*
G01*
X103390000Y-112080000D01*
G75*
G02*
X103530000Y-111940000I140000J0D01*
G01*
G37*
G36*
G01*
X94800000Y-112330000D02*
X94800000Y-112670000D01*
G75*
G02*
X94660000Y-112810000I-140000J0D01*
G01*
X94380000Y-112810000D01*
G75*
G02*
X94240000Y-112670000I0J140000D01*
G01*
X94240000Y-112330000D01*
G75*
G02*
X94380000Y-112190000I140000J0D01*
G01*
X94660000Y-112190000D01*
G75*
G02*
X94800000Y-112330000I0J-140000D01*
G01*
G37*
G36*
G01*
X95760000Y-112330000D02*
X95760000Y-112670000D01*
G75*
G02*
X95620000Y-112810000I-140000J0D01*
G01*
X95340000Y-112810000D01*
G75*
G02*
X95200000Y-112670000I0J140000D01*
G01*
X95200000Y-112330000D01*
G75*
G02*
X95340000Y-112190000I140000J0D01*
G01*
X95620000Y-112190000D01*
G75*
G02*
X95760000Y-112330000I0J-140000D01*
G01*
G37*
G36*
G01*
X108100000Y-114970000D02*
X108100000Y-114630000D01*
G75*
G02*
X108240000Y-114490000I140000J0D01*
G01*
X108520000Y-114490000D01*
G75*
G02*
X108660000Y-114630000I0J-140000D01*
G01*
X108660000Y-114970000D01*
G75*
G02*
X108520000Y-115110000I-140000J0D01*
G01*
X108240000Y-115110000D01*
G75*
G02*
X108100000Y-114970000I0J140000D01*
G01*
G37*
G36*
G01*
X107140000Y-114970000D02*
X107140000Y-114630000D01*
G75*
G02*
X107280000Y-114490000I140000J0D01*
G01*
X107560000Y-114490000D01*
G75*
G02*
X107700000Y-114630000I0J-140000D01*
G01*
X107700000Y-114970000D01*
G75*
G02*
X107560000Y-115110000I-140000J0D01*
G01*
X107280000Y-115110000D01*
G75*
G02*
X107140000Y-114970000I0J140000D01*
G01*
G37*
G36*
G01*
X93300000Y-112170000D02*
X93300000Y-111830000D01*
G75*
G02*
X93440000Y-111690000I140000J0D01*
G01*
X93720000Y-111690000D01*
G75*
G02*
X93860000Y-111830000I0J-140000D01*
G01*
X93860000Y-112170000D01*
G75*
G02*
X93720000Y-112310000I-140000J0D01*
G01*
X93440000Y-112310000D01*
G75*
G02*
X93300000Y-112170000I0J140000D01*
G01*
G37*
G36*
G01*
X92340000Y-112170000D02*
X92340000Y-111830000D01*
G75*
G02*
X92480000Y-111690000I140000J0D01*
G01*
X92760000Y-111690000D01*
G75*
G02*
X92900000Y-111830000I0J-140000D01*
G01*
X92900000Y-112170000D01*
G75*
G02*
X92760000Y-112310000I-140000J0D01*
G01*
X92480000Y-112310000D01*
G75*
G02*
X92340000Y-112170000I0J140000D01*
G01*
G37*
G36*
G01*
X92900000Y-106430000D02*
X92900000Y-106770000D01*
G75*
G02*
X92760000Y-106910000I-140000J0D01*
G01*
X92480000Y-106910000D01*
G75*
G02*
X92340000Y-106770000I0J140000D01*
G01*
X92340000Y-106430000D01*
G75*
G02*
X92480000Y-106290000I140000J0D01*
G01*
X92760000Y-106290000D01*
G75*
G02*
X92900000Y-106430000I0J-140000D01*
G01*
G37*
G36*
G01*
X93860000Y-106430000D02*
X93860000Y-106770000D01*
G75*
G02*
X93720000Y-106910000I-140000J0D01*
G01*
X93440000Y-106910000D01*
G75*
G02*
X93300000Y-106770000I0J140000D01*
G01*
X93300000Y-106430000D01*
G75*
G02*
X93440000Y-106290000I140000J0D01*
G01*
X93720000Y-106290000D01*
G75*
G02*
X93860000Y-106430000I0J-140000D01*
G01*
G37*
G36*
G01*
X112030000Y-119000000D02*
X112370000Y-119000000D01*
G75*
G02*
X112510000Y-119140000I0J-140000D01*
G01*
X112510000Y-119420000D01*
G75*
G02*
X112370000Y-119560000I-140000J0D01*
G01*
X112030000Y-119560000D01*
G75*
G02*
X111890000Y-119420000I0J140000D01*
G01*
X111890000Y-119140000D01*
G75*
G02*
X112030000Y-119000000I140000J0D01*
G01*
G37*
G36*
G01*
X112030000Y-118040000D02*
X112370000Y-118040000D01*
G75*
G02*
X112510000Y-118180000I0J-140000D01*
G01*
X112510000Y-118460000D01*
G75*
G02*
X112370000Y-118600000I-140000J0D01*
G01*
X112030000Y-118600000D01*
G75*
G02*
X111890000Y-118460000I0J140000D01*
G01*
X111890000Y-118180000D01*
G75*
G02*
X112030000Y-118040000I140000J0D01*
G01*
G37*
G36*
G01*
X108200000Y-121670000D02*
X108200000Y-121330000D01*
G75*
G02*
X108340000Y-121190000I140000J0D01*
G01*
X108620000Y-121190000D01*
G75*
G02*
X108760000Y-121330000I0J-140000D01*
G01*
X108760000Y-121670000D01*
G75*
G02*
X108620000Y-121810000I-140000J0D01*
G01*
X108340000Y-121810000D01*
G75*
G02*
X108200000Y-121670000I0J140000D01*
G01*
G37*
G36*
G01*
X107240000Y-121670000D02*
X107240000Y-121330000D01*
G75*
G02*
X107380000Y-121190000I140000J0D01*
G01*
X107660000Y-121190000D01*
G75*
G02*
X107800000Y-121330000I0J-140000D01*
G01*
X107800000Y-121670000D01*
G75*
G02*
X107660000Y-121810000I-140000J0D01*
G01*
X107380000Y-121810000D01*
G75*
G02*
X107240000Y-121670000I0J140000D01*
G01*
G37*
G36*
G01*
X106630000Y-118900000D02*
X106970000Y-118900000D01*
G75*
G02*
X107110000Y-119040000I0J-140000D01*
G01*
X107110000Y-119320000D01*
G75*
G02*
X106970000Y-119460000I-140000J0D01*
G01*
X106630000Y-119460000D01*
G75*
G02*
X106490000Y-119320000I0J140000D01*
G01*
X106490000Y-119040000D01*
G75*
G02*
X106630000Y-118900000I140000J0D01*
G01*
G37*
G36*
G01*
X106630000Y-117940000D02*
X106970000Y-117940000D01*
G75*
G02*
X107110000Y-118080000I0J-140000D01*
G01*
X107110000Y-118360000D01*
G75*
G02*
X106970000Y-118500000I-140000J0D01*
G01*
X106630000Y-118500000D01*
G75*
G02*
X106490000Y-118360000I0J140000D01*
G01*
X106490000Y-118080000D01*
G75*
G02*
X106630000Y-117940000I140000J0D01*
G01*
G37*
D18*
X100000000Y-110300000D03*
D19*
X98250000Y-107850000D03*
X98750000Y-107850000D03*
X99250000Y-107850000D03*
X99750000Y-107850000D03*
X100250000Y-107850000D03*
X100750000Y-107850000D03*
X101250000Y-107850000D03*
X101750000Y-107850000D03*
D20*
X102450000Y-108550000D03*
X102450000Y-109050000D03*
X102450000Y-109550000D03*
X102450000Y-110050000D03*
X102450000Y-110550000D03*
X102450000Y-111050000D03*
X102450000Y-111550000D03*
X102450000Y-112050000D03*
D19*
X101750000Y-112750000D03*
X101250000Y-112750000D03*
X100750000Y-112750000D03*
X100250000Y-112750000D03*
X99750000Y-112750000D03*
X99250000Y-112750000D03*
X98750000Y-112750000D03*
X98250000Y-112750000D03*
D20*
X97550000Y-112050000D03*
X97550000Y-111550000D03*
X97550000Y-111050000D03*
X97550000Y-110550000D03*
X97550000Y-110050000D03*
X97550000Y-109550000D03*
X97550000Y-109050000D03*
X97550000Y-108550000D03*
D21*
X108550000Y-110450000D03*
X108550000Y-109500000D03*
X108550000Y-108550000D03*
X111050000Y-108550000D03*
X111050000Y-109500000D03*
X111050000Y-110450000D03*
D22*
X104780000Y-131600000D03*
X102240000Y-131600000D03*
X99700000Y-131600000D03*
X97160000Y-131600000D03*
X94620000Y-131600000D03*
X92080000Y-131600000D03*
X89540000Y-131600000D03*
D23*
X87000000Y-131600000D03*
G36*
G01*
X108350000Y-116356250D02*
X108350000Y-115843750D01*
G75*
G02*
X108568750Y-115625000I218750J0D01*
G01*
X109006250Y-115625000D01*
G75*
G02*
X109225000Y-115843750I0J-218750D01*
G01*
X109225000Y-116356250D01*
G75*
G02*
X109006250Y-116575000I-218750J0D01*
G01*
X108568750Y-116575000D01*
G75*
G02*
X108350000Y-116356250I0J218750D01*
G01*
G37*
G36*
G01*
X106775000Y-116356250D02*
X106775000Y-115843750D01*
G75*
G02*
X106993750Y-115625000I218750J0D01*
G01*
X107431250Y-115625000D01*
G75*
G02*
X107650000Y-115843750I0J-218750D01*
G01*
X107650000Y-116356250D01*
G75*
G02*
X107431250Y-116575000I-218750J0D01*
G01*
X106993750Y-116575000D01*
G75*
G02*
X106775000Y-116356250I0J218750D01*
G01*
G37*
M02*
