%TF.GenerationSoftware,KiCad,Pcbnew,(5.1.12)-1*%
%TF.CreationDate,2023-03-06T18:53:53+01:00*%
%TF.ProjectId,C4V1,43345631-2e6b-4696-9361-645f70636258,rev?*%
%TF.SameCoordinates,Original*%
%TF.FileFunction,Copper,L2,Bot*%
%TF.FilePolarity,Positive*%
%FSLAX46Y46*%
G04 Gerber Fmt 4.6, Leading zero omitted, Abs format (unit mm)*
G04 Created by KiCad (PCBNEW (5.1.12)-1) date 2023-03-06 18:53:53*
%MOMM*%
%LPD*%
G01*
G04 APERTURE LIST*
%TA.AperFunction,SMDPad,CuDef*%
%ADD10R,1.550000X1.300000*%
%TD*%
%TA.AperFunction,SMDPad,CuDef*%
%ADD11C,2.000000*%
%TD*%
%TA.AperFunction,ComponentPad*%
%ADD12C,3.900000*%
%TD*%
%TA.AperFunction,SMDPad,CuDef*%
%ADD13R,2.000000X1.200000*%
%TD*%
%TA.AperFunction,ComponentPad*%
%ADD14O,1.700000X1.700000*%
%TD*%
%TA.AperFunction,ComponentPad*%
%ADD15R,1.700000X1.700000*%
%TD*%
%TA.AperFunction,ViaPad*%
%ADD16C,0.800000*%
%TD*%
%TA.AperFunction,Conductor*%
%ADD17C,0.250000*%
%TD*%
%TA.AperFunction,Conductor*%
%ADD18C,0.200000*%
%TD*%
%TA.AperFunction,Conductor*%
%ADD19C,0.100000*%
%TD*%
G04 APERTURE END LIST*
D10*
X67825000Y-114650000D03*
X67825000Y-110150000D03*
X75775000Y-110150000D03*
X75775000Y-114650000D03*
X61825000Y-122950000D03*
X61825000Y-118450000D03*
X69775000Y-118450000D03*
X69775000Y-122950000D03*
D11*
X70020000Y-98120000D03*
X67480000Y-98120000D03*
X64940000Y-98120000D03*
X62400000Y-98120000D03*
X59860000Y-98120000D03*
D12*
X119600000Y-110150000D03*
X119600000Y-121850000D03*
D13*
X117000000Y-112500000D03*
X117000000Y-115000000D03*
X117000000Y-117000000D03*
X117000000Y-119500000D03*
D10*
X61825000Y-131250000D03*
X61825000Y-126750000D03*
X69775000Y-126750000D03*
X69775000Y-131250000D03*
X55825000Y-114650000D03*
X55825000Y-110150000D03*
X63775000Y-110150000D03*
X63775000Y-114650000D03*
X61825000Y-106350000D03*
X61825000Y-101850000D03*
X69775000Y-101850000D03*
X69775000Y-106350000D03*
D14*
X104780000Y-131600000D03*
X102240000Y-131600000D03*
X99700000Y-131600000D03*
X97160000Y-131600000D03*
X94620000Y-131600000D03*
X92080000Y-131600000D03*
X89540000Y-131600000D03*
D15*
X87000000Y-131600000D03*
D16*
X108710000Y-99020000D03*
X94770000Y-104830000D03*
X116000000Y-119500000D03*
X116800000Y-119500000D03*
X117000000Y-117000000D03*
X117000000Y-115000000D03*
X76200000Y-112100000D03*
X69800000Y-126700000D03*
X61800000Y-126700000D03*
X69800000Y-118400000D03*
X61800000Y-118400000D03*
X67700000Y-110100000D03*
X75800000Y-110100000D03*
X63800000Y-110200000D03*
X55800000Y-110200000D03*
X61900000Y-101900000D03*
X84100000Y-112300000D03*
X100000000Y-111500000D03*
X100000000Y-109100000D03*
X108700000Y-121500000D03*
X98200000Y-104900000D03*
X96500000Y-106900000D03*
X69900000Y-101900000D03*
X100500000Y-114100000D03*
X109500000Y-119800000D03*
X109500000Y-118500000D03*
X101700000Y-119000000D03*
X101900000Y-124900000D03*
X104500000Y-125300000D03*
X94100000Y-108400000D03*
X92200000Y-110600000D03*
X92600000Y-112000000D03*
X94500000Y-112900000D03*
X95200000Y-110500000D03*
X107500000Y-128100000D03*
X104400000Y-128100000D03*
X100000000Y-116800000D03*
X108400000Y-114800000D03*
X103700000Y-113300000D03*
X97600000Y-106700000D03*
X100000000Y-110300000D03*
X88400000Y-125900000D03*
X90800000Y-125200000D03*
X93400000Y-124400000D03*
X97900000Y-121600000D03*
X95200000Y-123700000D03*
X95700000Y-130100000D03*
X70200000Y-108100000D03*
X60600000Y-112200000D03*
X65700000Y-116200000D03*
X63600000Y-121100000D03*
X67600000Y-119400000D03*
X72800000Y-111100000D03*
X122200000Y-125200000D03*
X113300000Y-125300000D03*
X112300000Y-126400000D03*
X112300000Y-135300000D03*
X53700000Y-135300000D03*
X53700000Y-96700000D03*
X112300000Y-96700000D03*
X113200000Y-106800000D03*
X122300000Y-106700000D03*
X111120000Y-119280000D03*
X99700000Y-128500000D03*
X100900000Y-129900000D03*
X105900000Y-128400000D03*
X100300000Y-123900000D03*
X104100000Y-123600000D03*
X100300000Y-122400000D03*
X104300000Y-122400000D03*
X102100000Y-116500000D03*
X100300000Y-118800000D03*
X102500000Y-117700000D03*
X100600000Y-115500000D03*
X90300000Y-116900000D03*
X80200000Y-117800000D03*
X79700000Y-125800000D03*
X80000000Y-132000000D03*
X82700000Y-132400000D03*
X80400000Y-120200000D03*
X83600000Y-120600000D03*
X84500000Y-122500000D03*
X84700000Y-124600000D03*
X84700000Y-127300000D03*
X84700000Y-129900000D03*
X84600000Y-132100000D03*
X93440000Y-105220000D03*
X67450000Y-125820000D03*
X62900000Y-105800000D03*
X65800000Y-104200000D03*
X58300000Y-109200000D03*
X64100000Y-125900000D03*
X70000000Y-114700000D03*
X66700000Y-111800000D03*
X66100000Y-110500000D03*
X65700000Y-128800000D03*
X112200000Y-105500000D03*
X105320000Y-110780000D03*
X106310000Y-110780000D03*
X107300000Y-110800000D03*
X108130000Y-111370000D03*
X104360000Y-108820000D03*
X105370000Y-108820000D03*
X106370000Y-108820000D03*
X107130000Y-108150000D03*
X112390000Y-110330000D03*
X113140000Y-111020000D03*
X113830000Y-111760000D03*
X114530000Y-112490000D03*
X115240000Y-113200000D03*
X110910000Y-111360000D03*
X111640000Y-112070000D03*
X112350000Y-112800000D03*
X113060000Y-113500000D03*
X113770000Y-114210000D03*
X114490000Y-114940000D03*
X115230000Y-115680000D03*
X105950000Y-111960000D03*
X105960000Y-113860000D03*
X105960000Y-115670000D03*
X105990000Y-117540000D03*
X112550000Y-108120000D03*
X113260000Y-108840000D03*
X114000000Y-109590000D03*
X114660000Y-110270000D03*
X115420000Y-110980000D03*
X106890000Y-131190000D03*
X97890000Y-118450000D03*
X97900000Y-115800000D03*
X97900000Y-114800000D03*
X97900000Y-113800000D03*
X57740000Y-124520000D03*
X61890000Y-128910000D03*
X64760000Y-131940000D03*
X59860000Y-98120000D03*
X59305000Y-98675000D03*
X117600000Y-119500000D03*
X103700000Y-112220000D03*
X106164990Y-125035010D03*
X103400000Y-119090000D03*
X106164990Y-120235010D03*
X101790000Y-114110000D03*
X96300000Y-108080000D03*
X97900000Y-124200000D03*
X98100004Y-126400000D03*
X98000000Y-117100000D03*
X87500000Y-108700000D03*
X88450000Y-110850000D03*
X72800000Y-105100000D03*
X97900000Y-101800000D03*
X103400000Y-102600000D03*
X97900000Y-103100000D03*
X75000000Y-102100000D03*
X103000000Y-104200000D03*
X75700000Y-100300000D03*
D17*
X104764990Y-125035010D02*
X104500000Y-125300000D01*
X106164990Y-125035010D02*
X104764990Y-125035010D01*
X104545010Y-120235010D02*
X103400000Y-119090000D01*
X106164990Y-120235010D02*
X104545010Y-120235010D01*
X103680000Y-112220000D02*
X103700000Y-112220000D01*
X101790000Y-114110000D02*
X103680000Y-112220000D01*
X96300000Y-109400000D02*
X95200000Y-110500000D01*
X96300000Y-108080000D02*
X96300000Y-109400000D01*
X97900000Y-124200000D02*
X97900000Y-126199996D01*
X97900000Y-126199996D02*
X98100004Y-126400000D01*
X99700000Y-117100000D02*
X100000000Y-116800000D01*
X98000000Y-117100000D02*
X99700000Y-117100000D01*
X87500000Y-108700000D02*
X87500000Y-109900000D01*
X87500000Y-109900000D02*
X88450000Y-110850000D01*
X64940000Y-99534213D02*
X70505787Y-105100000D01*
X64940000Y-98120000D02*
X64940000Y-99534213D01*
X70505787Y-105100000D02*
X72800000Y-105100000D01*
X72800000Y-105100000D02*
X72800000Y-105100000D01*
X97900000Y-101800000D02*
X102600000Y-101800000D01*
X102600000Y-101800000D02*
X103400000Y-102600000D01*
X103400000Y-102600000D02*
X103400000Y-102600000D01*
X73774999Y-100874999D02*
X75000000Y-102100000D01*
X67480000Y-98120000D02*
X70234999Y-100874999D01*
X70234999Y-100874999D02*
X73774999Y-100874999D01*
X101900000Y-103100000D02*
X103000000Y-104200000D01*
X97900000Y-103100000D02*
X101900000Y-103100000D01*
X73520000Y-98120000D02*
X75700000Y-100300000D01*
X70020000Y-98120000D02*
X73520000Y-98120000D01*
D18*
X112625000Y-105981581D02*
X112623186Y-106000000D01*
X112630426Y-106073513D01*
X112651869Y-106144200D01*
X112686691Y-106209347D01*
X112733552Y-106266448D01*
X112790653Y-106313309D01*
X112855800Y-106348131D01*
X112926487Y-106369574D01*
X113000000Y-106376814D01*
X113018419Y-106375000D01*
X122625001Y-106375000D01*
X122625000Y-125625000D01*
X113018419Y-125625000D01*
X113000000Y-125623186D01*
X112981581Y-125625000D01*
X112926487Y-125630426D01*
X112855800Y-125651869D01*
X112790653Y-125686691D01*
X112733552Y-125733552D01*
X112686691Y-125790653D01*
X112651869Y-125855800D01*
X112630426Y-125926487D01*
X112623186Y-126000000D01*
X112625001Y-126018429D01*
X112625000Y-135625000D01*
X53375000Y-135625000D01*
X53375000Y-131900000D01*
X60748548Y-131900000D01*
X60754340Y-131958810D01*
X60771495Y-132015361D01*
X60799352Y-132067478D01*
X60836841Y-132113159D01*
X60882522Y-132150648D01*
X60934639Y-132178505D01*
X60991190Y-132195660D01*
X61050000Y-132201452D01*
X61596000Y-132200000D01*
X61671000Y-132125000D01*
X61671000Y-131404000D01*
X61979000Y-131404000D01*
X61979000Y-132125000D01*
X62054000Y-132200000D01*
X62600000Y-132201452D01*
X62658810Y-132195660D01*
X62715361Y-132178505D01*
X62767478Y-132150648D01*
X62813159Y-132113159D01*
X62850648Y-132067478D01*
X62878505Y-132015361D01*
X62895660Y-131958810D01*
X62901452Y-131900000D01*
X68698548Y-131900000D01*
X68704340Y-131958810D01*
X68721495Y-132015361D01*
X68749352Y-132067478D01*
X68786841Y-132113159D01*
X68832522Y-132150648D01*
X68884639Y-132178505D01*
X68941190Y-132195660D01*
X69000000Y-132201452D01*
X69546000Y-132200000D01*
X69621000Y-132125000D01*
X69621000Y-131404000D01*
X69929000Y-131404000D01*
X69929000Y-132125000D01*
X70004000Y-132200000D01*
X70550000Y-132201452D01*
X70608810Y-132195660D01*
X70665361Y-132178505D01*
X70717478Y-132150648D01*
X70763159Y-132113159D01*
X70800648Y-132067478D01*
X70828505Y-132015361D01*
X70845660Y-131958810D01*
X70851452Y-131900000D01*
X70850000Y-131479000D01*
X70775000Y-131404000D01*
X69929000Y-131404000D01*
X69621000Y-131404000D01*
X68775000Y-131404000D01*
X68700000Y-131479000D01*
X68698548Y-131900000D01*
X62901452Y-131900000D01*
X62900000Y-131479000D01*
X62825000Y-131404000D01*
X61979000Y-131404000D01*
X61671000Y-131404000D01*
X60825000Y-131404000D01*
X60750000Y-131479000D01*
X60748548Y-131900000D01*
X53375000Y-131900000D01*
X53375000Y-130600000D01*
X60748548Y-130600000D01*
X60750000Y-131021000D01*
X60825000Y-131096000D01*
X61671000Y-131096000D01*
X61671000Y-130375000D01*
X61979000Y-130375000D01*
X61979000Y-131096000D01*
X62825000Y-131096000D01*
X62900000Y-131021000D01*
X62901452Y-130600000D01*
X68698548Y-130600000D01*
X68700000Y-131021000D01*
X68775000Y-131096000D01*
X69621000Y-131096000D01*
X69621000Y-130375000D01*
X69929000Y-130375000D01*
X69929000Y-131096000D01*
X70775000Y-131096000D01*
X70850000Y-131021000D01*
X70850934Y-130750000D01*
X85848549Y-130750000D01*
X85848549Y-132450000D01*
X85854341Y-132508810D01*
X85871496Y-132565360D01*
X85899353Y-132617477D01*
X85936842Y-132663158D01*
X85982523Y-132700647D01*
X86034640Y-132728504D01*
X86091190Y-132745659D01*
X86150000Y-132751451D01*
X87850000Y-132751451D01*
X87908810Y-132745659D01*
X87965360Y-132728504D01*
X88017477Y-132700647D01*
X88063158Y-132663158D01*
X88100647Y-132617477D01*
X88128504Y-132565360D01*
X88145659Y-132508810D01*
X88151451Y-132450000D01*
X88151451Y-131486735D01*
X88390000Y-131486735D01*
X88390000Y-131713265D01*
X88434194Y-131935443D01*
X88520884Y-132144729D01*
X88646737Y-132333082D01*
X88806918Y-132493263D01*
X88995271Y-132619116D01*
X89204557Y-132705806D01*
X89426735Y-132750000D01*
X89653265Y-132750000D01*
X89875443Y-132705806D01*
X90084729Y-132619116D01*
X90273082Y-132493263D01*
X90433263Y-132333082D01*
X90559116Y-132144729D01*
X90645806Y-131935443D01*
X90690000Y-131713265D01*
X90690000Y-131486735D01*
X90930000Y-131486735D01*
X90930000Y-131713265D01*
X90974194Y-131935443D01*
X91060884Y-132144729D01*
X91186737Y-132333082D01*
X91346918Y-132493263D01*
X91535271Y-132619116D01*
X91744557Y-132705806D01*
X91966735Y-132750000D01*
X92193265Y-132750000D01*
X92415443Y-132705806D01*
X92624729Y-132619116D01*
X92813082Y-132493263D01*
X92973263Y-132333082D01*
X93099116Y-132144729D01*
X93185806Y-131935443D01*
X93230000Y-131713265D01*
X93230000Y-131486735D01*
X93470000Y-131486735D01*
X93470000Y-131713265D01*
X93514194Y-131935443D01*
X93600884Y-132144729D01*
X93726737Y-132333082D01*
X93886918Y-132493263D01*
X94075271Y-132619116D01*
X94284557Y-132705806D01*
X94506735Y-132750000D01*
X94733265Y-132750000D01*
X94955443Y-132705806D01*
X95164729Y-132619116D01*
X95353082Y-132493263D01*
X95513263Y-132333082D01*
X95639116Y-132144729D01*
X95725806Y-131935443D01*
X95770000Y-131713265D01*
X95770000Y-131486735D01*
X96010000Y-131486735D01*
X96010000Y-131713265D01*
X96054194Y-131935443D01*
X96140884Y-132144729D01*
X96266737Y-132333082D01*
X96426918Y-132493263D01*
X96615271Y-132619116D01*
X96824557Y-132705806D01*
X97046735Y-132750000D01*
X97273265Y-132750000D01*
X97495443Y-132705806D01*
X97704729Y-132619116D01*
X97893082Y-132493263D01*
X98053263Y-132333082D01*
X98179116Y-132144729D01*
X98265806Y-131935443D01*
X98310000Y-131713265D01*
X98310000Y-131486735D01*
X98550000Y-131486735D01*
X98550000Y-131713265D01*
X98594194Y-131935443D01*
X98680884Y-132144729D01*
X98806737Y-132333082D01*
X98966918Y-132493263D01*
X99155271Y-132619116D01*
X99364557Y-132705806D01*
X99586735Y-132750000D01*
X99813265Y-132750000D01*
X100035443Y-132705806D01*
X100244729Y-132619116D01*
X100433082Y-132493263D01*
X100593263Y-132333082D01*
X100719116Y-132144729D01*
X100805806Y-131935443D01*
X100806812Y-131930385D01*
X101138472Y-131930385D01*
X101224092Y-132138934D01*
X101348753Y-132326772D01*
X101507664Y-132486681D01*
X101694719Y-132612515D01*
X101902728Y-132699439D01*
X101909617Y-132701520D01*
X102086000Y-132663912D01*
X102086000Y-131754000D01*
X102394000Y-131754000D01*
X102394000Y-132663912D01*
X102570383Y-132701520D01*
X102577272Y-132699439D01*
X102785281Y-132612515D01*
X102972336Y-132486681D01*
X103131247Y-132326772D01*
X103255908Y-132138934D01*
X103341528Y-131930385D01*
X103304650Y-131754000D01*
X102394000Y-131754000D01*
X102086000Y-131754000D01*
X101175350Y-131754000D01*
X101138472Y-131930385D01*
X100806812Y-131930385D01*
X100850000Y-131713265D01*
X100850000Y-131486735D01*
X103630000Y-131486735D01*
X103630000Y-131713265D01*
X103674194Y-131935443D01*
X103760884Y-132144729D01*
X103886737Y-132333082D01*
X104046918Y-132493263D01*
X104235271Y-132619116D01*
X104444557Y-132705806D01*
X104666735Y-132750000D01*
X104893265Y-132750000D01*
X105115443Y-132705806D01*
X105324729Y-132619116D01*
X105513082Y-132493263D01*
X105673263Y-132333082D01*
X105799116Y-132144729D01*
X105885806Y-131935443D01*
X105930000Y-131713265D01*
X105930000Y-131486735D01*
X105885806Y-131264557D01*
X105799116Y-131055271D01*
X105673263Y-130866918D01*
X105513082Y-130706737D01*
X105324729Y-130580884D01*
X105115443Y-130494194D01*
X104893265Y-130450000D01*
X104666735Y-130450000D01*
X104444557Y-130494194D01*
X104235271Y-130580884D01*
X104046918Y-130706737D01*
X103886737Y-130866918D01*
X103760884Y-131055271D01*
X103674194Y-131264557D01*
X103630000Y-131486735D01*
X100850000Y-131486735D01*
X100806813Y-131269615D01*
X101138472Y-131269615D01*
X101175350Y-131446000D01*
X102086000Y-131446000D01*
X102086000Y-130536088D01*
X102394000Y-130536088D01*
X102394000Y-131446000D01*
X103304650Y-131446000D01*
X103341528Y-131269615D01*
X103255908Y-131061066D01*
X103131247Y-130873228D01*
X102972336Y-130713319D01*
X102785281Y-130587485D01*
X102577272Y-130500561D01*
X102570383Y-130498480D01*
X102394000Y-130536088D01*
X102086000Y-130536088D01*
X101909617Y-130498480D01*
X101902728Y-130500561D01*
X101694719Y-130587485D01*
X101507664Y-130713319D01*
X101348753Y-130873228D01*
X101224092Y-131061066D01*
X101138472Y-131269615D01*
X100806813Y-131269615D01*
X100805806Y-131264557D01*
X100719116Y-131055271D01*
X100593263Y-130866918D01*
X100433082Y-130706737D01*
X100244729Y-130580884D01*
X100035443Y-130494194D01*
X99813265Y-130450000D01*
X99586735Y-130450000D01*
X99364557Y-130494194D01*
X99155271Y-130580884D01*
X98966918Y-130706737D01*
X98806737Y-130866918D01*
X98680884Y-131055271D01*
X98594194Y-131264557D01*
X98550000Y-131486735D01*
X98310000Y-131486735D01*
X98265806Y-131264557D01*
X98179116Y-131055271D01*
X98053263Y-130866918D01*
X97893082Y-130706737D01*
X97704729Y-130580884D01*
X97495443Y-130494194D01*
X97273265Y-130450000D01*
X97046735Y-130450000D01*
X96824557Y-130494194D01*
X96615271Y-130580884D01*
X96426918Y-130706737D01*
X96266737Y-130866918D01*
X96140884Y-131055271D01*
X96054194Y-131264557D01*
X96010000Y-131486735D01*
X95770000Y-131486735D01*
X95725806Y-131264557D01*
X95639116Y-131055271D01*
X95513263Y-130866918D01*
X95353082Y-130706737D01*
X95164729Y-130580884D01*
X94955443Y-130494194D01*
X94733265Y-130450000D01*
X94506735Y-130450000D01*
X94284557Y-130494194D01*
X94075271Y-130580884D01*
X93886918Y-130706737D01*
X93726737Y-130866918D01*
X93600884Y-131055271D01*
X93514194Y-131264557D01*
X93470000Y-131486735D01*
X93230000Y-131486735D01*
X93185806Y-131264557D01*
X93099116Y-131055271D01*
X92973263Y-130866918D01*
X92813082Y-130706737D01*
X92624729Y-130580884D01*
X92415443Y-130494194D01*
X92193265Y-130450000D01*
X91966735Y-130450000D01*
X91744557Y-130494194D01*
X91535271Y-130580884D01*
X91346918Y-130706737D01*
X91186737Y-130866918D01*
X91060884Y-131055271D01*
X90974194Y-131264557D01*
X90930000Y-131486735D01*
X90690000Y-131486735D01*
X90645806Y-131264557D01*
X90559116Y-131055271D01*
X90433263Y-130866918D01*
X90273082Y-130706737D01*
X90084729Y-130580884D01*
X89875443Y-130494194D01*
X89653265Y-130450000D01*
X89426735Y-130450000D01*
X89204557Y-130494194D01*
X88995271Y-130580884D01*
X88806918Y-130706737D01*
X88646737Y-130866918D01*
X88520884Y-131055271D01*
X88434194Y-131264557D01*
X88390000Y-131486735D01*
X88151451Y-131486735D01*
X88151451Y-130750000D01*
X88145659Y-130691190D01*
X88128504Y-130634640D01*
X88100647Y-130582523D01*
X88063158Y-130536842D01*
X88017477Y-130499353D01*
X87965360Y-130471496D01*
X87908810Y-130454341D01*
X87850000Y-130448549D01*
X86150000Y-130448549D01*
X86091190Y-130454341D01*
X86034640Y-130471496D01*
X85982523Y-130499353D01*
X85936842Y-130536842D01*
X85899353Y-130582523D01*
X85871496Y-130634640D01*
X85854341Y-130691190D01*
X85848549Y-130750000D01*
X70850934Y-130750000D01*
X70851452Y-130600000D01*
X70845660Y-130541190D01*
X70828505Y-130484639D01*
X70800648Y-130432522D01*
X70763159Y-130386841D01*
X70717478Y-130349352D01*
X70665361Y-130321495D01*
X70608810Y-130304340D01*
X70550000Y-130298548D01*
X70004000Y-130300000D01*
X69929000Y-130375000D01*
X69621000Y-130375000D01*
X69546000Y-130300000D01*
X69000000Y-130298548D01*
X68941190Y-130304340D01*
X68884639Y-130321495D01*
X68832522Y-130349352D01*
X68786841Y-130386841D01*
X68749352Y-130432522D01*
X68721495Y-130484639D01*
X68704340Y-130541190D01*
X68698548Y-130600000D01*
X62901452Y-130600000D01*
X62895660Y-130541190D01*
X62878505Y-130484639D01*
X62850648Y-130432522D01*
X62813159Y-130386841D01*
X62767478Y-130349352D01*
X62715361Y-130321495D01*
X62658810Y-130304340D01*
X62600000Y-130298548D01*
X62054000Y-130300000D01*
X61979000Y-130375000D01*
X61671000Y-130375000D01*
X61596000Y-130300000D01*
X61050000Y-130298548D01*
X60991190Y-130304340D01*
X60934639Y-130321495D01*
X60882522Y-130349352D01*
X60836841Y-130386841D01*
X60799352Y-130432522D01*
X60771495Y-130484639D01*
X60754340Y-130541190D01*
X60748548Y-130600000D01*
X53375000Y-130600000D01*
X53375000Y-128031056D01*
X106800000Y-128031056D01*
X106800000Y-128168944D01*
X106826901Y-128304182D01*
X106879668Y-128431574D01*
X106956274Y-128546224D01*
X107053776Y-128643726D01*
X107168426Y-128720332D01*
X107295818Y-128773099D01*
X107431056Y-128800000D01*
X107568944Y-128800000D01*
X107704182Y-128773099D01*
X107831574Y-128720332D01*
X107946224Y-128643726D01*
X108043726Y-128546224D01*
X108120332Y-128431574D01*
X108173099Y-128304182D01*
X108200000Y-128168944D01*
X108200000Y-128031056D01*
X108173099Y-127895818D01*
X108120332Y-127768426D01*
X108043726Y-127653776D01*
X107946224Y-127556274D01*
X107831574Y-127479668D01*
X107704182Y-127426901D01*
X107568944Y-127400000D01*
X107431056Y-127400000D01*
X107295818Y-127426901D01*
X107168426Y-127479668D01*
X107053776Y-127556274D01*
X106956274Y-127653776D01*
X106879668Y-127768426D01*
X106826901Y-127895818D01*
X106800000Y-128031056D01*
X53375000Y-128031056D01*
X53375000Y-126100000D01*
X60748549Y-126100000D01*
X60748549Y-127400000D01*
X60754341Y-127458810D01*
X60771496Y-127515360D01*
X60799353Y-127567477D01*
X60836842Y-127613158D01*
X60882523Y-127650647D01*
X60934640Y-127678504D01*
X60991190Y-127695659D01*
X61050000Y-127701451D01*
X62600000Y-127701451D01*
X62658810Y-127695659D01*
X62715360Y-127678504D01*
X62767477Y-127650647D01*
X62813158Y-127613158D01*
X62850647Y-127567477D01*
X62878504Y-127515360D01*
X62895659Y-127458810D01*
X62901451Y-127400000D01*
X62901451Y-126100000D01*
X68698549Y-126100000D01*
X68698549Y-127400000D01*
X68704341Y-127458810D01*
X68721496Y-127515360D01*
X68749353Y-127567477D01*
X68786842Y-127613158D01*
X68832523Y-127650647D01*
X68884640Y-127678504D01*
X68941190Y-127695659D01*
X69000000Y-127701451D01*
X70550000Y-127701451D01*
X70608810Y-127695659D01*
X70665360Y-127678504D01*
X70717477Y-127650647D01*
X70763158Y-127613158D01*
X70800647Y-127567477D01*
X70828504Y-127515360D01*
X70845659Y-127458810D01*
X70851451Y-127400000D01*
X70851451Y-126100000D01*
X70845659Y-126041190D01*
X70828504Y-125984640D01*
X70800647Y-125932523D01*
X70763158Y-125886842D01*
X70717477Y-125849353D01*
X70665360Y-125821496D01*
X70608810Y-125804341D01*
X70550000Y-125798549D01*
X69000000Y-125798549D01*
X68941190Y-125804341D01*
X68884640Y-125821496D01*
X68832523Y-125849353D01*
X68786842Y-125886842D01*
X68749353Y-125932523D01*
X68721496Y-125984640D01*
X68704341Y-126041190D01*
X68698549Y-126100000D01*
X62901451Y-126100000D01*
X62895659Y-126041190D01*
X62878504Y-125984640D01*
X62850647Y-125932523D01*
X62813158Y-125886842D01*
X62767477Y-125849353D01*
X62715360Y-125821496D01*
X62658810Y-125804341D01*
X62600000Y-125798549D01*
X61050000Y-125798549D01*
X60991190Y-125804341D01*
X60934640Y-125821496D01*
X60882523Y-125849353D01*
X60836842Y-125886842D01*
X60799353Y-125932523D01*
X60771496Y-125984640D01*
X60754341Y-126041190D01*
X60748549Y-126100000D01*
X53375000Y-126100000D01*
X53375000Y-124131056D01*
X97200000Y-124131056D01*
X97200000Y-124268944D01*
X97226901Y-124404182D01*
X97279668Y-124531574D01*
X97356274Y-124646224D01*
X97453776Y-124743726D01*
X97475000Y-124757907D01*
X97475001Y-126079703D01*
X97426905Y-126195818D01*
X97400004Y-126331056D01*
X97400004Y-126468944D01*
X97426905Y-126604182D01*
X97479672Y-126731574D01*
X97556278Y-126846224D01*
X97653780Y-126943726D01*
X97768430Y-127020332D01*
X97895822Y-127073099D01*
X98031060Y-127100000D01*
X98168948Y-127100000D01*
X98304186Y-127073099D01*
X98431578Y-127020332D01*
X98546228Y-126943726D01*
X98643730Y-126846224D01*
X98720336Y-126731574D01*
X98773103Y-126604182D01*
X98800004Y-126468944D01*
X98800004Y-126331056D01*
X98773103Y-126195818D01*
X98720336Y-126068426D01*
X98643730Y-125953776D01*
X98546228Y-125856274D01*
X98431578Y-125779668D01*
X98325000Y-125735522D01*
X98325000Y-125231056D01*
X103800000Y-125231056D01*
X103800000Y-125368944D01*
X103826901Y-125504182D01*
X103879668Y-125631574D01*
X103956274Y-125746224D01*
X104053776Y-125843726D01*
X104168426Y-125920332D01*
X104295818Y-125973099D01*
X104431056Y-126000000D01*
X104568944Y-126000000D01*
X104704182Y-125973099D01*
X104831574Y-125920332D01*
X104946224Y-125843726D01*
X105043726Y-125746224D01*
X105120332Y-125631574D01*
X105173099Y-125504182D01*
X105181886Y-125460010D01*
X105607083Y-125460010D01*
X105621264Y-125481234D01*
X105718766Y-125578736D01*
X105833416Y-125655342D01*
X105960808Y-125708109D01*
X106096046Y-125735010D01*
X106233934Y-125735010D01*
X106369172Y-125708109D01*
X106496564Y-125655342D01*
X106611214Y-125578736D01*
X106708716Y-125481234D01*
X106785322Y-125366584D01*
X106838089Y-125239192D01*
X106864990Y-125103954D01*
X106864990Y-124966066D01*
X106838089Y-124830828D01*
X106785322Y-124703436D01*
X106708716Y-124588786D01*
X106611214Y-124491284D01*
X106496564Y-124414678D01*
X106369172Y-124361911D01*
X106233934Y-124335010D01*
X106096046Y-124335010D01*
X105960808Y-124361911D01*
X105833416Y-124414678D01*
X105718766Y-124491284D01*
X105621264Y-124588786D01*
X105607083Y-124610010D01*
X104785856Y-124610010D01*
X104764989Y-124607955D01*
X104744122Y-124610010D01*
X104744116Y-124610010D01*
X104690088Y-124615331D01*
X104681675Y-124616160D01*
X104669204Y-124619943D01*
X104568944Y-124600000D01*
X104431056Y-124600000D01*
X104295818Y-124626901D01*
X104168426Y-124679668D01*
X104053776Y-124756274D01*
X103956274Y-124853776D01*
X103879668Y-124968426D01*
X103826901Y-125095818D01*
X103800000Y-125231056D01*
X98325000Y-125231056D01*
X98325000Y-124757907D01*
X98346224Y-124743726D01*
X98443726Y-124646224D01*
X98520332Y-124531574D01*
X98573099Y-124404182D01*
X98600000Y-124268944D01*
X98600000Y-124131056D01*
X98573099Y-123995818D01*
X98520332Y-123868426D01*
X98443726Y-123753776D01*
X98346224Y-123656274D01*
X98231574Y-123579668D01*
X98104182Y-123526901D01*
X97972509Y-123500709D01*
X118167080Y-123500709D01*
X118398759Y-123765366D01*
X118795510Y-123962914D01*
X119223177Y-124079263D01*
X119665325Y-124109943D01*
X120104963Y-124053775D01*
X120525195Y-123912916D01*
X120801241Y-123765366D01*
X121032920Y-123500709D01*
X119600000Y-122067789D01*
X118167080Y-123500709D01*
X97972509Y-123500709D01*
X97968944Y-123500000D01*
X97831056Y-123500000D01*
X97695818Y-123526901D01*
X97568426Y-123579668D01*
X97453776Y-123656274D01*
X97356274Y-123753776D01*
X97279668Y-123868426D01*
X97226901Y-123995818D01*
X97200000Y-124131056D01*
X53375000Y-124131056D01*
X53375000Y-123600000D01*
X60748548Y-123600000D01*
X60754340Y-123658810D01*
X60771495Y-123715361D01*
X60799352Y-123767478D01*
X60836841Y-123813159D01*
X60882522Y-123850648D01*
X60934639Y-123878505D01*
X60991190Y-123895660D01*
X61050000Y-123901452D01*
X61596000Y-123900000D01*
X61671000Y-123825000D01*
X61671000Y-123104000D01*
X61979000Y-123104000D01*
X61979000Y-123825000D01*
X62054000Y-123900000D01*
X62600000Y-123901452D01*
X62658810Y-123895660D01*
X62715361Y-123878505D01*
X62767478Y-123850648D01*
X62813159Y-123813159D01*
X62850648Y-123767478D01*
X62878505Y-123715361D01*
X62895660Y-123658810D01*
X62901452Y-123600000D01*
X68698548Y-123600000D01*
X68704340Y-123658810D01*
X68721495Y-123715361D01*
X68749352Y-123767478D01*
X68786841Y-123813159D01*
X68832522Y-123850648D01*
X68884639Y-123878505D01*
X68941190Y-123895660D01*
X69000000Y-123901452D01*
X69546000Y-123900000D01*
X69621000Y-123825000D01*
X69621000Y-123104000D01*
X69929000Y-123104000D01*
X69929000Y-123825000D01*
X70004000Y-123900000D01*
X70550000Y-123901452D01*
X70608810Y-123895660D01*
X70665361Y-123878505D01*
X70717478Y-123850648D01*
X70763159Y-123813159D01*
X70800648Y-123767478D01*
X70828505Y-123715361D01*
X70845660Y-123658810D01*
X70851452Y-123600000D01*
X70850000Y-123179000D01*
X70775000Y-123104000D01*
X69929000Y-123104000D01*
X69621000Y-123104000D01*
X68775000Y-123104000D01*
X68700000Y-123179000D01*
X68698548Y-123600000D01*
X62901452Y-123600000D01*
X62900000Y-123179000D01*
X62825000Y-123104000D01*
X61979000Y-123104000D01*
X61671000Y-123104000D01*
X60825000Y-123104000D01*
X60750000Y-123179000D01*
X60748548Y-123600000D01*
X53375000Y-123600000D01*
X53375000Y-122300000D01*
X60748548Y-122300000D01*
X60750000Y-122721000D01*
X60825000Y-122796000D01*
X61671000Y-122796000D01*
X61671000Y-122075000D01*
X61979000Y-122075000D01*
X61979000Y-122796000D01*
X62825000Y-122796000D01*
X62900000Y-122721000D01*
X62901452Y-122300000D01*
X68698548Y-122300000D01*
X68700000Y-122721000D01*
X68775000Y-122796000D01*
X69621000Y-122796000D01*
X69621000Y-122075000D01*
X69929000Y-122075000D01*
X69929000Y-122796000D01*
X70775000Y-122796000D01*
X70850000Y-122721000D01*
X70851452Y-122300000D01*
X70845660Y-122241190D01*
X70828505Y-122184639D01*
X70800648Y-122132522D01*
X70763159Y-122086841D01*
X70717478Y-122049352D01*
X70665361Y-122021495D01*
X70608810Y-122004340D01*
X70550000Y-121998548D01*
X70004000Y-122000000D01*
X69929000Y-122075000D01*
X69621000Y-122075000D01*
X69546000Y-122000000D01*
X69000000Y-121998548D01*
X68941190Y-122004340D01*
X68884639Y-122021495D01*
X68832522Y-122049352D01*
X68786841Y-122086841D01*
X68749352Y-122132522D01*
X68721495Y-122184639D01*
X68704340Y-122241190D01*
X68698548Y-122300000D01*
X62901452Y-122300000D01*
X62895660Y-122241190D01*
X62878505Y-122184639D01*
X62850648Y-122132522D01*
X62813159Y-122086841D01*
X62767478Y-122049352D01*
X62715361Y-122021495D01*
X62658810Y-122004340D01*
X62600000Y-121998548D01*
X62054000Y-122000000D01*
X61979000Y-122075000D01*
X61671000Y-122075000D01*
X61596000Y-122000000D01*
X61050000Y-121998548D01*
X60991190Y-122004340D01*
X60934639Y-122021495D01*
X60882522Y-122049352D01*
X60836841Y-122086841D01*
X60799352Y-122132522D01*
X60771495Y-122184639D01*
X60754340Y-122241190D01*
X60748548Y-122300000D01*
X53375000Y-122300000D01*
X53375000Y-117800000D01*
X60748549Y-117800000D01*
X60748549Y-119100000D01*
X60754341Y-119158810D01*
X60771496Y-119215360D01*
X60799353Y-119267477D01*
X60836842Y-119313158D01*
X60882523Y-119350647D01*
X60934640Y-119378504D01*
X60991190Y-119395659D01*
X61050000Y-119401451D01*
X62600000Y-119401451D01*
X62658810Y-119395659D01*
X62715360Y-119378504D01*
X62767477Y-119350647D01*
X62813158Y-119313158D01*
X62850647Y-119267477D01*
X62878504Y-119215360D01*
X62895659Y-119158810D01*
X62901451Y-119100000D01*
X62901451Y-117800000D01*
X68698549Y-117800000D01*
X68698549Y-119100000D01*
X68704341Y-119158810D01*
X68721496Y-119215360D01*
X68749353Y-119267477D01*
X68786842Y-119313158D01*
X68832523Y-119350647D01*
X68884640Y-119378504D01*
X68941190Y-119395659D01*
X69000000Y-119401451D01*
X70550000Y-119401451D01*
X70608810Y-119395659D01*
X70665360Y-119378504D01*
X70717477Y-119350647D01*
X70763158Y-119313158D01*
X70800647Y-119267477D01*
X70828504Y-119215360D01*
X70845659Y-119158810D01*
X70851451Y-119100000D01*
X70851451Y-119021056D01*
X102700000Y-119021056D01*
X102700000Y-119158944D01*
X102726901Y-119294182D01*
X102779668Y-119421574D01*
X102856274Y-119536224D01*
X102953776Y-119633726D01*
X103068426Y-119710332D01*
X103195818Y-119763099D01*
X103331056Y-119790000D01*
X103468944Y-119790000D01*
X103493980Y-119785020D01*
X104229731Y-120520772D01*
X104243036Y-120536984D01*
X104307750Y-120590094D01*
X104381583Y-120629558D01*
X104461696Y-120653860D01*
X104524136Y-120660010D01*
X104524143Y-120660010D01*
X104545010Y-120662065D01*
X104565877Y-120660010D01*
X105607083Y-120660010D01*
X105621264Y-120681234D01*
X105718766Y-120778736D01*
X105833416Y-120855342D01*
X105960808Y-120908109D01*
X106096046Y-120935010D01*
X106233934Y-120935010D01*
X106369172Y-120908109D01*
X106496564Y-120855342D01*
X106611214Y-120778736D01*
X106708716Y-120681234D01*
X106785322Y-120566584D01*
X106838089Y-120439192D01*
X106864990Y-120303954D01*
X106864990Y-120166066D01*
X106838089Y-120030828D01*
X106785322Y-119903436D01*
X106708716Y-119788786D01*
X106611214Y-119691284D01*
X106496564Y-119614678D01*
X106369172Y-119561911D01*
X106233934Y-119535010D01*
X106096046Y-119535010D01*
X105960808Y-119561911D01*
X105833416Y-119614678D01*
X105718766Y-119691284D01*
X105621264Y-119788786D01*
X105607083Y-119810010D01*
X104721051Y-119810010D01*
X104342097Y-119431056D01*
X115300000Y-119431056D01*
X115300000Y-119568944D01*
X115326901Y-119704182D01*
X115379668Y-119831574D01*
X115456274Y-119946224D01*
X115553776Y-120043726D01*
X115668426Y-120120332D01*
X115701918Y-120134205D01*
X115704341Y-120158810D01*
X115721496Y-120215360D01*
X115749353Y-120267477D01*
X115786842Y-120313158D01*
X115832523Y-120350647D01*
X115884640Y-120378504D01*
X115941190Y-120395659D01*
X116000000Y-120401451D01*
X117933659Y-120401451D01*
X117949289Y-120417081D01*
X117684634Y-120648759D01*
X117487086Y-121045510D01*
X117370737Y-121473177D01*
X117340057Y-121915325D01*
X117396225Y-122354963D01*
X117537084Y-122775195D01*
X117684634Y-123051241D01*
X117949291Y-123282920D01*
X119382211Y-121850000D01*
X119817789Y-121850000D01*
X121250709Y-123282920D01*
X121515366Y-123051241D01*
X121712914Y-122654490D01*
X121829263Y-122226823D01*
X121859943Y-121784675D01*
X121803775Y-121345037D01*
X121662916Y-120924805D01*
X121515366Y-120648759D01*
X121250709Y-120417080D01*
X119817789Y-121850000D01*
X119382211Y-121850000D01*
X119368069Y-121835858D01*
X119585858Y-121618069D01*
X119600000Y-121632211D01*
X121032920Y-120199291D01*
X120801241Y-119934634D01*
X120404490Y-119737086D01*
X119976823Y-119620737D01*
X119534675Y-119590057D01*
X119095037Y-119646225D01*
X118674805Y-119787084D01*
X118398759Y-119934634D01*
X118301451Y-120045793D01*
X118301451Y-118900000D01*
X118295659Y-118841190D01*
X118278504Y-118784640D01*
X118250647Y-118732523D01*
X118213158Y-118686842D01*
X118167477Y-118649353D01*
X118115360Y-118621496D01*
X118058810Y-118604341D01*
X118000000Y-118598549D01*
X116000000Y-118598549D01*
X115941190Y-118604341D01*
X115884640Y-118621496D01*
X115832523Y-118649353D01*
X115786842Y-118686842D01*
X115749353Y-118732523D01*
X115721496Y-118784640D01*
X115704341Y-118841190D01*
X115701918Y-118865795D01*
X115668426Y-118879668D01*
X115553776Y-118956274D01*
X115456274Y-119053776D01*
X115379668Y-119168426D01*
X115326901Y-119295818D01*
X115300000Y-119431056D01*
X104342097Y-119431056D01*
X104095020Y-119183980D01*
X104100000Y-119158944D01*
X104100000Y-119021056D01*
X104073099Y-118885818D01*
X104020332Y-118758426D01*
X103943726Y-118643776D01*
X103846224Y-118546274D01*
X103731574Y-118469668D01*
X103604182Y-118416901D01*
X103468944Y-118390000D01*
X103331056Y-118390000D01*
X103195818Y-118416901D01*
X103068426Y-118469668D01*
X102953776Y-118546274D01*
X102856274Y-118643776D01*
X102779668Y-118758426D01*
X102726901Y-118885818D01*
X102700000Y-119021056D01*
X70851451Y-119021056D01*
X70851451Y-118166282D01*
X118750000Y-118166282D01*
X118750000Y-118333718D01*
X118782665Y-118497936D01*
X118846740Y-118652626D01*
X118939762Y-118791844D01*
X119058156Y-118910238D01*
X119197374Y-119003260D01*
X119352064Y-119067335D01*
X119516282Y-119100000D01*
X119683718Y-119100000D01*
X119847936Y-119067335D01*
X120002626Y-119003260D01*
X120141844Y-118910238D01*
X120260238Y-118791844D01*
X120353260Y-118652626D01*
X120417335Y-118497936D01*
X120450000Y-118333718D01*
X120450000Y-118166282D01*
X120417335Y-118002064D01*
X120353260Y-117847374D01*
X120260238Y-117708156D01*
X120141844Y-117589762D01*
X120002626Y-117496740D01*
X119847936Y-117432665D01*
X119683718Y-117400000D01*
X119516282Y-117400000D01*
X119352064Y-117432665D01*
X119197374Y-117496740D01*
X119058156Y-117589762D01*
X118939762Y-117708156D01*
X118846740Y-117847374D01*
X118782665Y-118002064D01*
X118750000Y-118166282D01*
X70851451Y-118166282D01*
X70851451Y-117800000D01*
X70845659Y-117741190D01*
X70828504Y-117684640D01*
X70800647Y-117632523D01*
X70763158Y-117586842D01*
X70717477Y-117549353D01*
X70665360Y-117521496D01*
X70608810Y-117504341D01*
X70550000Y-117498549D01*
X69000000Y-117498549D01*
X68941190Y-117504341D01*
X68884640Y-117521496D01*
X68832523Y-117549353D01*
X68786842Y-117586842D01*
X68749353Y-117632523D01*
X68721496Y-117684640D01*
X68704341Y-117741190D01*
X68698549Y-117800000D01*
X62901451Y-117800000D01*
X62895659Y-117741190D01*
X62878504Y-117684640D01*
X62850647Y-117632523D01*
X62813158Y-117586842D01*
X62767477Y-117549353D01*
X62715360Y-117521496D01*
X62658810Y-117504341D01*
X62600000Y-117498549D01*
X61050000Y-117498549D01*
X60991190Y-117504341D01*
X60934640Y-117521496D01*
X60882523Y-117549353D01*
X60836842Y-117586842D01*
X60799353Y-117632523D01*
X60771496Y-117684640D01*
X60754341Y-117741190D01*
X60748549Y-117800000D01*
X53375000Y-117800000D01*
X53375000Y-117031056D01*
X97300000Y-117031056D01*
X97300000Y-117168944D01*
X97326901Y-117304182D01*
X97379668Y-117431574D01*
X97456274Y-117546224D01*
X97553776Y-117643726D01*
X97668426Y-117720332D01*
X97795818Y-117773099D01*
X97931056Y-117800000D01*
X98068944Y-117800000D01*
X98204182Y-117773099D01*
X98331574Y-117720332D01*
X98446224Y-117643726D01*
X98543726Y-117546224D01*
X98557907Y-117525000D01*
X99679133Y-117525000D01*
X99700000Y-117527055D01*
X99720867Y-117525000D01*
X99720874Y-117525000D01*
X99783314Y-117518850D01*
X99863427Y-117494548D01*
X99874335Y-117488717D01*
X99931056Y-117500000D01*
X100068944Y-117500000D01*
X100204182Y-117473099D01*
X100331574Y-117420332D01*
X100446224Y-117343726D01*
X100543726Y-117246224D01*
X100620332Y-117131574D01*
X100673099Y-117004182D01*
X100700000Y-116868944D01*
X100700000Y-116731056D01*
X100673099Y-116595818D01*
X100620332Y-116468426D01*
X100574612Y-116400000D01*
X115698549Y-116400000D01*
X115698549Y-117600000D01*
X115704341Y-117658810D01*
X115721496Y-117715360D01*
X115749353Y-117767477D01*
X115786842Y-117813158D01*
X115832523Y-117850647D01*
X115884640Y-117878504D01*
X115941190Y-117895659D01*
X116000000Y-117901451D01*
X118000000Y-117901451D01*
X118058810Y-117895659D01*
X118115360Y-117878504D01*
X118167477Y-117850647D01*
X118213158Y-117813158D01*
X118250647Y-117767477D01*
X118278504Y-117715360D01*
X118295659Y-117658810D01*
X118301451Y-117600000D01*
X118301451Y-116400000D01*
X118295659Y-116341190D01*
X118278504Y-116284640D01*
X118250647Y-116232523D01*
X118213158Y-116186842D01*
X118167477Y-116149353D01*
X118115360Y-116121496D01*
X118058810Y-116104341D01*
X118000000Y-116098549D01*
X116000000Y-116098549D01*
X115941190Y-116104341D01*
X115884640Y-116121496D01*
X115832523Y-116149353D01*
X115786842Y-116186842D01*
X115749353Y-116232523D01*
X115721496Y-116284640D01*
X115704341Y-116341190D01*
X115698549Y-116400000D01*
X100574612Y-116400000D01*
X100543726Y-116353776D01*
X100446224Y-116256274D01*
X100331574Y-116179668D01*
X100204182Y-116126901D01*
X100068944Y-116100000D01*
X99931056Y-116100000D01*
X99795818Y-116126901D01*
X99668426Y-116179668D01*
X99553776Y-116256274D01*
X99456274Y-116353776D01*
X99379668Y-116468426D01*
X99326901Y-116595818D01*
X99311150Y-116675000D01*
X98557907Y-116675000D01*
X98543726Y-116653776D01*
X98446224Y-116556274D01*
X98331574Y-116479668D01*
X98204182Y-116426901D01*
X98068944Y-116400000D01*
X97931056Y-116400000D01*
X97795818Y-116426901D01*
X97668426Y-116479668D01*
X97553776Y-116556274D01*
X97456274Y-116653776D01*
X97379668Y-116768426D01*
X97326901Y-116895818D01*
X97300000Y-117031056D01*
X53375000Y-117031056D01*
X53375000Y-115300000D01*
X54748548Y-115300000D01*
X54754340Y-115358810D01*
X54771495Y-115415361D01*
X54799352Y-115467478D01*
X54836841Y-115513159D01*
X54882522Y-115550648D01*
X54934639Y-115578505D01*
X54991190Y-115595660D01*
X55050000Y-115601452D01*
X55596000Y-115600000D01*
X55671000Y-115525000D01*
X55671000Y-114804000D01*
X55979000Y-114804000D01*
X55979000Y-115525000D01*
X56054000Y-115600000D01*
X56600000Y-115601452D01*
X56658810Y-115595660D01*
X56715361Y-115578505D01*
X56767478Y-115550648D01*
X56813159Y-115513159D01*
X56850648Y-115467478D01*
X56878505Y-115415361D01*
X56895660Y-115358810D01*
X56901452Y-115300000D01*
X62698548Y-115300000D01*
X62704340Y-115358810D01*
X62721495Y-115415361D01*
X62749352Y-115467478D01*
X62786841Y-115513159D01*
X62832522Y-115550648D01*
X62884639Y-115578505D01*
X62941190Y-115595660D01*
X63000000Y-115601452D01*
X63546000Y-115600000D01*
X63621000Y-115525000D01*
X63621000Y-114804000D01*
X63929000Y-114804000D01*
X63929000Y-115525000D01*
X64004000Y-115600000D01*
X64550000Y-115601452D01*
X64608810Y-115595660D01*
X64665361Y-115578505D01*
X64717478Y-115550648D01*
X64763159Y-115513159D01*
X64800648Y-115467478D01*
X64828505Y-115415361D01*
X64845660Y-115358810D01*
X64851452Y-115300000D01*
X66748548Y-115300000D01*
X66754340Y-115358810D01*
X66771495Y-115415361D01*
X66799352Y-115467478D01*
X66836841Y-115513159D01*
X66882522Y-115550648D01*
X66934639Y-115578505D01*
X66991190Y-115595660D01*
X67050000Y-115601452D01*
X67596000Y-115600000D01*
X67671000Y-115525000D01*
X67671000Y-114804000D01*
X67979000Y-114804000D01*
X67979000Y-115525000D01*
X68054000Y-115600000D01*
X68600000Y-115601452D01*
X68658810Y-115595660D01*
X68715361Y-115578505D01*
X68767478Y-115550648D01*
X68813159Y-115513159D01*
X68850648Y-115467478D01*
X68878505Y-115415361D01*
X68895660Y-115358810D01*
X68901452Y-115300000D01*
X74698548Y-115300000D01*
X74704340Y-115358810D01*
X74721495Y-115415361D01*
X74749352Y-115467478D01*
X74786841Y-115513159D01*
X74832522Y-115550648D01*
X74884639Y-115578505D01*
X74941190Y-115595660D01*
X75000000Y-115601452D01*
X75546000Y-115600000D01*
X75621000Y-115525000D01*
X75621000Y-114804000D01*
X75929000Y-114804000D01*
X75929000Y-115525000D01*
X76004000Y-115600000D01*
X76550000Y-115601452D01*
X76608810Y-115595660D01*
X76665361Y-115578505D01*
X76717478Y-115550648D01*
X76763159Y-115513159D01*
X76800648Y-115467478D01*
X76828505Y-115415361D01*
X76845660Y-115358810D01*
X76851452Y-115300000D01*
X76850000Y-114879000D01*
X76775000Y-114804000D01*
X75929000Y-114804000D01*
X75621000Y-114804000D01*
X74775000Y-114804000D01*
X74700000Y-114879000D01*
X74698548Y-115300000D01*
X68901452Y-115300000D01*
X68900000Y-114879000D01*
X68825000Y-114804000D01*
X67979000Y-114804000D01*
X67671000Y-114804000D01*
X66825000Y-114804000D01*
X66750000Y-114879000D01*
X66748548Y-115300000D01*
X64851452Y-115300000D01*
X64850000Y-114879000D01*
X64775000Y-114804000D01*
X63929000Y-114804000D01*
X63621000Y-114804000D01*
X62775000Y-114804000D01*
X62700000Y-114879000D01*
X62698548Y-115300000D01*
X56901452Y-115300000D01*
X56900000Y-114879000D01*
X56825000Y-114804000D01*
X55979000Y-114804000D01*
X55671000Y-114804000D01*
X54825000Y-114804000D01*
X54750000Y-114879000D01*
X54748548Y-115300000D01*
X53375000Y-115300000D01*
X53375000Y-114000000D01*
X54748548Y-114000000D01*
X54750000Y-114421000D01*
X54825000Y-114496000D01*
X55671000Y-114496000D01*
X55671000Y-113775000D01*
X55979000Y-113775000D01*
X55979000Y-114496000D01*
X56825000Y-114496000D01*
X56900000Y-114421000D01*
X56901452Y-114000000D01*
X62698548Y-114000000D01*
X62700000Y-114421000D01*
X62775000Y-114496000D01*
X63621000Y-114496000D01*
X63621000Y-113775000D01*
X63929000Y-113775000D01*
X63929000Y-114496000D01*
X64775000Y-114496000D01*
X64850000Y-114421000D01*
X64851452Y-114000000D01*
X66748548Y-114000000D01*
X66750000Y-114421000D01*
X66825000Y-114496000D01*
X67671000Y-114496000D01*
X67671000Y-113775000D01*
X67979000Y-113775000D01*
X67979000Y-114496000D01*
X68825000Y-114496000D01*
X68900000Y-114421000D01*
X68901452Y-114000000D01*
X74698548Y-114000000D01*
X74700000Y-114421000D01*
X74775000Y-114496000D01*
X75621000Y-114496000D01*
X75621000Y-113775000D01*
X75929000Y-113775000D01*
X75929000Y-114496000D01*
X76775000Y-114496000D01*
X76850000Y-114421000D01*
X76851310Y-114041056D01*
X101090000Y-114041056D01*
X101090000Y-114178944D01*
X101116901Y-114314182D01*
X101169668Y-114441574D01*
X101246274Y-114556224D01*
X101343776Y-114653726D01*
X101458426Y-114730332D01*
X101585818Y-114783099D01*
X101721056Y-114810000D01*
X101858944Y-114810000D01*
X101994182Y-114783099D01*
X102121574Y-114730332D01*
X102236224Y-114653726D01*
X102333726Y-114556224D01*
X102410332Y-114441574D01*
X102427552Y-114400000D01*
X115698549Y-114400000D01*
X115698549Y-115600000D01*
X115704341Y-115658810D01*
X115721496Y-115715360D01*
X115749353Y-115767477D01*
X115786842Y-115813158D01*
X115832523Y-115850647D01*
X115884640Y-115878504D01*
X115941190Y-115895659D01*
X116000000Y-115901451D01*
X118000000Y-115901451D01*
X118058810Y-115895659D01*
X118115360Y-115878504D01*
X118167477Y-115850647D01*
X118213158Y-115813158D01*
X118250647Y-115767477D01*
X118278504Y-115715360D01*
X118295659Y-115658810D01*
X118301451Y-115600000D01*
X118301451Y-114400000D01*
X118295659Y-114341190D01*
X118278504Y-114284640D01*
X118250647Y-114232523D01*
X118213158Y-114186842D01*
X118167477Y-114149353D01*
X118115360Y-114121496D01*
X118058810Y-114104341D01*
X118000000Y-114098549D01*
X116000000Y-114098549D01*
X115941190Y-114104341D01*
X115884640Y-114121496D01*
X115832523Y-114149353D01*
X115786842Y-114186842D01*
X115749353Y-114232523D01*
X115721496Y-114284640D01*
X115704341Y-114341190D01*
X115698549Y-114400000D01*
X102427552Y-114400000D01*
X102463099Y-114314182D01*
X102490000Y-114178944D01*
X102490000Y-114041056D01*
X102485020Y-114016020D01*
X102834758Y-113666282D01*
X118750000Y-113666282D01*
X118750000Y-113833718D01*
X118782665Y-113997936D01*
X118846740Y-114152626D01*
X118939762Y-114291844D01*
X119058156Y-114410238D01*
X119197374Y-114503260D01*
X119352064Y-114567335D01*
X119516282Y-114600000D01*
X119683718Y-114600000D01*
X119847936Y-114567335D01*
X120002626Y-114503260D01*
X120141844Y-114410238D01*
X120260238Y-114291844D01*
X120353260Y-114152626D01*
X120417335Y-113997936D01*
X120450000Y-113833718D01*
X120450000Y-113666282D01*
X120417335Y-113502064D01*
X120353260Y-113347374D01*
X120260238Y-113208156D01*
X120141844Y-113089762D01*
X120002626Y-112996740D01*
X119847936Y-112932665D01*
X119683718Y-112900000D01*
X119516282Y-112900000D01*
X119352064Y-112932665D01*
X119197374Y-112996740D01*
X119058156Y-113089762D01*
X118939762Y-113208156D01*
X118846740Y-113347374D01*
X118782665Y-113502064D01*
X118750000Y-113666282D01*
X102834758Y-113666282D01*
X103401040Y-113100000D01*
X115698548Y-113100000D01*
X115704340Y-113158810D01*
X115721495Y-113215361D01*
X115749352Y-113267478D01*
X115786841Y-113313159D01*
X115832522Y-113350648D01*
X115884639Y-113378505D01*
X115941190Y-113395660D01*
X116000000Y-113401452D01*
X116771000Y-113400000D01*
X116846000Y-113325000D01*
X116846000Y-112654000D01*
X117154000Y-112654000D01*
X117154000Y-113325000D01*
X117229000Y-113400000D01*
X118000000Y-113401452D01*
X118058810Y-113395660D01*
X118115361Y-113378505D01*
X118167478Y-113350648D01*
X118213159Y-113313159D01*
X118250648Y-113267478D01*
X118278505Y-113215361D01*
X118295660Y-113158810D01*
X118301452Y-113100000D01*
X118300000Y-112729000D01*
X118225000Y-112654000D01*
X117154000Y-112654000D01*
X116846000Y-112654000D01*
X115775000Y-112654000D01*
X115700000Y-112729000D01*
X115698548Y-113100000D01*
X103401040Y-113100000D01*
X103589338Y-112911702D01*
X103631056Y-112920000D01*
X103768944Y-112920000D01*
X103904182Y-112893099D01*
X104031574Y-112840332D01*
X104146224Y-112763726D01*
X104243726Y-112666224D01*
X104320332Y-112551574D01*
X104373099Y-112424182D01*
X104400000Y-112288944D01*
X104400000Y-112151056D01*
X104373099Y-112015818D01*
X104325127Y-111900000D01*
X115698548Y-111900000D01*
X115700000Y-112271000D01*
X115775000Y-112346000D01*
X116846000Y-112346000D01*
X116846000Y-111675000D01*
X117154000Y-111675000D01*
X117154000Y-112346000D01*
X118225000Y-112346000D01*
X118300000Y-112271000D01*
X118301241Y-111953967D01*
X118398759Y-112065366D01*
X118795510Y-112262914D01*
X119223177Y-112379263D01*
X119665325Y-112409943D01*
X120104963Y-112353775D01*
X120525195Y-112212916D01*
X120801241Y-112065366D01*
X121032920Y-111800709D01*
X119600000Y-110367789D01*
X119585858Y-110381931D01*
X119368069Y-110164142D01*
X119382211Y-110150000D01*
X119817789Y-110150000D01*
X121250709Y-111582920D01*
X121515366Y-111351241D01*
X121712914Y-110954490D01*
X121829263Y-110526823D01*
X121859943Y-110084675D01*
X121803775Y-109645037D01*
X121662916Y-109224805D01*
X121515366Y-108948759D01*
X121250709Y-108717080D01*
X119817789Y-110150000D01*
X119382211Y-110150000D01*
X117949291Y-108717080D01*
X117684634Y-108948759D01*
X117487086Y-109345510D01*
X117370737Y-109773177D01*
X117340057Y-110215325D01*
X117396225Y-110654963D01*
X117537084Y-111075195D01*
X117684634Y-111351241D01*
X117949289Y-111582919D01*
X117933535Y-111598673D01*
X117229000Y-111600000D01*
X117154000Y-111675000D01*
X116846000Y-111675000D01*
X116771000Y-111600000D01*
X116000000Y-111598548D01*
X115941190Y-111604340D01*
X115884639Y-111621495D01*
X115832522Y-111649352D01*
X115786841Y-111686841D01*
X115749352Y-111732522D01*
X115721495Y-111784639D01*
X115704340Y-111841190D01*
X115698548Y-111900000D01*
X104325127Y-111900000D01*
X104320332Y-111888426D01*
X104243726Y-111773776D01*
X104146224Y-111676274D01*
X104031574Y-111599668D01*
X103904182Y-111546901D01*
X103768944Y-111520000D01*
X103631056Y-111520000D01*
X103495818Y-111546901D01*
X103368426Y-111599668D01*
X103253776Y-111676274D01*
X103156274Y-111773776D01*
X103079668Y-111888426D01*
X103026901Y-112015818D01*
X103000000Y-112151056D01*
X103000000Y-112288944D01*
X103001662Y-112297298D01*
X101883980Y-113414980D01*
X101858944Y-113410000D01*
X101721056Y-113410000D01*
X101585818Y-113436901D01*
X101458426Y-113489668D01*
X101343776Y-113566274D01*
X101246274Y-113663776D01*
X101169668Y-113778426D01*
X101116901Y-113905818D01*
X101090000Y-114041056D01*
X76851310Y-114041056D01*
X76851452Y-114000000D01*
X76845660Y-113941190D01*
X76828505Y-113884639D01*
X76800648Y-113832522D01*
X76763159Y-113786841D01*
X76717478Y-113749352D01*
X76665361Y-113721495D01*
X76608810Y-113704340D01*
X76550000Y-113698548D01*
X76004000Y-113700000D01*
X75929000Y-113775000D01*
X75621000Y-113775000D01*
X75546000Y-113700000D01*
X75000000Y-113698548D01*
X74941190Y-113704340D01*
X74884639Y-113721495D01*
X74832522Y-113749352D01*
X74786841Y-113786841D01*
X74749352Y-113832522D01*
X74721495Y-113884639D01*
X74704340Y-113941190D01*
X74698548Y-114000000D01*
X68901452Y-114000000D01*
X68895660Y-113941190D01*
X68878505Y-113884639D01*
X68850648Y-113832522D01*
X68813159Y-113786841D01*
X68767478Y-113749352D01*
X68715361Y-113721495D01*
X68658810Y-113704340D01*
X68600000Y-113698548D01*
X68054000Y-113700000D01*
X67979000Y-113775000D01*
X67671000Y-113775000D01*
X67596000Y-113700000D01*
X67050000Y-113698548D01*
X66991190Y-113704340D01*
X66934639Y-113721495D01*
X66882522Y-113749352D01*
X66836841Y-113786841D01*
X66799352Y-113832522D01*
X66771495Y-113884639D01*
X66754340Y-113941190D01*
X66748548Y-114000000D01*
X64851452Y-114000000D01*
X64845660Y-113941190D01*
X64828505Y-113884639D01*
X64800648Y-113832522D01*
X64763159Y-113786841D01*
X64717478Y-113749352D01*
X64665361Y-113721495D01*
X64608810Y-113704340D01*
X64550000Y-113698548D01*
X64004000Y-113700000D01*
X63929000Y-113775000D01*
X63621000Y-113775000D01*
X63546000Y-113700000D01*
X63000000Y-113698548D01*
X62941190Y-113704340D01*
X62884639Y-113721495D01*
X62832522Y-113749352D01*
X62786841Y-113786841D01*
X62749352Y-113832522D01*
X62721495Y-113884639D01*
X62704340Y-113941190D01*
X62698548Y-114000000D01*
X56901452Y-114000000D01*
X56895660Y-113941190D01*
X56878505Y-113884639D01*
X56850648Y-113832522D01*
X56813159Y-113786841D01*
X56767478Y-113749352D01*
X56715361Y-113721495D01*
X56658810Y-113704340D01*
X56600000Y-113698548D01*
X56054000Y-113700000D01*
X55979000Y-113775000D01*
X55671000Y-113775000D01*
X55596000Y-113700000D01*
X55050000Y-113698548D01*
X54991190Y-113704340D01*
X54934639Y-113721495D01*
X54882522Y-113749352D01*
X54836841Y-113786841D01*
X54799352Y-113832522D01*
X54771495Y-113884639D01*
X54754340Y-113941190D01*
X54748548Y-114000000D01*
X53375000Y-114000000D01*
X53375000Y-109500000D01*
X54748549Y-109500000D01*
X54748549Y-110800000D01*
X54754341Y-110858810D01*
X54771496Y-110915360D01*
X54799353Y-110967477D01*
X54836842Y-111013158D01*
X54882523Y-111050647D01*
X54934640Y-111078504D01*
X54991190Y-111095659D01*
X55050000Y-111101451D01*
X56600000Y-111101451D01*
X56658810Y-111095659D01*
X56715360Y-111078504D01*
X56767477Y-111050647D01*
X56813158Y-111013158D01*
X56850647Y-110967477D01*
X56878504Y-110915360D01*
X56895659Y-110858810D01*
X56901451Y-110800000D01*
X56901451Y-109500000D01*
X62698549Y-109500000D01*
X62698549Y-110800000D01*
X62704341Y-110858810D01*
X62721496Y-110915360D01*
X62749353Y-110967477D01*
X62786842Y-111013158D01*
X62832523Y-111050647D01*
X62884640Y-111078504D01*
X62941190Y-111095659D01*
X63000000Y-111101451D01*
X64550000Y-111101451D01*
X64608810Y-111095659D01*
X64665360Y-111078504D01*
X64717477Y-111050647D01*
X64763158Y-111013158D01*
X64800647Y-110967477D01*
X64828504Y-110915360D01*
X64845659Y-110858810D01*
X64851451Y-110800000D01*
X64851451Y-109500000D01*
X66748549Y-109500000D01*
X66748549Y-110800000D01*
X66754341Y-110858810D01*
X66771496Y-110915360D01*
X66799353Y-110967477D01*
X66836842Y-111013158D01*
X66882523Y-111050647D01*
X66934640Y-111078504D01*
X66991190Y-111095659D01*
X67050000Y-111101451D01*
X68600000Y-111101451D01*
X68658810Y-111095659D01*
X68715360Y-111078504D01*
X68767477Y-111050647D01*
X68813158Y-111013158D01*
X68850647Y-110967477D01*
X68878504Y-110915360D01*
X68895659Y-110858810D01*
X68901451Y-110800000D01*
X68901451Y-109500000D01*
X74698549Y-109500000D01*
X74698549Y-110800000D01*
X74704341Y-110858810D01*
X74721496Y-110915360D01*
X74749353Y-110967477D01*
X74786842Y-111013158D01*
X74832523Y-111050647D01*
X74884640Y-111078504D01*
X74941190Y-111095659D01*
X75000000Y-111101451D01*
X76550000Y-111101451D01*
X76608810Y-111095659D01*
X76665360Y-111078504D01*
X76717477Y-111050647D01*
X76763158Y-111013158D01*
X76800647Y-110967477D01*
X76828504Y-110915360D01*
X76845659Y-110858810D01*
X76851451Y-110800000D01*
X76851451Y-109500000D01*
X76845659Y-109441190D01*
X76828504Y-109384640D01*
X76800647Y-109332523D01*
X76763158Y-109286842D01*
X76717477Y-109249353D01*
X76665360Y-109221496D01*
X76608810Y-109204341D01*
X76550000Y-109198549D01*
X75000000Y-109198549D01*
X74941190Y-109204341D01*
X74884640Y-109221496D01*
X74832523Y-109249353D01*
X74786842Y-109286842D01*
X74749353Y-109332523D01*
X74721496Y-109384640D01*
X74704341Y-109441190D01*
X74698549Y-109500000D01*
X68901451Y-109500000D01*
X68895659Y-109441190D01*
X68878504Y-109384640D01*
X68850647Y-109332523D01*
X68813158Y-109286842D01*
X68767477Y-109249353D01*
X68715360Y-109221496D01*
X68658810Y-109204341D01*
X68600000Y-109198549D01*
X67050000Y-109198549D01*
X66991190Y-109204341D01*
X66934640Y-109221496D01*
X66882523Y-109249353D01*
X66836842Y-109286842D01*
X66799353Y-109332523D01*
X66771496Y-109384640D01*
X66754341Y-109441190D01*
X66748549Y-109500000D01*
X64851451Y-109500000D01*
X64845659Y-109441190D01*
X64828504Y-109384640D01*
X64800647Y-109332523D01*
X64763158Y-109286842D01*
X64717477Y-109249353D01*
X64665360Y-109221496D01*
X64608810Y-109204341D01*
X64550000Y-109198549D01*
X63000000Y-109198549D01*
X62941190Y-109204341D01*
X62884640Y-109221496D01*
X62832523Y-109249353D01*
X62786842Y-109286842D01*
X62749353Y-109332523D01*
X62721496Y-109384640D01*
X62704341Y-109441190D01*
X62698549Y-109500000D01*
X56901451Y-109500000D01*
X56895659Y-109441190D01*
X56878504Y-109384640D01*
X56850647Y-109332523D01*
X56813158Y-109286842D01*
X56767477Y-109249353D01*
X56715360Y-109221496D01*
X56658810Y-109204341D01*
X56600000Y-109198549D01*
X55050000Y-109198549D01*
X54991190Y-109204341D01*
X54934640Y-109221496D01*
X54882523Y-109249353D01*
X54836842Y-109286842D01*
X54799353Y-109332523D01*
X54771496Y-109384640D01*
X54754341Y-109441190D01*
X54748549Y-109500000D01*
X53375000Y-109500000D01*
X53375000Y-108631056D01*
X86800000Y-108631056D01*
X86800000Y-108768944D01*
X86826901Y-108904182D01*
X86879668Y-109031574D01*
X86956274Y-109146224D01*
X87053776Y-109243726D01*
X87075000Y-109257908D01*
X87075001Y-109879124D01*
X87072945Y-109900000D01*
X87081150Y-109983314D01*
X87095633Y-110031056D01*
X87105453Y-110063427D01*
X87144917Y-110137260D01*
X87198027Y-110201974D01*
X87214239Y-110215279D01*
X87754980Y-110756021D01*
X87750000Y-110781056D01*
X87750000Y-110918944D01*
X87776901Y-111054182D01*
X87829668Y-111181574D01*
X87906274Y-111296224D01*
X88003776Y-111393726D01*
X88118426Y-111470332D01*
X88245818Y-111523099D01*
X88381056Y-111550000D01*
X88518944Y-111550000D01*
X88654182Y-111523099D01*
X88781574Y-111470332D01*
X88896224Y-111393726D01*
X88993726Y-111296224D01*
X89070332Y-111181574D01*
X89123099Y-111054182D01*
X89150000Y-110918944D01*
X89150000Y-110781056D01*
X89123099Y-110645818D01*
X89070332Y-110518426D01*
X89011954Y-110431056D01*
X94500000Y-110431056D01*
X94500000Y-110568944D01*
X94526901Y-110704182D01*
X94579668Y-110831574D01*
X94656274Y-110946224D01*
X94753776Y-111043726D01*
X94868426Y-111120332D01*
X94995818Y-111173099D01*
X95131056Y-111200000D01*
X95268944Y-111200000D01*
X95404182Y-111173099D01*
X95531574Y-111120332D01*
X95646224Y-111043726D01*
X95743726Y-110946224D01*
X95820332Y-110831574D01*
X95873099Y-110704182D01*
X95900000Y-110568944D01*
X95900000Y-110431056D01*
X95895020Y-110406020D01*
X96585762Y-109715279D01*
X96601974Y-109701974D01*
X96655084Y-109637260D01*
X96694548Y-109563427D01*
X96718850Y-109483314D01*
X96725000Y-109420874D01*
X96725000Y-109420867D01*
X96727055Y-109400000D01*
X96725000Y-109379133D01*
X96725000Y-108637907D01*
X96746224Y-108623726D01*
X96843726Y-108526224D01*
X96861721Y-108499291D01*
X118167080Y-108499291D01*
X119600000Y-109932211D01*
X121032920Y-108499291D01*
X120801241Y-108234634D01*
X120404490Y-108037086D01*
X119976823Y-107920737D01*
X119534675Y-107890057D01*
X119095037Y-107946225D01*
X118674805Y-108087084D01*
X118398759Y-108234634D01*
X118167080Y-108499291D01*
X96861721Y-108499291D01*
X96920332Y-108411574D01*
X96973099Y-108284182D01*
X97000000Y-108148944D01*
X97000000Y-108011056D01*
X96973099Y-107875818D01*
X96920332Y-107748426D01*
X96843726Y-107633776D01*
X96746224Y-107536274D01*
X96631574Y-107459668D01*
X96504182Y-107406901D01*
X96368944Y-107380000D01*
X96231056Y-107380000D01*
X96095818Y-107406901D01*
X95968426Y-107459668D01*
X95853776Y-107536274D01*
X95756274Y-107633776D01*
X95679668Y-107748426D01*
X95626901Y-107875818D01*
X95600000Y-108011056D01*
X95600000Y-108148944D01*
X95626901Y-108284182D01*
X95679668Y-108411574D01*
X95756274Y-108526224D01*
X95853776Y-108623726D01*
X95875000Y-108637908D01*
X95875001Y-109223958D01*
X95293980Y-109804980D01*
X95268944Y-109800000D01*
X95131056Y-109800000D01*
X94995818Y-109826901D01*
X94868426Y-109879668D01*
X94753776Y-109956274D01*
X94656274Y-110053776D01*
X94579668Y-110168426D01*
X94526901Y-110295818D01*
X94500000Y-110431056D01*
X89011954Y-110431056D01*
X88993726Y-110403776D01*
X88896224Y-110306274D01*
X88781574Y-110229668D01*
X88654182Y-110176901D01*
X88518944Y-110150000D01*
X88381056Y-110150000D01*
X88356021Y-110154980D01*
X87925000Y-109723960D01*
X87925000Y-109257907D01*
X87946224Y-109243726D01*
X88043726Y-109146224D01*
X88120332Y-109031574D01*
X88173099Y-108904182D01*
X88200000Y-108768944D01*
X88200000Y-108631056D01*
X88173099Y-108495818D01*
X88120332Y-108368426D01*
X88043726Y-108253776D01*
X87946224Y-108156274D01*
X87831574Y-108079668D01*
X87704182Y-108026901D01*
X87568944Y-108000000D01*
X87431056Y-108000000D01*
X87295818Y-108026901D01*
X87168426Y-108079668D01*
X87053776Y-108156274D01*
X86956274Y-108253776D01*
X86879668Y-108368426D01*
X86826901Y-108495818D01*
X86800000Y-108631056D01*
X53375000Y-108631056D01*
X53375000Y-107000000D01*
X60748548Y-107000000D01*
X60754340Y-107058810D01*
X60771495Y-107115361D01*
X60799352Y-107167478D01*
X60836841Y-107213159D01*
X60882522Y-107250648D01*
X60934639Y-107278505D01*
X60991190Y-107295660D01*
X61050000Y-107301452D01*
X61596000Y-107300000D01*
X61671000Y-107225000D01*
X61671000Y-106504000D01*
X61979000Y-106504000D01*
X61979000Y-107225000D01*
X62054000Y-107300000D01*
X62600000Y-107301452D01*
X62658810Y-107295660D01*
X62715361Y-107278505D01*
X62767478Y-107250648D01*
X62813159Y-107213159D01*
X62850648Y-107167478D01*
X62878505Y-107115361D01*
X62895660Y-107058810D01*
X62901452Y-107000000D01*
X68698548Y-107000000D01*
X68704340Y-107058810D01*
X68721495Y-107115361D01*
X68749352Y-107167478D01*
X68786841Y-107213159D01*
X68832522Y-107250648D01*
X68884639Y-107278505D01*
X68941190Y-107295660D01*
X69000000Y-107301452D01*
X69546000Y-107300000D01*
X69621000Y-107225000D01*
X69621000Y-106504000D01*
X69929000Y-106504000D01*
X69929000Y-107225000D01*
X70004000Y-107300000D01*
X70550000Y-107301452D01*
X70608810Y-107295660D01*
X70665361Y-107278505D01*
X70717478Y-107250648D01*
X70763159Y-107213159D01*
X70800648Y-107167478D01*
X70828505Y-107115361D01*
X70845660Y-107058810D01*
X70851452Y-107000000D01*
X70850000Y-106579000D01*
X70775000Y-106504000D01*
X69929000Y-106504000D01*
X69621000Y-106504000D01*
X68775000Y-106504000D01*
X68700000Y-106579000D01*
X68698548Y-107000000D01*
X62901452Y-107000000D01*
X62900000Y-106579000D01*
X62825000Y-106504000D01*
X61979000Y-106504000D01*
X61671000Y-106504000D01*
X60825000Y-106504000D01*
X60750000Y-106579000D01*
X60748548Y-107000000D01*
X53375000Y-107000000D01*
X53375000Y-105700000D01*
X60748548Y-105700000D01*
X60750000Y-106121000D01*
X60825000Y-106196000D01*
X61671000Y-106196000D01*
X61671000Y-105475000D01*
X61979000Y-105475000D01*
X61979000Y-106196000D01*
X62825000Y-106196000D01*
X62900000Y-106121000D01*
X62901452Y-105700000D01*
X68698548Y-105700000D01*
X68700000Y-106121000D01*
X68775000Y-106196000D01*
X69621000Y-106196000D01*
X69621000Y-105475000D01*
X69546000Y-105400000D01*
X69000000Y-105398548D01*
X68941190Y-105404340D01*
X68884639Y-105421495D01*
X68832522Y-105449352D01*
X68786841Y-105486841D01*
X68749352Y-105532522D01*
X68721495Y-105584639D01*
X68704340Y-105641190D01*
X68698548Y-105700000D01*
X62901452Y-105700000D01*
X62895660Y-105641190D01*
X62878505Y-105584639D01*
X62850648Y-105532522D01*
X62813159Y-105486841D01*
X62767478Y-105449352D01*
X62715361Y-105421495D01*
X62658810Y-105404340D01*
X62600000Y-105398548D01*
X62054000Y-105400000D01*
X61979000Y-105475000D01*
X61671000Y-105475000D01*
X61596000Y-105400000D01*
X61050000Y-105398548D01*
X60991190Y-105404340D01*
X60934639Y-105421495D01*
X60882522Y-105449352D01*
X60836841Y-105486841D01*
X60799352Y-105532522D01*
X60771495Y-105584639D01*
X60754340Y-105641190D01*
X60748548Y-105700000D01*
X53375000Y-105700000D01*
X53375000Y-101200000D01*
X60748549Y-101200000D01*
X60748549Y-102500000D01*
X60754341Y-102558810D01*
X60771496Y-102615360D01*
X60799353Y-102667477D01*
X60836842Y-102713158D01*
X60882523Y-102750647D01*
X60934640Y-102778504D01*
X60991190Y-102795659D01*
X61050000Y-102801451D01*
X62600000Y-102801451D01*
X62658810Y-102795659D01*
X62715360Y-102778504D01*
X62767477Y-102750647D01*
X62813158Y-102713158D01*
X62850647Y-102667477D01*
X62878504Y-102615360D01*
X62895659Y-102558810D01*
X62901451Y-102500000D01*
X62901451Y-101200000D01*
X62895659Y-101141190D01*
X62878504Y-101084640D01*
X62850647Y-101032523D01*
X62813158Y-100986842D01*
X62767477Y-100949353D01*
X62715360Y-100921496D01*
X62658810Y-100904341D01*
X62600000Y-100898549D01*
X61050000Y-100898549D01*
X60991190Y-100904341D01*
X60934640Y-100921496D01*
X60882523Y-100949353D01*
X60836842Y-100986842D01*
X60799353Y-101032523D01*
X60771496Y-101084640D01*
X60754341Y-101141190D01*
X60748549Y-101200000D01*
X53375000Y-101200000D01*
X53375000Y-97991961D01*
X58560000Y-97991961D01*
X58560000Y-98248039D01*
X58609958Y-98499196D01*
X58620969Y-98525778D01*
X58605000Y-98606056D01*
X58605000Y-98743944D01*
X58631901Y-98879182D01*
X58684668Y-99006574D01*
X58761274Y-99121224D01*
X58858776Y-99218726D01*
X58973426Y-99295332D01*
X59100818Y-99348099D01*
X59236056Y-99375000D01*
X59373944Y-99375000D01*
X59454222Y-99359031D01*
X59480804Y-99370042D01*
X59731961Y-99420000D01*
X59988039Y-99420000D01*
X60239196Y-99370042D01*
X60475781Y-99272045D01*
X60688702Y-99129776D01*
X60725767Y-99092711D01*
X61645078Y-99092711D01*
X61762125Y-99259961D01*
X61996777Y-99362500D01*
X62246924Y-99417291D01*
X62502954Y-99422227D01*
X62755028Y-99377119D01*
X62993458Y-99283701D01*
X63037875Y-99259961D01*
X63154922Y-99092711D01*
X62400000Y-98337789D01*
X61645078Y-99092711D01*
X60725767Y-99092711D01*
X60869776Y-98948702D01*
X61012045Y-98735781D01*
X61110042Y-98499196D01*
X61129606Y-98400842D01*
X61142881Y-98475028D01*
X61236299Y-98713458D01*
X61260039Y-98757875D01*
X61427289Y-98874922D01*
X62182211Y-98120000D01*
X62617789Y-98120000D01*
X63372711Y-98874922D01*
X63539961Y-98757875D01*
X63642500Y-98523223D01*
X63669876Y-98398238D01*
X63689958Y-98499196D01*
X63787955Y-98735781D01*
X63930224Y-98948702D01*
X64111298Y-99129776D01*
X64324219Y-99272045D01*
X64515001Y-99351070D01*
X64515001Y-99513337D01*
X64512945Y-99534213D01*
X64521150Y-99617527D01*
X64540001Y-99679668D01*
X64545453Y-99697640D01*
X64584917Y-99771473D01*
X64638027Y-99836187D01*
X64654239Y-99849492D01*
X70190508Y-105385762D01*
X70201761Y-105399474D01*
X70004000Y-105400000D01*
X69929000Y-105475000D01*
X69929000Y-106196000D01*
X70775000Y-106196000D01*
X70850000Y-106121000D01*
X70851452Y-105700000D01*
X70845660Y-105641190D01*
X70828505Y-105584639D01*
X70800648Y-105532522D01*
X70794475Y-105525000D01*
X72242093Y-105525000D01*
X72256274Y-105546224D01*
X72353776Y-105643726D01*
X72468426Y-105720332D01*
X72595818Y-105773099D01*
X72731056Y-105800000D01*
X72868944Y-105800000D01*
X73004182Y-105773099D01*
X73131574Y-105720332D01*
X73246224Y-105643726D01*
X73343726Y-105546224D01*
X73420332Y-105431574D01*
X73473099Y-105304182D01*
X73500000Y-105168944D01*
X73500000Y-105031056D01*
X73473099Y-104895818D01*
X73420332Y-104768426D01*
X73343726Y-104653776D01*
X73246224Y-104556274D01*
X73131574Y-104479668D01*
X73004182Y-104426901D01*
X72868944Y-104400000D01*
X72731056Y-104400000D01*
X72595818Y-104426901D01*
X72468426Y-104479668D01*
X72353776Y-104556274D01*
X72256274Y-104653776D01*
X72242093Y-104675000D01*
X70681828Y-104675000D01*
X65365000Y-99358173D01*
X65365000Y-99351069D01*
X65555781Y-99272045D01*
X65768702Y-99129776D01*
X65949776Y-98948702D01*
X66092045Y-98735781D01*
X66190042Y-98499196D01*
X66210000Y-98398860D01*
X66229958Y-98499196D01*
X66327955Y-98735781D01*
X66470224Y-98948702D01*
X66651298Y-99129776D01*
X66864219Y-99272045D01*
X67100804Y-99370042D01*
X67351961Y-99420000D01*
X67608039Y-99420000D01*
X67859196Y-99370042D01*
X68049977Y-99291018D01*
X69657508Y-100898549D01*
X69000000Y-100898549D01*
X68941190Y-100904341D01*
X68884640Y-100921496D01*
X68832523Y-100949353D01*
X68786842Y-100986842D01*
X68749353Y-101032523D01*
X68721496Y-101084640D01*
X68704341Y-101141190D01*
X68698549Y-101200000D01*
X68698549Y-102500000D01*
X68704341Y-102558810D01*
X68721496Y-102615360D01*
X68749353Y-102667477D01*
X68786842Y-102713158D01*
X68832523Y-102750647D01*
X68884640Y-102778504D01*
X68941190Y-102795659D01*
X69000000Y-102801451D01*
X70550000Y-102801451D01*
X70608810Y-102795659D01*
X70665360Y-102778504D01*
X70717477Y-102750647D01*
X70763158Y-102713158D01*
X70800647Y-102667477D01*
X70828504Y-102615360D01*
X70845659Y-102558810D01*
X70851451Y-102500000D01*
X70851451Y-101299999D01*
X73598959Y-101299999D01*
X74304980Y-102006021D01*
X74300000Y-102031056D01*
X74300000Y-102168944D01*
X74326901Y-102304182D01*
X74379668Y-102431574D01*
X74456274Y-102546224D01*
X74553776Y-102643726D01*
X74668426Y-102720332D01*
X74795818Y-102773099D01*
X74931056Y-102800000D01*
X75068944Y-102800000D01*
X75204182Y-102773099D01*
X75331574Y-102720332D01*
X75446224Y-102643726D01*
X75543726Y-102546224D01*
X75620332Y-102431574D01*
X75673099Y-102304182D01*
X75700000Y-102168944D01*
X75700000Y-102031056D01*
X75673099Y-101895818D01*
X75620332Y-101768426D01*
X75595363Y-101731056D01*
X97200000Y-101731056D01*
X97200000Y-101868944D01*
X97226901Y-102004182D01*
X97279668Y-102131574D01*
X97356274Y-102246224D01*
X97453776Y-102343726D01*
X97568426Y-102420332D01*
X97640052Y-102450000D01*
X97568426Y-102479668D01*
X97453776Y-102556274D01*
X97356274Y-102653776D01*
X97279668Y-102768426D01*
X97226901Y-102895818D01*
X97200000Y-103031056D01*
X97200000Y-103168944D01*
X97226901Y-103304182D01*
X97279668Y-103431574D01*
X97356274Y-103546224D01*
X97453776Y-103643726D01*
X97568426Y-103720332D01*
X97695818Y-103773099D01*
X97831056Y-103800000D01*
X97968944Y-103800000D01*
X98104182Y-103773099D01*
X98231574Y-103720332D01*
X98346224Y-103643726D01*
X98443726Y-103546224D01*
X98457907Y-103525000D01*
X101723960Y-103525000D01*
X102304980Y-104106021D01*
X102300000Y-104131056D01*
X102300000Y-104268944D01*
X102326901Y-104404182D01*
X102379668Y-104531574D01*
X102456274Y-104646224D01*
X102553776Y-104743726D01*
X102668426Y-104820332D01*
X102795818Y-104873099D01*
X102931056Y-104900000D01*
X103068944Y-104900000D01*
X103204182Y-104873099D01*
X103331574Y-104820332D01*
X103446224Y-104743726D01*
X103543726Y-104646224D01*
X103620332Y-104531574D01*
X103673099Y-104404182D01*
X103700000Y-104268944D01*
X103700000Y-104131056D01*
X103673099Y-103995818D01*
X103620332Y-103868426D01*
X103543726Y-103753776D01*
X103446224Y-103656274D01*
X103331574Y-103579668D01*
X103204182Y-103526901D01*
X103068944Y-103500000D01*
X102931056Y-103500000D01*
X102906021Y-103504980D01*
X102215283Y-102814243D01*
X102201974Y-102798026D01*
X102137260Y-102744916D01*
X102063427Y-102705452D01*
X101983314Y-102681150D01*
X101920874Y-102675000D01*
X101920867Y-102675000D01*
X101900000Y-102672945D01*
X101879133Y-102675000D01*
X98457907Y-102675000D01*
X98443726Y-102653776D01*
X98346224Y-102556274D01*
X98231574Y-102479668D01*
X98159948Y-102450000D01*
X98231574Y-102420332D01*
X98346224Y-102343726D01*
X98443726Y-102246224D01*
X98457907Y-102225000D01*
X102423960Y-102225000D01*
X102704980Y-102506020D01*
X102700000Y-102531056D01*
X102700000Y-102668944D01*
X102726901Y-102804182D01*
X102779668Y-102931574D01*
X102856274Y-103046224D01*
X102953776Y-103143726D01*
X103068426Y-103220332D01*
X103195818Y-103273099D01*
X103331056Y-103300000D01*
X103468944Y-103300000D01*
X103604182Y-103273099D01*
X103731574Y-103220332D01*
X103846224Y-103143726D01*
X103943726Y-103046224D01*
X104020332Y-102931574D01*
X104073099Y-102804182D01*
X104100000Y-102668944D01*
X104100000Y-102531056D01*
X104073099Y-102395818D01*
X104020332Y-102268426D01*
X103943726Y-102153776D01*
X103846224Y-102056274D01*
X103731574Y-101979668D01*
X103604182Y-101926901D01*
X103468944Y-101900000D01*
X103331056Y-101900000D01*
X103306020Y-101904980D01*
X102915283Y-101514243D01*
X102901974Y-101498026D01*
X102837260Y-101444916D01*
X102763427Y-101405452D01*
X102683314Y-101381150D01*
X102620874Y-101375000D01*
X102620867Y-101375000D01*
X102600000Y-101372945D01*
X102579133Y-101375000D01*
X98457907Y-101375000D01*
X98443726Y-101353776D01*
X98346224Y-101256274D01*
X98231574Y-101179668D01*
X98104182Y-101126901D01*
X97968944Y-101100000D01*
X97831056Y-101100000D01*
X97695818Y-101126901D01*
X97568426Y-101179668D01*
X97453776Y-101256274D01*
X97356274Y-101353776D01*
X97279668Y-101468426D01*
X97226901Y-101595818D01*
X97200000Y-101731056D01*
X75595363Y-101731056D01*
X75543726Y-101653776D01*
X75446224Y-101556274D01*
X75331574Y-101479668D01*
X75204182Y-101426901D01*
X75068944Y-101400000D01*
X74931056Y-101400000D01*
X74906021Y-101404980D01*
X74090282Y-100589242D01*
X74076973Y-100573025D01*
X74012259Y-100519915D01*
X73938426Y-100480451D01*
X73858313Y-100456149D01*
X73795873Y-100449999D01*
X73795866Y-100449999D01*
X73774999Y-100447944D01*
X73754132Y-100449999D01*
X70411040Y-100449999D01*
X68651018Y-98689977D01*
X68730042Y-98499196D01*
X68750000Y-98398860D01*
X68769958Y-98499196D01*
X68867955Y-98735781D01*
X69010224Y-98948702D01*
X69191298Y-99129776D01*
X69404219Y-99272045D01*
X69640804Y-99370042D01*
X69891961Y-99420000D01*
X70148039Y-99420000D01*
X70399196Y-99370042D01*
X70635781Y-99272045D01*
X70848702Y-99129776D01*
X71029776Y-98948702D01*
X71172045Y-98735781D01*
X71251069Y-98545000D01*
X73343960Y-98545000D01*
X75004980Y-100206020D01*
X75000000Y-100231056D01*
X75000000Y-100368944D01*
X75026901Y-100504182D01*
X75079668Y-100631574D01*
X75156274Y-100746224D01*
X75253776Y-100843726D01*
X75368426Y-100920332D01*
X75495818Y-100973099D01*
X75631056Y-101000000D01*
X75768944Y-101000000D01*
X75904182Y-100973099D01*
X76031574Y-100920332D01*
X76146224Y-100843726D01*
X76243726Y-100746224D01*
X76320332Y-100631574D01*
X76373099Y-100504182D01*
X76400000Y-100368944D01*
X76400000Y-100231056D01*
X76373099Y-100095818D01*
X76320332Y-99968426D01*
X76243726Y-99853776D01*
X76146224Y-99756274D01*
X76031574Y-99679668D01*
X75904182Y-99626901D01*
X75768944Y-99600000D01*
X75631056Y-99600000D01*
X75606020Y-99604980D01*
X73835284Y-97834244D01*
X73821974Y-97818026D01*
X73757260Y-97764916D01*
X73683427Y-97725452D01*
X73603314Y-97701150D01*
X73540874Y-97695000D01*
X73540867Y-97695000D01*
X73520000Y-97692945D01*
X73499133Y-97695000D01*
X71251069Y-97695000D01*
X71172045Y-97504219D01*
X71029776Y-97291298D01*
X70848702Y-97110224D01*
X70635781Y-96967955D01*
X70399196Y-96869958D01*
X70148039Y-96820000D01*
X69891961Y-96820000D01*
X69640804Y-96869958D01*
X69404219Y-96967955D01*
X69191298Y-97110224D01*
X69010224Y-97291298D01*
X68867955Y-97504219D01*
X68769958Y-97740804D01*
X68750000Y-97841140D01*
X68730042Y-97740804D01*
X68632045Y-97504219D01*
X68489776Y-97291298D01*
X68308702Y-97110224D01*
X68095781Y-96967955D01*
X67859196Y-96869958D01*
X67608039Y-96820000D01*
X67351961Y-96820000D01*
X67100804Y-96869958D01*
X66864219Y-96967955D01*
X66651298Y-97110224D01*
X66470224Y-97291298D01*
X66327955Y-97504219D01*
X66229958Y-97740804D01*
X66210000Y-97841140D01*
X66190042Y-97740804D01*
X66092045Y-97504219D01*
X65949776Y-97291298D01*
X65768702Y-97110224D01*
X65555781Y-96967955D01*
X65319196Y-96869958D01*
X65068039Y-96820000D01*
X64811961Y-96820000D01*
X64560804Y-96869958D01*
X64324219Y-96967955D01*
X64111298Y-97110224D01*
X63930224Y-97291298D01*
X63787955Y-97504219D01*
X63689958Y-97740804D01*
X63670394Y-97839158D01*
X63657119Y-97764972D01*
X63563701Y-97526542D01*
X63539961Y-97482125D01*
X63372711Y-97365078D01*
X62617789Y-98120000D01*
X62182211Y-98120000D01*
X61427289Y-97365078D01*
X61260039Y-97482125D01*
X61157500Y-97716777D01*
X61130124Y-97841762D01*
X61110042Y-97740804D01*
X61012045Y-97504219D01*
X60869776Y-97291298D01*
X60725767Y-97147289D01*
X61645078Y-97147289D01*
X62400000Y-97902211D01*
X63154922Y-97147289D01*
X63037875Y-96980039D01*
X62803223Y-96877500D01*
X62553076Y-96822709D01*
X62297046Y-96817773D01*
X62044972Y-96862881D01*
X61806542Y-96956299D01*
X61762125Y-96980039D01*
X61645078Y-97147289D01*
X60725767Y-97147289D01*
X60688702Y-97110224D01*
X60475781Y-96967955D01*
X60239196Y-96869958D01*
X59988039Y-96820000D01*
X59731961Y-96820000D01*
X59480804Y-96869958D01*
X59244219Y-96967955D01*
X59031298Y-97110224D01*
X58850224Y-97291298D01*
X58707955Y-97504219D01*
X58609958Y-97740804D01*
X58560000Y-97991961D01*
X53375000Y-97991961D01*
X53375000Y-96375000D01*
X112625001Y-96375000D01*
X112625000Y-105981581D01*
%TA.AperFunction,Conductor*%
D19*
G36*
X112625000Y-105981581D02*
G01*
X112623186Y-106000000D01*
X112630426Y-106073513D01*
X112651869Y-106144200D01*
X112686691Y-106209347D01*
X112733552Y-106266448D01*
X112790653Y-106313309D01*
X112855800Y-106348131D01*
X112926487Y-106369574D01*
X113000000Y-106376814D01*
X113018419Y-106375000D01*
X122625001Y-106375000D01*
X122625000Y-125625000D01*
X113018419Y-125625000D01*
X113000000Y-125623186D01*
X112981581Y-125625000D01*
X112926487Y-125630426D01*
X112855800Y-125651869D01*
X112790653Y-125686691D01*
X112733552Y-125733552D01*
X112686691Y-125790653D01*
X112651869Y-125855800D01*
X112630426Y-125926487D01*
X112623186Y-126000000D01*
X112625001Y-126018429D01*
X112625000Y-135625000D01*
X53375000Y-135625000D01*
X53375000Y-131900000D01*
X60748548Y-131900000D01*
X60754340Y-131958810D01*
X60771495Y-132015361D01*
X60799352Y-132067478D01*
X60836841Y-132113159D01*
X60882522Y-132150648D01*
X60934639Y-132178505D01*
X60991190Y-132195660D01*
X61050000Y-132201452D01*
X61596000Y-132200000D01*
X61671000Y-132125000D01*
X61671000Y-131404000D01*
X61979000Y-131404000D01*
X61979000Y-132125000D01*
X62054000Y-132200000D01*
X62600000Y-132201452D01*
X62658810Y-132195660D01*
X62715361Y-132178505D01*
X62767478Y-132150648D01*
X62813159Y-132113159D01*
X62850648Y-132067478D01*
X62878505Y-132015361D01*
X62895660Y-131958810D01*
X62901452Y-131900000D01*
X68698548Y-131900000D01*
X68704340Y-131958810D01*
X68721495Y-132015361D01*
X68749352Y-132067478D01*
X68786841Y-132113159D01*
X68832522Y-132150648D01*
X68884639Y-132178505D01*
X68941190Y-132195660D01*
X69000000Y-132201452D01*
X69546000Y-132200000D01*
X69621000Y-132125000D01*
X69621000Y-131404000D01*
X69929000Y-131404000D01*
X69929000Y-132125000D01*
X70004000Y-132200000D01*
X70550000Y-132201452D01*
X70608810Y-132195660D01*
X70665361Y-132178505D01*
X70717478Y-132150648D01*
X70763159Y-132113159D01*
X70800648Y-132067478D01*
X70828505Y-132015361D01*
X70845660Y-131958810D01*
X70851452Y-131900000D01*
X70850000Y-131479000D01*
X70775000Y-131404000D01*
X69929000Y-131404000D01*
X69621000Y-131404000D01*
X68775000Y-131404000D01*
X68700000Y-131479000D01*
X68698548Y-131900000D01*
X62901452Y-131900000D01*
X62900000Y-131479000D01*
X62825000Y-131404000D01*
X61979000Y-131404000D01*
X61671000Y-131404000D01*
X60825000Y-131404000D01*
X60750000Y-131479000D01*
X60748548Y-131900000D01*
X53375000Y-131900000D01*
X53375000Y-130600000D01*
X60748548Y-130600000D01*
X60750000Y-131021000D01*
X60825000Y-131096000D01*
X61671000Y-131096000D01*
X61671000Y-130375000D01*
X61979000Y-130375000D01*
X61979000Y-131096000D01*
X62825000Y-131096000D01*
X62900000Y-131021000D01*
X62901452Y-130600000D01*
X68698548Y-130600000D01*
X68700000Y-131021000D01*
X68775000Y-131096000D01*
X69621000Y-131096000D01*
X69621000Y-130375000D01*
X69929000Y-130375000D01*
X69929000Y-131096000D01*
X70775000Y-131096000D01*
X70850000Y-131021000D01*
X70850934Y-130750000D01*
X85848549Y-130750000D01*
X85848549Y-132450000D01*
X85854341Y-132508810D01*
X85871496Y-132565360D01*
X85899353Y-132617477D01*
X85936842Y-132663158D01*
X85982523Y-132700647D01*
X86034640Y-132728504D01*
X86091190Y-132745659D01*
X86150000Y-132751451D01*
X87850000Y-132751451D01*
X87908810Y-132745659D01*
X87965360Y-132728504D01*
X88017477Y-132700647D01*
X88063158Y-132663158D01*
X88100647Y-132617477D01*
X88128504Y-132565360D01*
X88145659Y-132508810D01*
X88151451Y-132450000D01*
X88151451Y-131486735D01*
X88390000Y-131486735D01*
X88390000Y-131713265D01*
X88434194Y-131935443D01*
X88520884Y-132144729D01*
X88646737Y-132333082D01*
X88806918Y-132493263D01*
X88995271Y-132619116D01*
X89204557Y-132705806D01*
X89426735Y-132750000D01*
X89653265Y-132750000D01*
X89875443Y-132705806D01*
X90084729Y-132619116D01*
X90273082Y-132493263D01*
X90433263Y-132333082D01*
X90559116Y-132144729D01*
X90645806Y-131935443D01*
X90690000Y-131713265D01*
X90690000Y-131486735D01*
X90930000Y-131486735D01*
X90930000Y-131713265D01*
X90974194Y-131935443D01*
X91060884Y-132144729D01*
X91186737Y-132333082D01*
X91346918Y-132493263D01*
X91535271Y-132619116D01*
X91744557Y-132705806D01*
X91966735Y-132750000D01*
X92193265Y-132750000D01*
X92415443Y-132705806D01*
X92624729Y-132619116D01*
X92813082Y-132493263D01*
X92973263Y-132333082D01*
X93099116Y-132144729D01*
X93185806Y-131935443D01*
X93230000Y-131713265D01*
X93230000Y-131486735D01*
X93470000Y-131486735D01*
X93470000Y-131713265D01*
X93514194Y-131935443D01*
X93600884Y-132144729D01*
X93726737Y-132333082D01*
X93886918Y-132493263D01*
X94075271Y-132619116D01*
X94284557Y-132705806D01*
X94506735Y-132750000D01*
X94733265Y-132750000D01*
X94955443Y-132705806D01*
X95164729Y-132619116D01*
X95353082Y-132493263D01*
X95513263Y-132333082D01*
X95639116Y-132144729D01*
X95725806Y-131935443D01*
X95770000Y-131713265D01*
X95770000Y-131486735D01*
X96010000Y-131486735D01*
X96010000Y-131713265D01*
X96054194Y-131935443D01*
X96140884Y-132144729D01*
X96266737Y-132333082D01*
X96426918Y-132493263D01*
X96615271Y-132619116D01*
X96824557Y-132705806D01*
X97046735Y-132750000D01*
X97273265Y-132750000D01*
X97495443Y-132705806D01*
X97704729Y-132619116D01*
X97893082Y-132493263D01*
X98053263Y-132333082D01*
X98179116Y-132144729D01*
X98265806Y-131935443D01*
X98310000Y-131713265D01*
X98310000Y-131486735D01*
X98550000Y-131486735D01*
X98550000Y-131713265D01*
X98594194Y-131935443D01*
X98680884Y-132144729D01*
X98806737Y-132333082D01*
X98966918Y-132493263D01*
X99155271Y-132619116D01*
X99364557Y-132705806D01*
X99586735Y-132750000D01*
X99813265Y-132750000D01*
X100035443Y-132705806D01*
X100244729Y-132619116D01*
X100433082Y-132493263D01*
X100593263Y-132333082D01*
X100719116Y-132144729D01*
X100805806Y-131935443D01*
X100806812Y-131930385D01*
X101138472Y-131930385D01*
X101224092Y-132138934D01*
X101348753Y-132326772D01*
X101507664Y-132486681D01*
X101694719Y-132612515D01*
X101902728Y-132699439D01*
X101909617Y-132701520D01*
X102086000Y-132663912D01*
X102086000Y-131754000D01*
X102394000Y-131754000D01*
X102394000Y-132663912D01*
X102570383Y-132701520D01*
X102577272Y-132699439D01*
X102785281Y-132612515D01*
X102972336Y-132486681D01*
X103131247Y-132326772D01*
X103255908Y-132138934D01*
X103341528Y-131930385D01*
X103304650Y-131754000D01*
X102394000Y-131754000D01*
X102086000Y-131754000D01*
X101175350Y-131754000D01*
X101138472Y-131930385D01*
X100806812Y-131930385D01*
X100850000Y-131713265D01*
X100850000Y-131486735D01*
X103630000Y-131486735D01*
X103630000Y-131713265D01*
X103674194Y-131935443D01*
X103760884Y-132144729D01*
X103886737Y-132333082D01*
X104046918Y-132493263D01*
X104235271Y-132619116D01*
X104444557Y-132705806D01*
X104666735Y-132750000D01*
X104893265Y-132750000D01*
X105115443Y-132705806D01*
X105324729Y-132619116D01*
X105513082Y-132493263D01*
X105673263Y-132333082D01*
X105799116Y-132144729D01*
X105885806Y-131935443D01*
X105930000Y-131713265D01*
X105930000Y-131486735D01*
X105885806Y-131264557D01*
X105799116Y-131055271D01*
X105673263Y-130866918D01*
X105513082Y-130706737D01*
X105324729Y-130580884D01*
X105115443Y-130494194D01*
X104893265Y-130450000D01*
X104666735Y-130450000D01*
X104444557Y-130494194D01*
X104235271Y-130580884D01*
X104046918Y-130706737D01*
X103886737Y-130866918D01*
X103760884Y-131055271D01*
X103674194Y-131264557D01*
X103630000Y-131486735D01*
X100850000Y-131486735D01*
X100806813Y-131269615D01*
X101138472Y-131269615D01*
X101175350Y-131446000D01*
X102086000Y-131446000D01*
X102086000Y-130536088D01*
X102394000Y-130536088D01*
X102394000Y-131446000D01*
X103304650Y-131446000D01*
X103341528Y-131269615D01*
X103255908Y-131061066D01*
X103131247Y-130873228D01*
X102972336Y-130713319D01*
X102785281Y-130587485D01*
X102577272Y-130500561D01*
X102570383Y-130498480D01*
X102394000Y-130536088D01*
X102086000Y-130536088D01*
X101909617Y-130498480D01*
X101902728Y-130500561D01*
X101694719Y-130587485D01*
X101507664Y-130713319D01*
X101348753Y-130873228D01*
X101224092Y-131061066D01*
X101138472Y-131269615D01*
X100806813Y-131269615D01*
X100805806Y-131264557D01*
X100719116Y-131055271D01*
X100593263Y-130866918D01*
X100433082Y-130706737D01*
X100244729Y-130580884D01*
X100035443Y-130494194D01*
X99813265Y-130450000D01*
X99586735Y-130450000D01*
X99364557Y-130494194D01*
X99155271Y-130580884D01*
X98966918Y-130706737D01*
X98806737Y-130866918D01*
X98680884Y-131055271D01*
X98594194Y-131264557D01*
X98550000Y-131486735D01*
X98310000Y-131486735D01*
X98265806Y-131264557D01*
X98179116Y-131055271D01*
X98053263Y-130866918D01*
X97893082Y-130706737D01*
X97704729Y-130580884D01*
X97495443Y-130494194D01*
X97273265Y-130450000D01*
X97046735Y-130450000D01*
X96824557Y-130494194D01*
X96615271Y-130580884D01*
X96426918Y-130706737D01*
X96266737Y-130866918D01*
X96140884Y-131055271D01*
X96054194Y-131264557D01*
X96010000Y-131486735D01*
X95770000Y-131486735D01*
X95725806Y-131264557D01*
X95639116Y-131055271D01*
X95513263Y-130866918D01*
X95353082Y-130706737D01*
X95164729Y-130580884D01*
X94955443Y-130494194D01*
X94733265Y-130450000D01*
X94506735Y-130450000D01*
X94284557Y-130494194D01*
X94075271Y-130580884D01*
X93886918Y-130706737D01*
X93726737Y-130866918D01*
X93600884Y-131055271D01*
X93514194Y-131264557D01*
X93470000Y-131486735D01*
X93230000Y-131486735D01*
X93185806Y-131264557D01*
X93099116Y-131055271D01*
X92973263Y-130866918D01*
X92813082Y-130706737D01*
X92624729Y-130580884D01*
X92415443Y-130494194D01*
X92193265Y-130450000D01*
X91966735Y-130450000D01*
X91744557Y-130494194D01*
X91535271Y-130580884D01*
X91346918Y-130706737D01*
X91186737Y-130866918D01*
X91060884Y-131055271D01*
X90974194Y-131264557D01*
X90930000Y-131486735D01*
X90690000Y-131486735D01*
X90645806Y-131264557D01*
X90559116Y-131055271D01*
X90433263Y-130866918D01*
X90273082Y-130706737D01*
X90084729Y-130580884D01*
X89875443Y-130494194D01*
X89653265Y-130450000D01*
X89426735Y-130450000D01*
X89204557Y-130494194D01*
X88995271Y-130580884D01*
X88806918Y-130706737D01*
X88646737Y-130866918D01*
X88520884Y-131055271D01*
X88434194Y-131264557D01*
X88390000Y-131486735D01*
X88151451Y-131486735D01*
X88151451Y-130750000D01*
X88145659Y-130691190D01*
X88128504Y-130634640D01*
X88100647Y-130582523D01*
X88063158Y-130536842D01*
X88017477Y-130499353D01*
X87965360Y-130471496D01*
X87908810Y-130454341D01*
X87850000Y-130448549D01*
X86150000Y-130448549D01*
X86091190Y-130454341D01*
X86034640Y-130471496D01*
X85982523Y-130499353D01*
X85936842Y-130536842D01*
X85899353Y-130582523D01*
X85871496Y-130634640D01*
X85854341Y-130691190D01*
X85848549Y-130750000D01*
X70850934Y-130750000D01*
X70851452Y-130600000D01*
X70845660Y-130541190D01*
X70828505Y-130484639D01*
X70800648Y-130432522D01*
X70763159Y-130386841D01*
X70717478Y-130349352D01*
X70665361Y-130321495D01*
X70608810Y-130304340D01*
X70550000Y-130298548D01*
X70004000Y-130300000D01*
X69929000Y-130375000D01*
X69621000Y-130375000D01*
X69546000Y-130300000D01*
X69000000Y-130298548D01*
X68941190Y-130304340D01*
X68884639Y-130321495D01*
X68832522Y-130349352D01*
X68786841Y-130386841D01*
X68749352Y-130432522D01*
X68721495Y-130484639D01*
X68704340Y-130541190D01*
X68698548Y-130600000D01*
X62901452Y-130600000D01*
X62895660Y-130541190D01*
X62878505Y-130484639D01*
X62850648Y-130432522D01*
X62813159Y-130386841D01*
X62767478Y-130349352D01*
X62715361Y-130321495D01*
X62658810Y-130304340D01*
X62600000Y-130298548D01*
X62054000Y-130300000D01*
X61979000Y-130375000D01*
X61671000Y-130375000D01*
X61596000Y-130300000D01*
X61050000Y-130298548D01*
X60991190Y-130304340D01*
X60934639Y-130321495D01*
X60882522Y-130349352D01*
X60836841Y-130386841D01*
X60799352Y-130432522D01*
X60771495Y-130484639D01*
X60754340Y-130541190D01*
X60748548Y-130600000D01*
X53375000Y-130600000D01*
X53375000Y-128031056D01*
X106800000Y-128031056D01*
X106800000Y-128168944D01*
X106826901Y-128304182D01*
X106879668Y-128431574D01*
X106956274Y-128546224D01*
X107053776Y-128643726D01*
X107168426Y-128720332D01*
X107295818Y-128773099D01*
X107431056Y-128800000D01*
X107568944Y-128800000D01*
X107704182Y-128773099D01*
X107831574Y-128720332D01*
X107946224Y-128643726D01*
X108043726Y-128546224D01*
X108120332Y-128431574D01*
X108173099Y-128304182D01*
X108200000Y-128168944D01*
X108200000Y-128031056D01*
X108173099Y-127895818D01*
X108120332Y-127768426D01*
X108043726Y-127653776D01*
X107946224Y-127556274D01*
X107831574Y-127479668D01*
X107704182Y-127426901D01*
X107568944Y-127400000D01*
X107431056Y-127400000D01*
X107295818Y-127426901D01*
X107168426Y-127479668D01*
X107053776Y-127556274D01*
X106956274Y-127653776D01*
X106879668Y-127768426D01*
X106826901Y-127895818D01*
X106800000Y-128031056D01*
X53375000Y-128031056D01*
X53375000Y-126100000D01*
X60748549Y-126100000D01*
X60748549Y-127400000D01*
X60754341Y-127458810D01*
X60771496Y-127515360D01*
X60799353Y-127567477D01*
X60836842Y-127613158D01*
X60882523Y-127650647D01*
X60934640Y-127678504D01*
X60991190Y-127695659D01*
X61050000Y-127701451D01*
X62600000Y-127701451D01*
X62658810Y-127695659D01*
X62715360Y-127678504D01*
X62767477Y-127650647D01*
X62813158Y-127613158D01*
X62850647Y-127567477D01*
X62878504Y-127515360D01*
X62895659Y-127458810D01*
X62901451Y-127400000D01*
X62901451Y-126100000D01*
X68698549Y-126100000D01*
X68698549Y-127400000D01*
X68704341Y-127458810D01*
X68721496Y-127515360D01*
X68749353Y-127567477D01*
X68786842Y-127613158D01*
X68832523Y-127650647D01*
X68884640Y-127678504D01*
X68941190Y-127695659D01*
X69000000Y-127701451D01*
X70550000Y-127701451D01*
X70608810Y-127695659D01*
X70665360Y-127678504D01*
X70717477Y-127650647D01*
X70763158Y-127613158D01*
X70800647Y-127567477D01*
X70828504Y-127515360D01*
X70845659Y-127458810D01*
X70851451Y-127400000D01*
X70851451Y-126100000D01*
X70845659Y-126041190D01*
X70828504Y-125984640D01*
X70800647Y-125932523D01*
X70763158Y-125886842D01*
X70717477Y-125849353D01*
X70665360Y-125821496D01*
X70608810Y-125804341D01*
X70550000Y-125798549D01*
X69000000Y-125798549D01*
X68941190Y-125804341D01*
X68884640Y-125821496D01*
X68832523Y-125849353D01*
X68786842Y-125886842D01*
X68749353Y-125932523D01*
X68721496Y-125984640D01*
X68704341Y-126041190D01*
X68698549Y-126100000D01*
X62901451Y-126100000D01*
X62895659Y-126041190D01*
X62878504Y-125984640D01*
X62850647Y-125932523D01*
X62813158Y-125886842D01*
X62767477Y-125849353D01*
X62715360Y-125821496D01*
X62658810Y-125804341D01*
X62600000Y-125798549D01*
X61050000Y-125798549D01*
X60991190Y-125804341D01*
X60934640Y-125821496D01*
X60882523Y-125849353D01*
X60836842Y-125886842D01*
X60799353Y-125932523D01*
X60771496Y-125984640D01*
X60754341Y-126041190D01*
X60748549Y-126100000D01*
X53375000Y-126100000D01*
X53375000Y-124131056D01*
X97200000Y-124131056D01*
X97200000Y-124268944D01*
X97226901Y-124404182D01*
X97279668Y-124531574D01*
X97356274Y-124646224D01*
X97453776Y-124743726D01*
X97475000Y-124757907D01*
X97475001Y-126079703D01*
X97426905Y-126195818D01*
X97400004Y-126331056D01*
X97400004Y-126468944D01*
X97426905Y-126604182D01*
X97479672Y-126731574D01*
X97556278Y-126846224D01*
X97653780Y-126943726D01*
X97768430Y-127020332D01*
X97895822Y-127073099D01*
X98031060Y-127100000D01*
X98168948Y-127100000D01*
X98304186Y-127073099D01*
X98431578Y-127020332D01*
X98546228Y-126943726D01*
X98643730Y-126846224D01*
X98720336Y-126731574D01*
X98773103Y-126604182D01*
X98800004Y-126468944D01*
X98800004Y-126331056D01*
X98773103Y-126195818D01*
X98720336Y-126068426D01*
X98643730Y-125953776D01*
X98546228Y-125856274D01*
X98431578Y-125779668D01*
X98325000Y-125735522D01*
X98325000Y-125231056D01*
X103800000Y-125231056D01*
X103800000Y-125368944D01*
X103826901Y-125504182D01*
X103879668Y-125631574D01*
X103956274Y-125746224D01*
X104053776Y-125843726D01*
X104168426Y-125920332D01*
X104295818Y-125973099D01*
X104431056Y-126000000D01*
X104568944Y-126000000D01*
X104704182Y-125973099D01*
X104831574Y-125920332D01*
X104946224Y-125843726D01*
X105043726Y-125746224D01*
X105120332Y-125631574D01*
X105173099Y-125504182D01*
X105181886Y-125460010D01*
X105607083Y-125460010D01*
X105621264Y-125481234D01*
X105718766Y-125578736D01*
X105833416Y-125655342D01*
X105960808Y-125708109D01*
X106096046Y-125735010D01*
X106233934Y-125735010D01*
X106369172Y-125708109D01*
X106496564Y-125655342D01*
X106611214Y-125578736D01*
X106708716Y-125481234D01*
X106785322Y-125366584D01*
X106838089Y-125239192D01*
X106864990Y-125103954D01*
X106864990Y-124966066D01*
X106838089Y-124830828D01*
X106785322Y-124703436D01*
X106708716Y-124588786D01*
X106611214Y-124491284D01*
X106496564Y-124414678D01*
X106369172Y-124361911D01*
X106233934Y-124335010D01*
X106096046Y-124335010D01*
X105960808Y-124361911D01*
X105833416Y-124414678D01*
X105718766Y-124491284D01*
X105621264Y-124588786D01*
X105607083Y-124610010D01*
X104785856Y-124610010D01*
X104764989Y-124607955D01*
X104744122Y-124610010D01*
X104744116Y-124610010D01*
X104690088Y-124615331D01*
X104681675Y-124616160D01*
X104669204Y-124619943D01*
X104568944Y-124600000D01*
X104431056Y-124600000D01*
X104295818Y-124626901D01*
X104168426Y-124679668D01*
X104053776Y-124756274D01*
X103956274Y-124853776D01*
X103879668Y-124968426D01*
X103826901Y-125095818D01*
X103800000Y-125231056D01*
X98325000Y-125231056D01*
X98325000Y-124757907D01*
X98346224Y-124743726D01*
X98443726Y-124646224D01*
X98520332Y-124531574D01*
X98573099Y-124404182D01*
X98600000Y-124268944D01*
X98600000Y-124131056D01*
X98573099Y-123995818D01*
X98520332Y-123868426D01*
X98443726Y-123753776D01*
X98346224Y-123656274D01*
X98231574Y-123579668D01*
X98104182Y-123526901D01*
X97972509Y-123500709D01*
X118167080Y-123500709D01*
X118398759Y-123765366D01*
X118795510Y-123962914D01*
X119223177Y-124079263D01*
X119665325Y-124109943D01*
X120104963Y-124053775D01*
X120525195Y-123912916D01*
X120801241Y-123765366D01*
X121032920Y-123500709D01*
X119600000Y-122067789D01*
X118167080Y-123500709D01*
X97972509Y-123500709D01*
X97968944Y-123500000D01*
X97831056Y-123500000D01*
X97695818Y-123526901D01*
X97568426Y-123579668D01*
X97453776Y-123656274D01*
X97356274Y-123753776D01*
X97279668Y-123868426D01*
X97226901Y-123995818D01*
X97200000Y-124131056D01*
X53375000Y-124131056D01*
X53375000Y-123600000D01*
X60748548Y-123600000D01*
X60754340Y-123658810D01*
X60771495Y-123715361D01*
X60799352Y-123767478D01*
X60836841Y-123813159D01*
X60882522Y-123850648D01*
X60934639Y-123878505D01*
X60991190Y-123895660D01*
X61050000Y-123901452D01*
X61596000Y-123900000D01*
X61671000Y-123825000D01*
X61671000Y-123104000D01*
X61979000Y-123104000D01*
X61979000Y-123825000D01*
X62054000Y-123900000D01*
X62600000Y-123901452D01*
X62658810Y-123895660D01*
X62715361Y-123878505D01*
X62767478Y-123850648D01*
X62813159Y-123813159D01*
X62850648Y-123767478D01*
X62878505Y-123715361D01*
X62895660Y-123658810D01*
X62901452Y-123600000D01*
X68698548Y-123600000D01*
X68704340Y-123658810D01*
X68721495Y-123715361D01*
X68749352Y-123767478D01*
X68786841Y-123813159D01*
X68832522Y-123850648D01*
X68884639Y-123878505D01*
X68941190Y-123895660D01*
X69000000Y-123901452D01*
X69546000Y-123900000D01*
X69621000Y-123825000D01*
X69621000Y-123104000D01*
X69929000Y-123104000D01*
X69929000Y-123825000D01*
X70004000Y-123900000D01*
X70550000Y-123901452D01*
X70608810Y-123895660D01*
X70665361Y-123878505D01*
X70717478Y-123850648D01*
X70763159Y-123813159D01*
X70800648Y-123767478D01*
X70828505Y-123715361D01*
X70845660Y-123658810D01*
X70851452Y-123600000D01*
X70850000Y-123179000D01*
X70775000Y-123104000D01*
X69929000Y-123104000D01*
X69621000Y-123104000D01*
X68775000Y-123104000D01*
X68700000Y-123179000D01*
X68698548Y-123600000D01*
X62901452Y-123600000D01*
X62900000Y-123179000D01*
X62825000Y-123104000D01*
X61979000Y-123104000D01*
X61671000Y-123104000D01*
X60825000Y-123104000D01*
X60750000Y-123179000D01*
X60748548Y-123600000D01*
X53375000Y-123600000D01*
X53375000Y-122300000D01*
X60748548Y-122300000D01*
X60750000Y-122721000D01*
X60825000Y-122796000D01*
X61671000Y-122796000D01*
X61671000Y-122075000D01*
X61979000Y-122075000D01*
X61979000Y-122796000D01*
X62825000Y-122796000D01*
X62900000Y-122721000D01*
X62901452Y-122300000D01*
X68698548Y-122300000D01*
X68700000Y-122721000D01*
X68775000Y-122796000D01*
X69621000Y-122796000D01*
X69621000Y-122075000D01*
X69929000Y-122075000D01*
X69929000Y-122796000D01*
X70775000Y-122796000D01*
X70850000Y-122721000D01*
X70851452Y-122300000D01*
X70845660Y-122241190D01*
X70828505Y-122184639D01*
X70800648Y-122132522D01*
X70763159Y-122086841D01*
X70717478Y-122049352D01*
X70665361Y-122021495D01*
X70608810Y-122004340D01*
X70550000Y-121998548D01*
X70004000Y-122000000D01*
X69929000Y-122075000D01*
X69621000Y-122075000D01*
X69546000Y-122000000D01*
X69000000Y-121998548D01*
X68941190Y-122004340D01*
X68884639Y-122021495D01*
X68832522Y-122049352D01*
X68786841Y-122086841D01*
X68749352Y-122132522D01*
X68721495Y-122184639D01*
X68704340Y-122241190D01*
X68698548Y-122300000D01*
X62901452Y-122300000D01*
X62895660Y-122241190D01*
X62878505Y-122184639D01*
X62850648Y-122132522D01*
X62813159Y-122086841D01*
X62767478Y-122049352D01*
X62715361Y-122021495D01*
X62658810Y-122004340D01*
X62600000Y-121998548D01*
X62054000Y-122000000D01*
X61979000Y-122075000D01*
X61671000Y-122075000D01*
X61596000Y-122000000D01*
X61050000Y-121998548D01*
X60991190Y-122004340D01*
X60934639Y-122021495D01*
X60882522Y-122049352D01*
X60836841Y-122086841D01*
X60799352Y-122132522D01*
X60771495Y-122184639D01*
X60754340Y-122241190D01*
X60748548Y-122300000D01*
X53375000Y-122300000D01*
X53375000Y-117800000D01*
X60748549Y-117800000D01*
X60748549Y-119100000D01*
X60754341Y-119158810D01*
X60771496Y-119215360D01*
X60799353Y-119267477D01*
X60836842Y-119313158D01*
X60882523Y-119350647D01*
X60934640Y-119378504D01*
X60991190Y-119395659D01*
X61050000Y-119401451D01*
X62600000Y-119401451D01*
X62658810Y-119395659D01*
X62715360Y-119378504D01*
X62767477Y-119350647D01*
X62813158Y-119313158D01*
X62850647Y-119267477D01*
X62878504Y-119215360D01*
X62895659Y-119158810D01*
X62901451Y-119100000D01*
X62901451Y-117800000D01*
X68698549Y-117800000D01*
X68698549Y-119100000D01*
X68704341Y-119158810D01*
X68721496Y-119215360D01*
X68749353Y-119267477D01*
X68786842Y-119313158D01*
X68832523Y-119350647D01*
X68884640Y-119378504D01*
X68941190Y-119395659D01*
X69000000Y-119401451D01*
X70550000Y-119401451D01*
X70608810Y-119395659D01*
X70665360Y-119378504D01*
X70717477Y-119350647D01*
X70763158Y-119313158D01*
X70800647Y-119267477D01*
X70828504Y-119215360D01*
X70845659Y-119158810D01*
X70851451Y-119100000D01*
X70851451Y-119021056D01*
X102700000Y-119021056D01*
X102700000Y-119158944D01*
X102726901Y-119294182D01*
X102779668Y-119421574D01*
X102856274Y-119536224D01*
X102953776Y-119633726D01*
X103068426Y-119710332D01*
X103195818Y-119763099D01*
X103331056Y-119790000D01*
X103468944Y-119790000D01*
X103493980Y-119785020D01*
X104229731Y-120520772D01*
X104243036Y-120536984D01*
X104307750Y-120590094D01*
X104381583Y-120629558D01*
X104461696Y-120653860D01*
X104524136Y-120660010D01*
X104524143Y-120660010D01*
X104545010Y-120662065D01*
X104565877Y-120660010D01*
X105607083Y-120660010D01*
X105621264Y-120681234D01*
X105718766Y-120778736D01*
X105833416Y-120855342D01*
X105960808Y-120908109D01*
X106096046Y-120935010D01*
X106233934Y-120935010D01*
X106369172Y-120908109D01*
X106496564Y-120855342D01*
X106611214Y-120778736D01*
X106708716Y-120681234D01*
X106785322Y-120566584D01*
X106838089Y-120439192D01*
X106864990Y-120303954D01*
X106864990Y-120166066D01*
X106838089Y-120030828D01*
X106785322Y-119903436D01*
X106708716Y-119788786D01*
X106611214Y-119691284D01*
X106496564Y-119614678D01*
X106369172Y-119561911D01*
X106233934Y-119535010D01*
X106096046Y-119535010D01*
X105960808Y-119561911D01*
X105833416Y-119614678D01*
X105718766Y-119691284D01*
X105621264Y-119788786D01*
X105607083Y-119810010D01*
X104721051Y-119810010D01*
X104342097Y-119431056D01*
X115300000Y-119431056D01*
X115300000Y-119568944D01*
X115326901Y-119704182D01*
X115379668Y-119831574D01*
X115456274Y-119946224D01*
X115553776Y-120043726D01*
X115668426Y-120120332D01*
X115701918Y-120134205D01*
X115704341Y-120158810D01*
X115721496Y-120215360D01*
X115749353Y-120267477D01*
X115786842Y-120313158D01*
X115832523Y-120350647D01*
X115884640Y-120378504D01*
X115941190Y-120395659D01*
X116000000Y-120401451D01*
X117933659Y-120401451D01*
X117949289Y-120417081D01*
X117684634Y-120648759D01*
X117487086Y-121045510D01*
X117370737Y-121473177D01*
X117340057Y-121915325D01*
X117396225Y-122354963D01*
X117537084Y-122775195D01*
X117684634Y-123051241D01*
X117949291Y-123282920D01*
X119382211Y-121850000D01*
X119817789Y-121850000D01*
X121250709Y-123282920D01*
X121515366Y-123051241D01*
X121712914Y-122654490D01*
X121829263Y-122226823D01*
X121859943Y-121784675D01*
X121803775Y-121345037D01*
X121662916Y-120924805D01*
X121515366Y-120648759D01*
X121250709Y-120417080D01*
X119817789Y-121850000D01*
X119382211Y-121850000D01*
X119368069Y-121835858D01*
X119585858Y-121618069D01*
X119600000Y-121632211D01*
X121032920Y-120199291D01*
X120801241Y-119934634D01*
X120404490Y-119737086D01*
X119976823Y-119620737D01*
X119534675Y-119590057D01*
X119095037Y-119646225D01*
X118674805Y-119787084D01*
X118398759Y-119934634D01*
X118301451Y-120045793D01*
X118301451Y-118900000D01*
X118295659Y-118841190D01*
X118278504Y-118784640D01*
X118250647Y-118732523D01*
X118213158Y-118686842D01*
X118167477Y-118649353D01*
X118115360Y-118621496D01*
X118058810Y-118604341D01*
X118000000Y-118598549D01*
X116000000Y-118598549D01*
X115941190Y-118604341D01*
X115884640Y-118621496D01*
X115832523Y-118649353D01*
X115786842Y-118686842D01*
X115749353Y-118732523D01*
X115721496Y-118784640D01*
X115704341Y-118841190D01*
X115701918Y-118865795D01*
X115668426Y-118879668D01*
X115553776Y-118956274D01*
X115456274Y-119053776D01*
X115379668Y-119168426D01*
X115326901Y-119295818D01*
X115300000Y-119431056D01*
X104342097Y-119431056D01*
X104095020Y-119183980D01*
X104100000Y-119158944D01*
X104100000Y-119021056D01*
X104073099Y-118885818D01*
X104020332Y-118758426D01*
X103943726Y-118643776D01*
X103846224Y-118546274D01*
X103731574Y-118469668D01*
X103604182Y-118416901D01*
X103468944Y-118390000D01*
X103331056Y-118390000D01*
X103195818Y-118416901D01*
X103068426Y-118469668D01*
X102953776Y-118546274D01*
X102856274Y-118643776D01*
X102779668Y-118758426D01*
X102726901Y-118885818D01*
X102700000Y-119021056D01*
X70851451Y-119021056D01*
X70851451Y-118166282D01*
X118750000Y-118166282D01*
X118750000Y-118333718D01*
X118782665Y-118497936D01*
X118846740Y-118652626D01*
X118939762Y-118791844D01*
X119058156Y-118910238D01*
X119197374Y-119003260D01*
X119352064Y-119067335D01*
X119516282Y-119100000D01*
X119683718Y-119100000D01*
X119847936Y-119067335D01*
X120002626Y-119003260D01*
X120141844Y-118910238D01*
X120260238Y-118791844D01*
X120353260Y-118652626D01*
X120417335Y-118497936D01*
X120450000Y-118333718D01*
X120450000Y-118166282D01*
X120417335Y-118002064D01*
X120353260Y-117847374D01*
X120260238Y-117708156D01*
X120141844Y-117589762D01*
X120002626Y-117496740D01*
X119847936Y-117432665D01*
X119683718Y-117400000D01*
X119516282Y-117400000D01*
X119352064Y-117432665D01*
X119197374Y-117496740D01*
X119058156Y-117589762D01*
X118939762Y-117708156D01*
X118846740Y-117847374D01*
X118782665Y-118002064D01*
X118750000Y-118166282D01*
X70851451Y-118166282D01*
X70851451Y-117800000D01*
X70845659Y-117741190D01*
X70828504Y-117684640D01*
X70800647Y-117632523D01*
X70763158Y-117586842D01*
X70717477Y-117549353D01*
X70665360Y-117521496D01*
X70608810Y-117504341D01*
X70550000Y-117498549D01*
X69000000Y-117498549D01*
X68941190Y-117504341D01*
X68884640Y-117521496D01*
X68832523Y-117549353D01*
X68786842Y-117586842D01*
X68749353Y-117632523D01*
X68721496Y-117684640D01*
X68704341Y-117741190D01*
X68698549Y-117800000D01*
X62901451Y-117800000D01*
X62895659Y-117741190D01*
X62878504Y-117684640D01*
X62850647Y-117632523D01*
X62813158Y-117586842D01*
X62767477Y-117549353D01*
X62715360Y-117521496D01*
X62658810Y-117504341D01*
X62600000Y-117498549D01*
X61050000Y-117498549D01*
X60991190Y-117504341D01*
X60934640Y-117521496D01*
X60882523Y-117549353D01*
X60836842Y-117586842D01*
X60799353Y-117632523D01*
X60771496Y-117684640D01*
X60754341Y-117741190D01*
X60748549Y-117800000D01*
X53375000Y-117800000D01*
X53375000Y-117031056D01*
X97300000Y-117031056D01*
X97300000Y-117168944D01*
X97326901Y-117304182D01*
X97379668Y-117431574D01*
X97456274Y-117546224D01*
X97553776Y-117643726D01*
X97668426Y-117720332D01*
X97795818Y-117773099D01*
X97931056Y-117800000D01*
X98068944Y-117800000D01*
X98204182Y-117773099D01*
X98331574Y-117720332D01*
X98446224Y-117643726D01*
X98543726Y-117546224D01*
X98557907Y-117525000D01*
X99679133Y-117525000D01*
X99700000Y-117527055D01*
X99720867Y-117525000D01*
X99720874Y-117525000D01*
X99783314Y-117518850D01*
X99863427Y-117494548D01*
X99874335Y-117488717D01*
X99931056Y-117500000D01*
X100068944Y-117500000D01*
X100204182Y-117473099D01*
X100331574Y-117420332D01*
X100446224Y-117343726D01*
X100543726Y-117246224D01*
X100620332Y-117131574D01*
X100673099Y-117004182D01*
X100700000Y-116868944D01*
X100700000Y-116731056D01*
X100673099Y-116595818D01*
X100620332Y-116468426D01*
X100574612Y-116400000D01*
X115698549Y-116400000D01*
X115698549Y-117600000D01*
X115704341Y-117658810D01*
X115721496Y-117715360D01*
X115749353Y-117767477D01*
X115786842Y-117813158D01*
X115832523Y-117850647D01*
X115884640Y-117878504D01*
X115941190Y-117895659D01*
X116000000Y-117901451D01*
X118000000Y-117901451D01*
X118058810Y-117895659D01*
X118115360Y-117878504D01*
X118167477Y-117850647D01*
X118213158Y-117813158D01*
X118250647Y-117767477D01*
X118278504Y-117715360D01*
X118295659Y-117658810D01*
X118301451Y-117600000D01*
X118301451Y-116400000D01*
X118295659Y-116341190D01*
X118278504Y-116284640D01*
X118250647Y-116232523D01*
X118213158Y-116186842D01*
X118167477Y-116149353D01*
X118115360Y-116121496D01*
X118058810Y-116104341D01*
X118000000Y-116098549D01*
X116000000Y-116098549D01*
X115941190Y-116104341D01*
X115884640Y-116121496D01*
X115832523Y-116149353D01*
X115786842Y-116186842D01*
X115749353Y-116232523D01*
X115721496Y-116284640D01*
X115704341Y-116341190D01*
X115698549Y-116400000D01*
X100574612Y-116400000D01*
X100543726Y-116353776D01*
X100446224Y-116256274D01*
X100331574Y-116179668D01*
X100204182Y-116126901D01*
X100068944Y-116100000D01*
X99931056Y-116100000D01*
X99795818Y-116126901D01*
X99668426Y-116179668D01*
X99553776Y-116256274D01*
X99456274Y-116353776D01*
X99379668Y-116468426D01*
X99326901Y-116595818D01*
X99311150Y-116675000D01*
X98557907Y-116675000D01*
X98543726Y-116653776D01*
X98446224Y-116556274D01*
X98331574Y-116479668D01*
X98204182Y-116426901D01*
X98068944Y-116400000D01*
X97931056Y-116400000D01*
X97795818Y-116426901D01*
X97668426Y-116479668D01*
X97553776Y-116556274D01*
X97456274Y-116653776D01*
X97379668Y-116768426D01*
X97326901Y-116895818D01*
X97300000Y-117031056D01*
X53375000Y-117031056D01*
X53375000Y-115300000D01*
X54748548Y-115300000D01*
X54754340Y-115358810D01*
X54771495Y-115415361D01*
X54799352Y-115467478D01*
X54836841Y-115513159D01*
X54882522Y-115550648D01*
X54934639Y-115578505D01*
X54991190Y-115595660D01*
X55050000Y-115601452D01*
X55596000Y-115600000D01*
X55671000Y-115525000D01*
X55671000Y-114804000D01*
X55979000Y-114804000D01*
X55979000Y-115525000D01*
X56054000Y-115600000D01*
X56600000Y-115601452D01*
X56658810Y-115595660D01*
X56715361Y-115578505D01*
X56767478Y-115550648D01*
X56813159Y-115513159D01*
X56850648Y-115467478D01*
X56878505Y-115415361D01*
X56895660Y-115358810D01*
X56901452Y-115300000D01*
X62698548Y-115300000D01*
X62704340Y-115358810D01*
X62721495Y-115415361D01*
X62749352Y-115467478D01*
X62786841Y-115513159D01*
X62832522Y-115550648D01*
X62884639Y-115578505D01*
X62941190Y-115595660D01*
X63000000Y-115601452D01*
X63546000Y-115600000D01*
X63621000Y-115525000D01*
X63621000Y-114804000D01*
X63929000Y-114804000D01*
X63929000Y-115525000D01*
X64004000Y-115600000D01*
X64550000Y-115601452D01*
X64608810Y-115595660D01*
X64665361Y-115578505D01*
X64717478Y-115550648D01*
X64763159Y-115513159D01*
X64800648Y-115467478D01*
X64828505Y-115415361D01*
X64845660Y-115358810D01*
X64851452Y-115300000D01*
X66748548Y-115300000D01*
X66754340Y-115358810D01*
X66771495Y-115415361D01*
X66799352Y-115467478D01*
X66836841Y-115513159D01*
X66882522Y-115550648D01*
X66934639Y-115578505D01*
X66991190Y-115595660D01*
X67050000Y-115601452D01*
X67596000Y-115600000D01*
X67671000Y-115525000D01*
X67671000Y-114804000D01*
X67979000Y-114804000D01*
X67979000Y-115525000D01*
X68054000Y-115600000D01*
X68600000Y-115601452D01*
X68658810Y-115595660D01*
X68715361Y-115578505D01*
X68767478Y-115550648D01*
X68813159Y-115513159D01*
X68850648Y-115467478D01*
X68878505Y-115415361D01*
X68895660Y-115358810D01*
X68901452Y-115300000D01*
X74698548Y-115300000D01*
X74704340Y-115358810D01*
X74721495Y-115415361D01*
X74749352Y-115467478D01*
X74786841Y-115513159D01*
X74832522Y-115550648D01*
X74884639Y-115578505D01*
X74941190Y-115595660D01*
X75000000Y-115601452D01*
X75546000Y-115600000D01*
X75621000Y-115525000D01*
X75621000Y-114804000D01*
X75929000Y-114804000D01*
X75929000Y-115525000D01*
X76004000Y-115600000D01*
X76550000Y-115601452D01*
X76608810Y-115595660D01*
X76665361Y-115578505D01*
X76717478Y-115550648D01*
X76763159Y-115513159D01*
X76800648Y-115467478D01*
X76828505Y-115415361D01*
X76845660Y-115358810D01*
X76851452Y-115300000D01*
X76850000Y-114879000D01*
X76775000Y-114804000D01*
X75929000Y-114804000D01*
X75621000Y-114804000D01*
X74775000Y-114804000D01*
X74700000Y-114879000D01*
X74698548Y-115300000D01*
X68901452Y-115300000D01*
X68900000Y-114879000D01*
X68825000Y-114804000D01*
X67979000Y-114804000D01*
X67671000Y-114804000D01*
X66825000Y-114804000D01*
X66750000Y-114879000D01*
X66748548Y-115300000D01*
X64851452Y-115300000D01*
X64850000Y-114879000D01*
X64775000Y-114804000D01*
X63929000Y-114804000D01*
X63621000Y-114804000D01*
X62775000Y-114804000D01*
X62700000Y-114879000D01*
X62698548Y-115300000D01*
X56901452Y-115300000D01*
X56900000Y-114879000D01*
X56825000Y-114804000D01*
X55979000Y-114804000D01*
X55671000Y-114804000D01*
X54825000Y-114804000D01*
X54750000Y-114879000D01*
X54748548Y-115300000D01*
X53375000Y-115300000D01*
X53375000Y-114000000D01*
X54748548Y-114000000D01*
X54750000Y-114421000D01*
X54825000Y-114496000D01*
X55671000Y-114496000D01*
X55671000Y-113775000D01*
X55979000Y-113775000D01*
X55979000Y-114496000D01*
X56825000Y-114496000D01*
X56900000Y-114421000D01*
X56901452Y-114000000D01*
X62698548Y-114000000D01*
X62700000Y-114421000D01*
X62775000Y-114496000D01*
X63621000Y-114496000D01*
X63621000Y-113775000D01*
X63929000Y-113775000D01*
X63929000Y-114496000D01*
X64775000Y-114496000D01*
X64850000Y-114421000D01*
X64851452Y-114000000D01*
X66748548Y-114000000D01*
X66750000Y-114421000D01*
X66825000Y-114496000D01*
X67671000Y-114496000D01*
X67671000Y-113775000D01*
X67979000Y-113775000D01*
X67979000Y-114496000D01*
X68825000Y-114496000D01*
X68900000Y-114421000D01*
X68901452Y-114000000D01*
X74698548Y-114000000D01*
X74700000Y-114421000D01*
X74775000Y-114496000D01*
X75621000Y-114496000D01*
X75621000Y-113775000D01*
X75929000Y-113775000D01*
X75929000Y-114496000D01*
X76775000Y-114496000D01*
X76850000Y-114421000D01*
X76851310Y-114041056D01*
X101090000Y-114041056D01*
X101090000Y-114178944D01*
X101116901Y-114314182D01*
X101169668Y-114441574D01*
X101246274Y-114556224D01*
X101343776Y-114653726D01*
X101458426Y-114730332D01*
X101585818Y-114783099D01*
X101721056Y-114810000D01*
X101858944Y-114810000D01*
X101994182Y-114783099D01*
X102121574Y-114730332D01*
X102236224Y-114653726D01*
X102333726Y-114556224D01*
X102410332Y-114441574D01*
X102427552Y-114400000D01*
X115698549Y-114400000D01*
X115698549Y-115600000D01*
X115704341Y-115658810D01*
X115721496Y-115715360D01*
X115749353Y-115767477D01*
X115786842Y-115813158D01*
X115832523Y-115850647D01*
X115884640Y-115878504D01*
X115941190Y-115895659D01*
X116000000Y-115901451D01*
X118000000Y-115901451D01*
X118058810Y-115895659D01*
X118115360Y-115878504D01*
X118167477Y-115850647D01*
X118213158Y-115813158D01*
X118250647Y-115767477D01*
X118278504Y-115715360D01*
X118295659Y-115658810D01*
X118301451Y-115600000D01*
X118301451Y-114400000D01*
X118295659Y-114341190D01*
X118278504Y-114284640D01*
X118250647Y-114232523D01*
X118213158Y-114186842D01*
X118167477Y-114149353D01*
X118115360Y-114121496D01*
X118058810Y-114104341D01*
X118000000Y-114098549D01*
X116000000Y-114098549D01*
X115941190Y-114104341D01*
X115884640Y-114121496D01*
X115832523Y-114149353D01*
X115786842Y-114186842D01*
X115749353Y-114232523D01*
X115721496Y-114284640D01*
X115704341Y-114341190D01*
X115698549Y-114400000D01*
X102427552Y-114400000D01*
X102463099Y-114314182D01*
X102490000Y-114178944D01*
X102490000Y-114041056D01*
X102485020Y-114016020D01*
X102834758Y-113666282D01*
X118750000Y-113666282D01*
X118750000Y-113833718D01*
X118782665Y-113997936D01*
X118846740Y-114152626D01*
X118939762Y-114291844D01*
X119058156Y-114410238D01*
X119197374Y-114503260D01*
X119352064Y-114567335D01*
X119516282Y-114600000D01*
X119683718Y-114600000D01*
X119847936Y-114567335D01*
X120002626Y-114503260D01*
X120141844Y-114410238D01*
X120260238Y-114291844D01*
X120353260Y-114152626D01*
X120417335Y-113997936D01*
X120450000Y-113833718D01*
X120450000Y-113666282D01*
X120417335Y-113502064D01*
X120353260Y-113347374D01*
X120260238Y-113208156D01*
X120141844Y-113089762D01*
X120002626Y-112996740D01*
X119847936Y-112932665D01*
X119683718Y-112900000D01*
X119516282Y-112900000D01*
X119352064Y-112932665D01*
X119197374Y-112996740D01*
X119058156Y-113089762D01*
X118939762Y-113208156D01*
X118846740Y-113347374D01*
X118782665Y-113502064D01*
X118750000Y-113666282D01*
X102834758Y-113666282D01*
X103401040Y-113100000D01*
X115698548Y-113100000D01*
X115704340Y-113158810D01*
X115721495Y-113215361D01*
X115749352Y-113267478D01*
X115786841Y-113313159D01*
X115832522Y-113350648D01*
X115884639Y-113378505D01*
X115941190Y-113395660D01*
X116000000Y-113401452D01*
X116771000Y-113400000D01*
X116846000Y-113325000D01*
X116846000Y-112654000D01*
X117154000Y-112654000D01*
X117154000Y-113325000D01*
X117229000Y-113400000D01*
X118000000Y-113401452D01*
X118058810Y-113395660D01*
X118115361Y-113378505D01*
X118167478Y-113350648D01*
X118213159Y-113313159D01*
X118250648Y-113267478D01*
X118278505Y-113215361D01*
X118295660Y-113158810D01*
X118301452Y-113100000D01*
X118300000Y-112729000D01*
X118225000Y-112654000D01*
X117154000Y-112654000D01*
X116846000Y-112654000D01*
X115775000Y-112654000D01*
X115700000Y-112729000D01*
X115698548Y-113100000D01*
X103401040Y-113100000D01*
X103589338Y-112911702D01*
X103631056Y-112920000D01*
X103768944Y-112920000D01*
X103904182Y-112893099D01*
X104031574Y-112840332D01*
X104146224Y-112763726D01*
X104243726Y-112666224D01*
X104320332Y-112551574D01*
X104373099Y-112424182D01*
X104400000Y-112288944D01*
X104400000Y-112151056D01*
X104373099Y-112015818D01*
X104325127Y-111900000D01*
X115698548Y-111900000D01*
X115700000Y-112271000D01*
X115775000Y-112346000D01*
X116846000Y-112346000D01*
X116846000Y-111675000D01*
X117154000Y-111675000D01*
X117154000Y-112346000D01*
X118225000Y-112346000D01*
X118300000Y-112271000D01*
X118301241Y-111953967D01*
X118398759Y-112065366D01*
X118795510Y-112262914D01*
X119223177Y-112379263D01*
X119665325Y-112409943D01*
X120104963Y-112353775D01*
X120525195Y-112212916D01*
X120801241Y-112065366D01*
X121032920Y-111800709D01*
X119600000Y-110367789D01*
X119585858Y-110381931D01*
X119368069Y-110164142D01*
X119382211Y-110150000D01*
X119817789Y-110150000D01*
X121250709Y-111582920D01*
X121515366Y-111351241D01*
X121712914Y-110954490D01*
X121829263Y-110526823D01*
X121859943Y-110084675D01*
X121803775Y-109645037D01*
X121662916Y-109224805D01*
X121515366Y-108948759D01*
X121250709Y-108717080D01*
X119817789Y-110150000D01*
X119382211Y-110150000D01*
X117949291Y-108717080D01*
X117684634Y-108948759D01*
X117487086Y-109345510D01*
X117370737Y-109773177D01*
X117340057Y-110215325D01*
X117396225Y-110654963D01*
X117537084Y-111075195D01*
X117684634Y-111351241D01*
X117949289Y-111582919D01*
X117933535Y-111598673D01*
X117229000Y-111600000D01*
X117154000Y-111675000D01*
X116846000Y-111675000D01*
X116771000Y-111600000D01*
X116000000Y-111598548D01*
X115941190Y-111604340D01*
X115884639Y-111621495D01*
X115832522Y-111649352D01*
X115786841Y-111686841D01*
X115749352Y-111732522D01*
X115721495Y-111784639D01*
X115704340Y-111841190D01*
X115698548Y-111900000D01*
X104325127Y-111900000D01*
X104320332Y-111888426D01*
X104243726Y-111773776D01*
X104146224Y-111676274D01*
X104031574Y-111599668D01*
X103904182Y-111546901D01*
X103768944Y-111520000D01*
X103631056Y-111520000D01*
X103495818Y-111546901D01*
X103368426Y-111599668D01*
X103253776Y-111676274D01*
X103156274Y-111773776D01*
X103079668Y-111888426D01*
X103026901Y-112015818D01*
X103000000Y-112151056D01*
X103000000Y-112288944D01*
X103001662Y-112297298D01*
X101883980Y-113414980D01*
X101858944Y-113410000D01*
X101721056Y-113410000D01*
X101585818Y-113436901D01*
X101458426Y-113489668D01*
X101343776Y-113566274D01*
X101246274Y-113663776D01*
X101169668Y-113778426D01*
X101116901Y-113905818D01*
X101090000Y-114041056D01*
X76851310Y-114041056D01*
X76851452Y-114000000D01*
X76845660Y-113941190D01*
X76828505Y-113884639D01*
X76800648Y-113832522D01*
X76763159Y-113786841D01*
X76717478Y-113749352D01*
X76665361Y-113721495D01*
X76608810Y-113704340D01*
X76550000Y-113698548D01*
X76004000Y-113700000D01*
X75929000Y-113775000D01*
X75621000Y-113775000D01*
X75546000Y-113700000D01*
X75000000Y-113698548D01*
X74941190Y-113704340D01*
X74884639Y-113721495D01*
X74832522Y-113749352D01*
X74786841Y-113786841D01*
X74749352Y-113832522D01*
X74721495Y-113884639D01*
X74704340Y-113941190D01*
X74698548Y-114000000D01*
X68901452Y-114000000D01*
X68895660Y-113941190D01*
X68878505Y-113884639D01*
X68850648Y-113832522D01*
X68813159Y-113786841D01*
X68767478Y-113749352D01*
X68715361Y-113721495D01*
X68658810Y-113704340D01*
X68600000Y-113698548D01*
X68054000Y-113700000D01*
X67979000Y-113775000D01*
X67671000Y-113775000D01*
X67596000Y-113700000D01*
X67050000Y-113698548D01*
X66991190Y-113704340D01*
X66934639Y-113721495D01*
X66882522Y-113749352D01*
X66836841Y-113786841D01*
X66799352Y-113832522D01*
X66771495Y-113884639D01*
X66754340Y-113941190D01*
X66748548Y-114000000D01*
X64851452Y-114000000D01*
X64845660Y-113941190D01*
X64828505Y-113884639D01*
X64800648Y-113832522D01*
X64763159Y-113786841D01*
X64717478Y-113749352D01*
X64665361Y-113721495D01*
X64608810Y-113704340D01*
X64550000Y-113698548D01*
X64004000Y-113700000D01*
X63929000Y-113775000D01*
X63621000Y-113775000D01*
X63546000Y-113700000D01*
X63000000Y-113698548D01*
X62941190Y-113704340D01*
X62884639Y-113721495D01*
X62832522Y-113749352D01*
X62786841Y-113786841D01*
X62749352Y-113832522D01*
X62721495Y-113884639D01*
X62704340Y-113941190D01*
X62698548Y-114000000D01*
X56901452Y-114000000D01*
X56895660Y-113941190D01*
X56878505Y-113884639D01*
X56850648Y-113832522D01*
X56813159Y-113786841D01*
X56767478Y-113749352D01*
X56715361Y-113721495D01*
X56658810Y-113704340D01*
X56600000Y-113698548D01*
X56054000Y-113700000D01*
X55979000Y-113775000D01*
X55671000Y-113775000D01*
X55596000Y-113700000D01*
X55050000Y-113698548D01*
X54991190Y-113704340D01*
X54934639Y-113721495D01*
X54882522Y-113749352D01*
X54836841Y-113786841D01*
X54799352Y-113832522D01*
X54771495Y-113884639D01*
X54754340Y-113941190D01*
X54748548Y-114000000D01*
X53375000Y-114000000D01*
X53375000Y-109500000D01*
X54748549Y-109500000D01*
X54748549Y-110800000D01*
X54754341Y-110858810D01*
X54771496Y-110915360D01*
X54799353Y-110967477D01*
X54836842Y-111013158D01*
X54882523Y-111050647D01*
X54934640Y-111078504D01*
X54991190Y-111095659D01*
X55050000Y-111101451D01*
X56600000Y-111101451D01*
X56658810Y-111095659D01*
X56715360Y-111078504D01*
X56767477Y-111050647D01*
X56813158Y-111013158D01*
X56850647Y-110967477D01*
X56878504Y-110915360D01*
X56895659Y-110858810D01*
X56901451Y-110800000D01*
X56901451Y-109500000D01*
X62698549Y-109500000D01*
X62698549Y-110800000D01*
X62704341Y-110858810D01*
X62721496Y-110915360D01*
X62749353Y-110967477D01*
X62786842Y-111013158D01*
X62832523Y-111050647D01*
X62884640Y-111078504D01*
X62941190Y-111095659D01*
X63000000Y-111101451D01*
X64550000Y-111101451D01*
X64608810Y-111095659D01*
X64665360Y-111078504D01*
X64717477Y-111050647D01*
X64763158Y-111013158D01*
X64800647Y-110967477D01*
X64828504Y-110915360D01*
X64845659Y-110858810D01*
X64851451Y-110800000D01*
X64851451Y-109500000D01*
X66748549Y-109500000D01*
X66748549Y-110800000D01*
X66754341Y-110858810D01*
X66771496Y-110915360D01*
X66799353Y-110967477D01*
X66836842Y-111013158D01*
X66882523Y-111050647D01*
X66934640Y-111078504D01*
X66991190Y-111095659D01*
X67050000Y-111101451D01*
X68600000Y-111101451D01*
X68658810Y-111095659D01*
X68715360Y-111078504D01*
X68767477Y-111050647D01*
X68813158Y-111013158D01*
X68850647Y-110967477D01*
X68878504Y-110915360D01*
X68895659Y-110858810D01*
X68901451Y-110800000D01*
X68901451Y-109500000D01*
X74698549Y-109500000D01*
X74698549Y-110800000D01*
X74704341Y-110858810D01*
X74721496Y-110915360D01*
X74749353Y-110967477D01*
X74786842Y-111013158D01*
X74832523Y-111050647D01*
X74884640Y-111078504D01*
X74941190Y-111095659D01*
X75000000Y-111101451D01*
X76550000Y-111101451D01*
X76608810Y-111095659D01*
X76665360Y-111078504D01*
X76717477Y-111050647D01*
X76763158Y-111013158D01*
X76800647Y-110967477D01*
X76828504Y-110915360D01*
X76845659Y-110858810D01*
X76851451Y-110800000D01*
X76851451Y-109500000D01*
X76845659Y-109441190D01*
X76828504Y-109384640D01*
X76800647Y-109332523D01*
X76763158Y-109286842D01*
X76717477Y-109249353D01*
X76665360Y-109221496D01*
X76608810Y-109204341D01*
X76550000Y-109198549D01*
X75000000Y-109198549D01*
X74941190Y-109204341D01*
X74884640Y-109221496D01*
X74832523Y-109249353D01*
X74786842Y-109286842D01*
X74749353Y-109332523D01*
X74721496Y-109384640D01*
X74704341Y-109441190D01*
X74698549Y-109500000D01*
X68901451Y-109500000D01*
X68895659Y-109441190D01*
X68878504Y-109384640D01*
X68850647Y-109332523D01*
X68813158Y-109286842D01*
X68767477Y-109249353D01*
X68715360Y-109221496D01*
X68658810Y-109204341D01*
X68600000Y-109198549D01*
X67050000Y-109198549D01*
X66991190Y-109204341D01*
X66934640Y-109221496D01*
X66882523Y-109249353D01*
X66836842Y-109286842D01*
X66799353Y-109332523D01*
X66771496Y-109384640D01*
X66754341Y-109441190D01*
X66748549Y-109500000D01*
X64851451Y-109500000D01*
X64845659Y-109441190D01*
X64828504Y-109384640D01*
X64800647Y-109332523D01*
X64763158Y-109286842D01*
X64717477Y-109249353D01*
X64665360Y-109221496D01*
X64608810Y-109204341D01*
X64550000Y-109198549D01*
X63000000Y-109198549D01*
X62941190Y-109204341D01*
X62884640Y-109221496D01*
X62832523Y-109249353D01*
X62786842Y-109286842D01*
X62749353Y-109332523D01*
X62721496Y-109384640D01*
X62704341Y-109441190D01*
X62698549Y-109500000D01*
X56901451Y-109500000D01*
X56895659Y-109441190D01*
X56878504Y-109384640D01*
X56850647Y-109332523D01*
X56813158Y-109286842D01*
X56767477Y-109249353D01*
X56715360Y-109221496D01*
X56658810Y-109204341D01*
X56600000Y-109198549D01*
X55050000Y-109198549D01*
X54991190Y-109204341D01*
X54934640Y-109221496D01*
X54882523Y-109249353D01*
X54836842Y-109286842D01*
X54799353Y-109332523D01*
X54771496Y-109384640D01*
X54754341Y-109441190D01*
X54748549Y-109500000D01*
X53375000Y-109500000D01*
X53375000Y-108631056D01*
X86800000Y-108631056D01*
X86800000Y-108768944D01*
X86826901Y-108904182D01*
X86879668Y-109031574D01*
X86956274Y-109146224D01*
X87053776Y-109243726D01*
X87075000Y-109257908D01*
X87075001Y-109879124D01*
X87072945Y-109900000D01*
X87081150Y-109983314D01*
X87095633Y-110031056D01*
X87105453Y-110063427D01*
X87144917Y-110137260D01*
X87198027Y-110201974D01*
X87214239Y-110215279D01*
X87754980Y-110756021D01*
X87750000Y-110781056D01*
X87750000Y-110918944D01*
X87776901Y-111054182D01*
X87829668Y-111181574D01*
X87906274Y-111296224D01*
X88003776Y-111393726D01*
X88118426Y-111470332D01*
X88245818Y-111523099D01*
X88381056Y-111550000D01*
X88518944Y-111550000D01*
X88654182Y-111523099D01*
X88781574Y-111470332D01*
X88896224Y-111393726D01*
X88993726Y-111296224D01*
X89070332Y-111181574D01*
X89123099Y-111054182D01*
X89150000Y-110918944D01*
X89150000Y-110781056D01*
X89123099Y-110645818D01*
X89070332Y-110518426D01*
X89011954Y-110431056D01*
X94500000Y-110431056D01*
X94500000Y-110568944D01*
X94526901Y-110704182D01*
X94579668Y-110831574D01*
X94656274Y-110946224D01*
X94753776Y-111043726D01*
X94868426Y-111120332D01*
X94995818Y-111173099D01*
X95131056Y-111200000D01*
X95268944Y-111200000D01*
X95404182Y-111173099D01*
X95531574Y-111120332D01*
X95646224Y-111043726D01*
X95743726Y-110946224D01*
X95820332Y-110831574D01*
X95873099Y-110704182D01*
X95900000Y-110568944D01*
X95900000Y-110431056D01*
X95895020Y-110406020D01*
X96585762Y-109715279D01*
X96601974Y-109701974D01*
X96655084Y-109637260D01*
X96694548Y-109563427D01*
X96718850Y-109483314D01*
X96725000Y-109420874D01*
X96725000Y-109420867D01*
X96727055Y-109400000D01*
X96725000Y-109379133D01*
X96725000Y-108637907D01*
X96746224Y-108623726D01*
X96843726Y-108526224D01*
X96861721Y-108499291D01*
X118167080Y-108499291D01*
X119600000Y-109932211D01*
X121032920Y-108499291D01*
X120801241Y-108234634D01*
X120404490Y-108037086D01*
X119976823Y-107920737D01*
X119534675Y-107890057D01*
X119095037Y-107946225D01*
X118674805Y-108087084D01*
X118398759Y-108234634D01*
X118167080Y-108499291D01*
X96861721Y-108499291D01*
X96920332Y-108411574D01*
X96973099Y-108284182D01*
X97000000Y-108148944D01*
X97000000Y-108011056D01*
X96973099Y-107875818D01*
X96920332Y-107748426D01*
X96843726Y-107633776D01*
X96746224Y-107536274D01*
X96631574Y-107459668D01*
X96504182Y-107406901D01*
X96368944Y-107380000D01*
X96231056Y-107380000D01*
X96095818Y-107406901D01*
X95968426Y-107459668D01*
X95853776Y-107536274D01*
X95756274Y-107633776D01*
X95679668Y-107748426D01*
X95626901Y-107875818D01*
X95600000Y-108011056D01*
X95600000Y-108148944D01*
X95626901Y-108284182D01*
X95679668Y-108411574D01*
X95756274Y-108526224D01*
X95853776Y-108623726D01*
X95875000Y-108637908D01*
X95875001Y-109223958D01*
X95293980Y-109804980D01*
X95268944Y-109800000D01*
X95131056Y-109800000D01*
X94995818Y-109826901D01*
X94868426Y-109879668D01*
X94753776Y-109956274D01*
X94656274Y-110053776D01*
X94579668Y-110168426D01*
X94526901Y-110295818D01*
X94500000Y-110431056D01*
X89011954Y-110431056D01*
X88993726Y-110403776D01*
X88896224Y-110306274D01*
X88781574Y-110229668D01*
X88654182Y-110176901D01*
X88518944Y-110150000D01*
X88381056Y-110150000D01*
X88356021Y-110154980D01*
X87925000Y-109723960D01*
X87925000Y-109257907D01*
X87946224Y-109243726D01*
X88043726Y-109146224D01*
X88120332Y-109031574D01*
X88173099Y-108904182D01*
X88200000Y-108768944D01*
X88200000Y-108631056D01*
X88173099Y-108495818D01*
X88120332Y-108368426D01*
X88043726Y-108253776D01*
X87946224Y-108156274D01*
X87831574Y-108079668D01*
X87704182Y-108026901D01*
X87568944Y-108000000D01*
X87431056Y-108000000D01*
X87295818Y-108026901D01*
X87168426Y-108079668D01*
X87053776Y-108156274D01*
X86956274Y-108253776D01*
X86879668Y-108368426D01*
X86826901Y-108495818D01*
X86800000Y-108631056D01*
X53375000Y-108631056D01*
X53375000Y-107000000D01*
X60748548Y-107000000D01*
X60754340Y-107058810D01*
X60771495Y-107115361D01*
X60799352Y-107167478D01*
X60836841Y-107213159D01*
X60882522Y-107250648D01*
X60934639Y-107278505D01*
X60991190Y-107295660D01*
X61050000Y-107301452D01*
X61596000Y-107300000D01*
X61671000Y-107225000D01*
X61671000Y-106504000D01*
X61979000Y-106504000D01*
X61979000Y-107225000D01*
X62054000Y-107300000D01*
X62600000Y-107301452D01*
X62658810Y-107295660D01*
X62715361Y-107278505D01*
X62767478Y-107250648D01*
X62813159Y-107213159D01*
X62850648Y-107167478D01*
X62878505Y-107115361D01*
X62895660Y-107058810D01*
X62901452Y-107000000D01*
X68698548Y-107000000D01*
X68704340Y-107058810D01*
X68721495Y-107115361D01*
X68749352Y-107167478D01*
X68786841Y-107213159D01*
X68832522Y-107250648D01*
X68884639Y-107278505D01*
X68941190Y-107295660D01*
X69000000Y-107301452D01*
X69546000Y-107300000D01*
X69621000Y-107225000D01*
X69621000Y-106504000D01*
X69929000Y-106504000D01*
X69929000Y-107225000D01*
X70004000Y-107300000D01*
X70550000Y-107301452D01*
X70608810Y-107295660D01*
X70665361Y-107278505D01*
X70717478Y-107250648D01*
X70763159Y-107213159D01*
X70800648Y-107167478D01*
X70828505Y-107115361D01*
X70845660Y-107058810D01*
X70851452Y-107000000D01*
X70850000Y-106579000D01*
X70775000Y-106504000D01*
X69929000Y-106504000D01*
X69621000Y-106504000D01*
X68775000Y-106504000D01*
X68700000Y-106579000D01*
X68698548Y-107000000D01*
X62901452Y-107000000D01*
X62900000Y-106579000D01*
X62825000Y-106504000D01*
X61979000Y-106504000D01*
X61671000Y-106504000D01*
X60825000Y-106504000D01*
X60750000Y-106579000D01*
X60748548Y-107000000D01*
X53375000Y-107000000D01*
X53375000Y-105700000D01*
X60748548Y-105700000D01*
X60750000Y-106121000D01*
X60825000Y-106196000D01*
X61671000Y-106196000D01*
X61671000Y-105475000D01*
X61979000Y-105475000D01*
X61979000Y-106196000D01*
X62825000Y-106196000D01*
X62900000Y-106121000D01*
X62901452Y-105700000D01*
X68698548Y-105700000D01*
X68700000Y-106121000D01*
X68775000Y-106196000D01*
X69621000Y-106196000D01*
X69621000Y-105475000D01*
X69546000Y-105400000D01*
X69000000Y-105398548D01*
X68941190Y-105404340D01*
X68884639Y-105421495D01*
X68832522Y-105449352D01*
X68786841Y-105486841D01*
X68749352Y-105532522D01*
X68721495Y-105584639D01*
X68704340Y-105641190D01*
X68698548Y-105700000D01*
X62901452Y-105700000D01*
X62895660Y-105641190D01*
X62878505Y-105584639D01*
X62850648Y-105532522D01*
X62813159Y-105486841D01*
X62767478Y-105449352D01*
X62715361Y-105421495D01*
X62658810Y-105404340D01*
X62600000Y-105398548D01*
X62054000Y-105400000D01*
X61979000Y-105475000D01*
X61671000Y-105475000D01*
X61596000Y-105400000D01*
X61050000Y-105398548D01*
X60991190Y-105404340D01*
X60934639Y-105421495D01*
X60882522Y-105449352D01*
X60836841Y-105486841D01*
X60799352Y-105532522D01*
X60771495Y-105584639D01*
X60754340Y-105641190D01*
X60748548Y-105700000D01*
X53375000Y-105700000D01*
X53375000Y-101200000D01*
X60748549Y-101200000D01*
X60748549Y-102500000D01*
X60754341Y-102558810D01*
X60771496Y-102615360D01*
X60799353Y-102667477D01*
X60836842Y-102713158D01*
X60882523Y-102750647D01*
X60934640Y-102778504D01*
X60991190Y-102795659D01*
X61050000Y-102801451D01*
X62600000Y-102801451D01*
X62658810Y-102795659D01*
X62715360Y-102778504D01*
X62767477Y-102750647D01*
X62813158Y-102713158D01*
X62850647Y-102667477D01*
X62878504Y-102615360D01*
X62895659Y-102558810D01*
X62901451Y-102500000D01*
X62901451Y-101200000D01*
X62895659Y-101141190D01*
X62878504Y-101084640D01*
X62850647Y-101032523D01*
X62813158Y-100986842D01*
X62767477Y-100949353D01*
X62715360Y-100921496D01*
X62658810Y-100904341D01*
X62600000Y-100898549D01*
X61050000Y-100898549D01*
X60991190Y-100904341D01*
X60934640Y-100921496D01*
X60882523Y-100949353D01*
X60836842Y-100986842D01*
X60799353Y-101032523D01*
X60771496Y-101084640D01*
X60754341Y-101141190D01*
X60748549Y-101200000D01*
X53375000Y-101200000D01*
X53375000Y-97991961D01*
X58560000Y-97991961D01*
X58560000Y-98248039D01*
X58609958Y-98499196D01*
X58620969Y-98525778D01*
X58605000Y-98606056D01*
X58605000Y-98743944D01*
X58631901Y-98879182D01*
X58684668Y-99006574D01*
X58761274Y-99121224D01*
X58858776Y-99218726D01*
X58973426Y-99295332D01*
X59100818Y-99348099D01*
X59236056Y-99375000D01*
X59373944Y-99375000D01*
X59454222Y-99359031D01*
X59480804Y-99370042D01*
X59731961Y-99420000D01*
X59988039Y-99420000D01*
X60239196Y-99370042D01*
X60475781Y-99272045D01*
X60688702Y-99129776D01*
X60725767Y-99092711D01*
X61645078Y-99092711D01*
X61762125Y-99259961D01*
X61996777Y-99362500D01*
X62246924Y-99417291D01*
X62502954Y-99422227D01*
X62755028Y-99377119D01*
X62993458Y-99283701D01*
X63037875Y-99259961D01*
X63154922Y-99092711D01*
X62400000Y-98337789D01*
X61645078Y-99092711D01*
X60725767Y-99092711D01*
X60869776Y-98948702D01*
X61012045Y-98735781D01*
X61110042Y-98499196D01*
X61129606Y-98400842D01*
X61142881Y-98475028D01*
X61236299Y-98713458D01*
X61260039Y-98757875D01*
X61427289Y-98874922D01*
X62182211Y-98120000D01*
X62617789Y-98120000D01*
X63372711Y-98874922D01*
X63539961Y-98757875D01*
X63642500Y-98523223D01*
X63669876Y-98398238D01*
X63689958Y-98499196D01*
X63787955Y-98735781D01*
X63930224Y-98948702D01*
X64111298Y-99129776D01*
X64324219Y-99272045D01*
X64515001Y-99351070D01*
X64515001Y-99513337D01*
X64512945Y-99534213D01*
X64521150Y-99617527D01*
X64540001Y-99679668D01*
X64545453Y-99697640D01*
X64584917Y-99771473D01*
X64638027Y-99836187D01*
X64654239Y-99849492D01*
X70190508Y-105385762D01*
X70201761Y-105399474D01*
X70004000Y-105400000D01*
X69929000Y-105475000D01*
X69929000Y-106196000D01*
X70775000Y-106196000D01*
X70850000Y-106121000D01*
X70851452Y-105700000D01*
X70845660Y-105641190D01*
X70828505Y-105584639D01*
X70800648Y-105532522D01*
X70794475Y-105525000D01*
X72242093Y-105525000D01*
X72256274Y-105546224D01*
X72353776Y-105643726D01*
X72468426Y-105720332D01*
X72595818Y-105773099D01*
X72731056Y-105800000D01*
X72868944Y-105800000D01*
X73004182Y-105773099D01*
X73131574Y-105720332D01*
X73246224Y-105643726D01*
X73343726Y-105546224D01*
X73420332Y-105431574D01*
X73473099Y-105304182D01*
X73500000Y-105168944D01*
X73500000Y-105031056D01*
X73473099Y-104895818D01*
X73420332Y-104768426D01*
X73343726Y-104653776D01*
X73246224Y-104556274D01*
X73131574Y-104479668D01*
X73004182Y-104426901D01*
X72868944Y-104400000D01*
X72731056Y-104400000D01*
X72595818Y-104426901D01*
X72468426Y-104479668D01*
X72353776Y-104556274D01*
X72256274Y-104653776D01*
X72242093Y-104675000D01*
X70681828Y-104675000D01*
X65365000Y-99358173D01*
X65365000Y-99351069D01*
X65555781Y-99272045D01*
X65768702Y-99129776D01*
X65949776Y-98948702D01*
X66092045Y-98735781D01*
X66190042Y-98499196D01*
X66210000Y-98398860D01*
X66229958Y-98499196D01*
X66327955Y-98735781D01*
X66470224Y-98948702D01*
X66651298Y-99129776D01*
X66864219Y-99272045D01*
X67100804Y-99370042D01*
X67351961Y-99420000D01*
X67608039Y-99420000D01*
X67859196Y-99370042D01*
X68049977Y-99291018D01*
X69657508Y-100898549D01*
X69000000Y-100898549D01*
X68941190Y-100904341D01*
X68884640Y-100921496D01*
X68832523Y-100949353D01*
X68786842Y-100986842D01*
X68749353Y-101032523D01*
X68721496Y-101084640D01*
X68704341Y-101141190D01*
X68698549Y-101200000D01*
X68698549Y-102500000D01*
X68704341Y-102558810D01*
X68721496Y-102615360D01*
X68749353Y-102667477D01*
X68786842Y-102713158D01*
X68832523Y-102750647D01*
X68884640Y-102778504D01*
X68941190Y-102795659D01*
X69000000Y-102801451D01*
X70550000Y-102801451D01*
X70608810Y-102795659D01*
X70665360Y-102778504D01*
X70717477Y-102750647D01*
X70763158Y-102713158D01*
X70800647Y-102667477D01*
X70828504Y-102615360D01*
X70845659Y-102558810D01*
X70851451Y-102500000D01*
X70851451Y-101299999D01*
X73598959Y-101299999D01*
X74304980Y-102006021D01*
X74300000Y-102031056D01*
X74300000Y-102168944D01*
X74326901Y-102304182D01*
X74379668Y-102431574D01*
X74456274Y-102546224D01*
X74553776Y-102643726D01*
X74668426Y-102720332D01*
X74795818Y-102773099D01*
X74931056Y-102800000D01*
X75068944Y-102800000D01*
X75204182Y-102773099D01*
X75331574Y-102720332D01*
X75446224Y-102643726D01*
X75543726Y-102546224D01*
X75620332Y-102431574D01*
X75673099Y-102304182D01*
X75700000Y-102168944D01*
X75700000Y-102031056D01*
X75673099Y-101895818D01*
X75620332Y-101768426D01*
X75595363Y-101731056D01*
X97200000Y-101731056D01*
X97200000Y-101868944D01*
X97226901Y-102004182D01*
X97279668Y-102131574D01*
X97356274Y-102246224D01*
X97453776Y-102343726D01*
X97568426Y-102420332D01*
X97640052Y-102450000D01*
X97568426Y-102479668D01*
X97453776Y-102556274D01*
X97356274Y-102653776D01*
X97279668Y-102768426D01*
X97226901Y-102895818D01*
X97200000Y-103031056D01*
X97200000Y-103168944D01*
X97226901Y-103304182D01*
X97279668Y-103431574D01*
X97356274Y-103546224D01*
X97453776Y-103643726D01*
X97568426Y-103720332D01*
X97695818Y-103773099D01*
X97831056Y-103800000D01*
X97968944Y-103800000D01*
X98104182Y-103773099D01*
X98231574Y-103720332D01*
X98346224Y-103643726D01*
X98443726Y-103546224D01*
X98457907Y-103525000D01*
X101723960Y-103525000D01*
X102304980Y-104106021D01*
X102300000Y-104131056D01*
X102300000Y-104268944D01*
X102326901Y-104404182D01*
X102379668Y-104531574D01*
X102456274Y-104646224D01*
X102553776Y-104743726D01*
X102668426Y-104820332D01*
X102795818Y-104873099D01*
X102931056Y-104900000D01*
X103068944Y-104900000D01*
X103204182Y-104873099D01*
X103331574Y-104820332D01*
X103446224Y-104743726D01*
X103543726Y-104646224D01*
X103620332Y-104531574D01*
X103673099Y-104404182D01*
X103700000Y-104268944D01*
X103700000Y-104131056D01*
X103673099Y-103995818D01*
X103620332Y-103868426D01*
X103543726Y-103753776D01*
X103446224Y-103656274D01*
X103331574Y-103579668D01*
X103204182Y-103526901D01*
X103068944Y-103500000D01*
X102931056Y-103500000D01*
X102906021Y-103504980D01*
X102215283Y-102814243D01*
X102201974Y-102798026D01*
X102137260Y-102744916D01*
X102063427Y-102705452D01*
X101983314Y-102681150D01*
X101920874Y-102675000D01*
X101920867Y-102675000D01*
X101900000Y-102672945D01*
X101879133Y-102675000D01*
X98457907Y-102675000D01*
X98443726Y-102653776D01*
X98346224Y-102556274D01*
X98231574Y-102479668D01*
X98159948Y-102450000D01*
X98231574Y-102420332D01*
X98346224Y-102343726D01*
X98443726Y-102246224D01*
X98457907Y-102225000D01*
X102423960Y-102225000D01*
X102704980Y-102506020D01*
X102700000Y-102531056D01*
X102700000Y-102668944D01*
X102726901Y-102804182D01*
X102779668Y-102931574D01*
X102856274Y-103046224D01*
X102953776Y-103143726D01*
X103068426Y-103220332D01*
X103195818Y-103273099D01*
X103331056Y-103300000D01*
X103468944Y-103300000D01*
X103604182Y-103273099D01*
X103731574Y-103220332D01*
X103846224Y-103143726D01*
X103943726Y-103046224D01*
X104020332Y-102931574D01*
X104073099Y-102804182D01*
X104100000Y-102668944D01*
X104100000Y-102531056D01*
X104073099Y-102395818D01*
X104020332Y-102268426D01*
X103943726Y-102153776D01*
X103846224Y-102056274D01*
X103731574Y-101979668D01*
X103604182Y-101926901D01*
X103468944Y-101900000D01*
X103331056Y-101900000D01*
X103306020Y-101904980D01*
X102915283Y-101514243D01*
X102901974Y-101498026D01*
X102837260Y-101444916D01*
X102763427Y-101405452D01*
X102683314Y-101381150D01*
X102620874Y-101375000D01*
X102620867Y-101375000D01*
X102600000Y-101372945D01*
X102579133Y-101375000D01*
X98457907Y-101375000D01*
X98443726Y-101353776D01*
X98346224Y-101256274D01*
X98231574Y-101179668D01*
X98104182Y-101126901D01*
X97968944Y-101100000D01*
X97831056Y-101100000D01*
X97695818Y-101126901D01*
X97568426Y-101179668D01*
X97453776Y-101256274D01*
X97356274Y-101353776D01*
X97279668Y-101468426D01*
X97226901Y-101595818D01*
X97200000Y-101731056D01*
X75595363Y-101731056D01*
X75543726Y-101653776D01*
X75446224Y-101556274D01*
X75331574Y-101479668D01*
X75204182Y-101426901D01*
X75068944Y-101400000D01*
X74931056Y-101400000D01*
X74906021Y-101404980D01*
X74090282Y-100589242D01*
X74076973Y-100573025D01*
X74012259Y-100519915D01*
X73938426Y-100480451D01*
X73858313Y-100456149D01*
X73795873Y-100449999D01*
X73795866Y-100449999D01*
X73774999Y-100447944D01*
X73754132Y-100449999D01*
X70411040Y-100449999D01*
X68651018Y-98689977D01*
X68730042Y-98499196D01*
X68750000Y-98398860D01*
X68769958Y-98499196D01*
X68867955Y-98735781D01*
X69010224Y-98948702D01*
X69191298Y-99129776D01*
X69404219Y-99272045D01*
X69640804Y-99370042D01*
X69891961Y-99420000D01*
X70148039Y-99420000D01*
X70399196Y-99370042D01*
X70635781Y-99272045D01*
X70848702Y-99129776D01*
X71029776Y-98948702D01*
X71172045Y-98735781D01*
X71251069Y-98545000D01*
X73343960Y-98545000D01*
X75004980Y-100206020D01*
X75000000Y-100231056D01*
X75000000Y-100368944D01*
X75026901Y-100504182D01*
X75079668Y-100631574D01*
X75156274Y-100746224D01*
X75253776Y-100843726D01*
X75368426Y-100920332D01*
X75495818Y-100973099D01*
X75631056Y-101000000D01*
X75768944Y-101000000D01*
X75904182Y-100973099D01*
X76031574Y-100920332D01*
X76146224Y-100843726D01*
X76243726Y-100746224D01*
X76320332Y-100631574D01*
X76373099Y-100504182D01*
X76400000Y-100368944D01*
X76400000Y-100231056D01*
X76373099Y-100095818D01*
X76320332Y-99968426D01*
X76243726Y-99853776D01*
X76146224Y-99756274D01*
X76031574Y-99679668D01*
X75904182Y-99626901D01*
X75768944Y-99600000D01*
X75631056Y-99600000D01*
X75606020Y-99604980D01*
X73835284Y-97834244D01*
X73821974Y-97818026D01*
X73757260Y-97764916D01*
X73683427Y-97725452D01*
X73603314Y-97701150D01*
X73540874Y-97695000D01*
X73540867Y-97695000D01*
X73520000Y-97692945D01*
X73499133Y-97695000D01*
X71251069Y-97695000D01*
X71172045Y-97504219D01*
X71029776Y-97291298D01*
X70848702Y-97110224D01*
X70635781Y-96967955D01*
X70399196Y-96869958D01*
X70148039Y-96820000D01*
X69891961Y-96820000D01*
X69640804Y-96869958D01*
X69404219Y-96967955D01*
X69191298Y-97110224D01*
X69010224Y-97291298D01*
X68867955Y-97504219D01*
X68769958Y-97740804D01*
X68750000Y-97841140D01*
X68730042Y-97740804D01*
X68632045Y-97504219D01*
X68489776Y-97291298D01*
X68308702Y-97110224D01*
X68095781Y-96967955D01*
X67859196Y-96869958D01*
X67608039Y-96820000D01*
X67351961Y-96820000D01*
X67100804Y-96869958D01*
X66864219Y-96967955D01*
X66651298Y-97110224D01*
X66470224Y-97291298D01*
X66327955Y-97504219D01*
X66229958Y-97740804D01*
X66210000Y-97841140D01*
X66190042Y-97740804D01*
X66092045Y-97504219D01*
X65949776Y-97291298D01*
X65768702Y-97110224D01*
X65555781Y-96967955D01*
X65319196Y-96869958D01*
X65068039Y-96820000D01*
X64811961Y-96820000D01*
X64560804Y-96869958D01*
X64324219Y-96967955D01*
X64111298Y-97110224D01*
X63930224Y-97291298D01*
X63787955Y-97504219D01*
X63689958Y-97740804D01*
X63670394Y-97839158D01*
X63657119Y-97764972D01*
X63563701Y-97526542D01*
X63539961Y-97482125D01*
X63372711Y-97365078D01*
X62617789Y-98120000D01*
X62182211Y-98120000D01*
X61427289Y-97365078D01*
X61260039Y-97482125D01*
X61157500Y-97716777D01*
X61130124Y-97841762D01*
X61110042Y-97740804D01*
X61012045Y-97504219D01*
X60869776Y-97291298D01*
X60725767Y-97147289D01*
X61645078Y-97147289D01*
X62400000Y-97902211D01*
X63154922Y-97147289D01*
X63037875Y-96980039D01*
X62803223Y-96877500D01*
X62553076Y-96822709D01*
X62297046Y-96817773D01*
X62044972Y-96862881D01*
X61806542Y-96956299D01*
X61762125Y-96980039D01*
X61645078Y-97147289D01*
X60725767Y-97147289D01*
X60688702Y-97110224D01*
X60475781Y-96967955D01*
X60239196Y-96869958D01*
X59988039Y-96820000D01*
X59731961Y-96820000D01*
X59480804Y-96869958D01*
X59244219Y-96967955D01*
X59031298Y-97110224D01*
X58850224Y-97291298D01*
X58707955Y-97504219D01*
X58609958Y-97740804D01*
X58560000Y-97991961D01*
X53375000Y-97991961D01*
X53375000Y-96375000D01*
X112625001Y-96375000D01*
X112625000Y-105981581D01*
G37*
%TD.AperFunction*%
M02*
