%FSLAX45Y45*%
G04 Gerber Fmt 4.5, Leading zero omitted, Abs format (unit mm)*
G04 Created by KiCad (PCBNEW (5.1.12)-1) date 2023-03-06 18:56:20*
%MOMM*%
%LPD*%
G01*
G04 APERTURE LIST*
%TA.AperFunction,Profile*%
%ADD10C,0.150000*%
%TD*%
%ADD11C,0.200000*%
%ADD12C,0.300000*%
G04 APERTURE END LIST*
D10*
X11300000Y-9600000D02*
X5300000Y-9600000D01*
X11300000Y-10600000D02*
X11300000Y-9600000D01*
X12300000Y-10600000D02*
X11300000Y-10600000D01*
X12300000Y-12600000D02*
X12300000Y-10600000D01*
X11300000Y-12600000D02*
X12300000Y-12600000D01*
X11300000Y-13600000D02*
X11300000Y-12600000D01*
X5300000Y-13600000D02*
X11300000Y-13600000D01*
X5300000Y-9600000D02*
X5300000Y-13600000D01*
D11*
X5350000Y-9650000D02*
X5390000Y-9690000D01*
X5390000Y-9650000D02*
X5350000Y-9690000D01*
X5350000Y-13510000D02*
X5390000Y-13550000D01*
X5390000Y-13510000D02*
X5350000Y-13550000D01*
X5560000Y-11000000D02*
X5600000Y-11040000D01*
X5600000Y-11000000D02*
X5560000Y-11040000D01*
X5754000Y-12432000D02*
X5794000Y-12472000D01*
X5794000Y-12432000D02*
X5754000Y-12472000D01*
X5810000Y-10900000D02*
X5850000Y-10940000D01*
X5850000Y-10900000D02*
X5810000Y-10940000D01*
X5910500Y-9847500D02*
X5950500Y-9887500D01*
X5950500Y-9847500D02*
X5910500Y-9887500D01*
X5966000Y-9792000D02*
X6006000Y-9832000D01*
X6006000Y-9792000D02*
X5966000Y-9832000D01*
X6040000Y-11200000D02*
X6080000Y-11240000D01*
X6080000Y-11200000D02*
X6040000Y-11240000D01*
X6160000Y-11820000D02*
X6200000Y-11860000D01*
X6200000Y-11820000D02*
X6160000Y-11860000D01*
X6160000Y-12650000D02*
X6200000Y-12690000D01*
X6200000Y-12650000D02*
X6160000Y-12690000D01*
X6169000Y-12871000D02*
X6209000Y-12911000D01*
X6209000Y-12871000D02*
X6169000Y-12911000D01*
X6170000Y-10170000D02*
X6210000Y-10210000D01*
X6210000Y-10170000D02*
X6170000Y-10210000D01*
X6270000Y-10560000D02*
X6310000Y-10600000D01*
X6310000Y-10560000D02*
X6270000Y-10600000D01*
X6340000Y-12090000D02*
X6380000Y-12130000D01*
X6380000Y-12090000D02*
X6340000Y-12130000D01*
X6360000Y-11000000D02*
X6400000Y-11040000D01*
X6400000Y-11000000D02*
X6360000Y-11040000D01*
X6390000Y-12570000D02*
X6430000Y-12610000D01*
X6430000Y-12570000D02*
X6390000Y-12610000D01*
X6456000Y-13174000D02*
X6496000Y-13214000D01*
X6496000Y-13174000D02*
X6456000Y-13214000D01*
X6550000Y-11600000D02*
X6590000Y-11640000D01*
X6590000Y-11600000D02*
X6550000Y-11640000D01*
X6550000Y-12860000D02*
X6590000Y-12900000D01*
X6590000Y-12860000D02*
X6550000Y-12900000D01*
X6560000Y-10400000D02*
X6600000Y-10440000D01*
X6600000Y-10400000D02*
X6560000Y-10440000D01*
X6590000Y-11030000D02*
X6630000Y-11070000D01*
X6630000Y-11030000D02*
X6590000Y-11070000D01*
X6650000Y-11160000D02*
X6690000Y-11200000D01*
X6690000Y-11160000D02*
X6650000Y-11200000D01*
X6725000Y-12562000D02*
X6765000Y-12602000D01*
X6765000Y-12562000D02*
X6725000Y-12602000D01*
X6740000Y-11920000D02*
X6780000Y-11960000D01*
X6780000Y-11920000D02*
X6740000Y-11960000D01*
X6750000Y-10990000D02*
X6790000Y-11030000D01*
X6790000Y-10990000D02*
X6750000Y-11030000D01*
X6960000Y-11820000D02*
X7000000Y-11860000D01*
X7000000Y-11820000D02*
X6960000Y-11860000D01*
X6960000Y-12650000D02*
X7000000Y-12690000D01*
X7000000Y-12650000D02*
X6960000Y-12690000D01*
X6970000Y-10170000D02*
X7010000Y-10210000D01*
X7010000Y-10170000D02*
X6970000Y-10210000D01*
X6980000Y-11450000D02*
X7020000Y-11490000D01*
X7020000Y-11450000D02*
X6980000Y-11490000D01*
X7000000Y-10790000D02*
X7040000Y-10830000D01*
X7040000Y-10790000D02*
X7000000Y-10830000D01*
X7260000Y-10490000D02*
X7300000Y-10530000D01*
X7300000Y-10490000D02*
X7260000Y-10530000D01*
X7260000Y-11090000D02*
X7300000Y-11130000D01*
X7300000Y-11090000D02*
X7260000Y-11130000D01*
X7480000Y-10190000D02*
X7520000Y-10230000D01*
X7520000Y-10190000D02*
X7480000Y-10230000D01*
X7550000Y-10010000D02*
X7590000Y-10050000D01*
X7590000Y-10010000D02*
X7550000Y-10050000D01*
X7560000Y-10990000D02*
X7600000Y-11030000D01*
X7600000Y-10990000D02*
X7560000Y-11030000D01*
X7600000Y-11190000D02*
X7640000Y-11230000D01*
X7640000Y-11190000D02*
X7600000Y-11230000D01*
X7950000Y-12560000D02*
X7990000Y-12600000D01*
X7990000Y-12560000D02*
X7950000Y-12600000D01*
X7980000Y-13180000D02*
X8020000Y-13220000D01*
X8020000Y-13180000D02*
X7980000Y-13220000D01*
X8000000Y-11760000D02*
X8040000Y-11800000D01*
X8040000Y-11760000D02*
X8000000Y-11800000D01*
X8020000Y-12000000D02*
X8060000Y-12040000D01*
X8060000Y-12000000D02*
X8020000Y-12040000D01*
X8250000Y-13220000D02*
X8290000Y-13260000D01*
X8290000Y-13220000D02*
X8250000Y-13260000D01*
X8340000Y-12040000D02*
X8380000Y-12080000D01*
X8380000Y-12040000D02*
X8340000Y-12080000D01*
X8390000Y-11210000D02*
X8430000Y-11250000D01*
X8430000Y-11210000D02*
X8390000Y-11250000D01*
X8430000Y-12230000D02*
X8470000Y-12270000D01*
X8470000Y-12230000D02*
X8430000Y-12270000D01*
X8440000Y-13190000D02*
X8480000Y-13230000D01*
X8480000Y-13190000D02*
X8440000Y-13230000D01*
X8450000Y-12440000D02*
X8490000Y-12480000D01*
X8490000Y-12440000D02*
X8450000Y-12480000D01*
X8450000Y-12710000D02*
X8490000Y-12750000D01*
X8490000Y-12710000D02*
X8450000Y-12750000D01*
X8450000Y-12970000D02*
X8490000Y-13010000D01*
X8490000Y-12970000D02*
X8450000Y-13010000D01*
X8730000Y-10850000D02*
X8770000Y-10890000D01*
X8770000Y-10850000D02*
X8730000Y-10890000D01*
X8820000Y-12570000D02*
X8860000Y-12610000D01*
X8860000Y-12570000D02*
X8820000Y-12610000D01*
X8825000Y-11065000D02*
X8865000Y-11105000D01*
X8865000Y-11065000D02*
X8825000Y-11105000D01*
X9010000Y-11670000D02*
X9050000Y-11710000D01*
X9050000Y-11670000D02*
X9010000Y-11710000D01*
X9060000Y-12500000D02*
X9100000Y-12540000D01*
X9100000Y-12500000D02*
X9060000Y-12540000D01*
X9200000Y-11040000D02*
X9240000Y-11080000D01*
X9240000Y-11040000D02*
X9200000Y-11080000D01*
X9240000Y-11180000D02*
X9280000Y-11220000D01*
X9280000Y-11180000D02*
X9240000Y-11220000D01*
X9320000Y-12420000D02*
X9360000Y-12460000D01*
X9360000Y-12420000D02*
X9320000Y-12460000D01*
X9324000Y-10502000D02*
X9364000Y-10542000D01*
X9364000Y-10502000D02*
X9324000Y-10542000D01*
X9390000Y-10820000D02*
X9430000Y-10860000D01*
X9430000Y-10820000D02*
X9390000Y-10860000D01*
X9430000Y-11270000D02*
X9470000Y-11310000D01*
X9470000Y-11270000D02*
X9430000Y-11310000D01*
X9457000Y-10463000D02*
X9497000Y-10503000D01*
X9497000Y-10463000D02*
X9457000Y-10503000D01*
X9500000Y-11030000D02*
X9540000Y-11070000D01*
X9540000Y-11030000D02*
X9500000Y-11070000D01*
X9500000Y-12350000D02*
X9540000Y-12390000D01*
X9540000Y-12350000D02*
X9500000Y-12390000D01*
X9550000Y-12990000D02*
X9590000Y-13030000D01*
X9590000Y-12990000D02*
X9550000Y-13030000D01*
X9610000Y-10788000D02*
X9650000Y-10828000D01*
X9650000Y-10788000D02*
X9610000Y-10828000D01*
X9630000Y-10670000D02*
X9670000Y-10710000D01*
X9670000Y-10670000D02*
X9630000Y-10710000D01*
X9740000Y-10650000D02*
X9780000Y-10690000D01*
X9780000Y-10650000D02*
X9740000Y-10690000D01*
X9769000Y-11825000D02*
X9809000Y-11865000D01*
X9809000Y-11825000D02*
X9769000Y-11865000D01*
X9770000Y-10160000D02*
X9810000Y-10200000D01*
X9810000Y-10160000D02*
X9770000Y-10200000D01*
X9770000Y-10290000D02*
X9810000Y-10330000D01*
X9810000Y-10290000D02*
X9770000Y-10330000D01*
X9770000Y-11360000D02*
X9810000Y-11400000D01*
X9810000Y-11360000D02*
X9770000Y-11400000D01*
X9770000Y-11460000D02*
X9810000Y-11500000D01*
X9810000Y-11460000D02*
X9770000Y-11500000D01*
X9770000Y-11560000D02*
X9810000Y-11600000D01*
X9810000Y-11560000D02*
X9770000Y-11600000D01*
X9770000Y-12140000D02*
X9810000Y-12180000D01*
X9810000Y-12140000D02*
X9770000Y-12180000D01*
X9770000Y-12400000D02*
X9810000Y-12440000D01*
X9810000Y-12400000D02*
X9770000Y-12440000D01*
X9780000Y-11690000D02*
X9820000Y-11730000D01*
X9820000Y-11690000D02*
X9780000Y-11730000D01*
X9790000Y-12620000D02*
X9830000Y-12660000D01*
X9830000Y-12620000D02*
X9790000Y-12660000D01*
X9800000Y-10470000D02*
X9840000Y-10510000D01*
X9840000Y-10470000D02*
X9800000Y-10510000D01*
X9950000Y-12830000D02*
X9990000Y-12870000D01*
X9990000Y-12830000D02*
X9950000Y-12870000D01*
X9980000Y-10890000D02*
X10020000Y-10930000D01*
X10020000Y-10890000D02*
X9980000Y-10930000D01*
X9980000Y-11010000D02*
X10020000Y-11050000D01*
X10020000Y-11010000D02*
X9980000Y-11050000D01*
X9980000Y-11130000D02*
X10020000Y-11170000D01*
X10020000Y-11130000D02*
X9980000Y-11170000D01*
X9980000Y-11660000D02*
X10020000Y-11700000D01*
X10020000Y-11660000D02*
X9980000Y-11700000D01*
X10010000Y-11860000D02*
X10050000Y-11900000D01*
X10050000Y-11860000D02*
X10010000Y-11900000D01*
X10010000Y-12220000D02*
X10050000Y-12260000D01*
X10050000Y-12220000D02*
X10010000Y-12260000D01*
X10010000Y-12370000D02*
X10050000Y-12410000D01*
X10050000Y-12370000D02*
X10010000Y-12410000D01*
X10030000Y-11390000D02*
X10070000Y-11430000D01*
X10070000Y-11390000D02*
X10030000Y-11430000D01*
X10040000Y-11530000D02*
X10080000Y-11570000D01*
X10080000Y-11530000D02*
X10040000Y-11570000D01*
X10070000Y-12970000D02*
X10110000Y-13010000D01*
X10110000Y-12970000D02*
X10070000Y-13010000D01*
X10150000Y-11880000D02*
X10190000Y-11920000D01*
X10190000Y-11880000D02*
X10150000Y-11920000D01*
X10159000Y-11391000D02*
X10199000Y-11431000D01*
X10199000Y-11391000D02*
X10159000Y-11431000D01*
X10170000Y-12470000D02*
X10210000Y-12510000D01*
X10210000Y-12470000D02*
X10170000Y-12510000D01*
X10190000Y-11630000D02*
X10230000Y-11670000D01*
X10230000Y-11630000D02*
X10190000Y-11670000D01*
X10230000Y-11750000D02*
X10270000Y-11790000D01*
X10270000Y-11750000D02*
X10230000Y-11790000D01*
X10280000Y-10400000D02*
X10320000Y-10440000D01*
X10320000Y-10400000D02*
X10280000Y-10440000D01*
X10320000Y-10240000D02*
X10360000Y-10280000D01*
X10360000Y-10240000D02*
X10320000Y-10280000D01*
X10320000Y-11889000D02*
X10360000Y-11929000D01*
X10360000Y-11889000D02*
X10320000Y-11929000D01*
X10350000Y-11202000D02*
X10390000Y-11242000D01*
X10390000Y-11202000D02*
X10350000Y-11242000D01*
X10350000Y-11310000D02*
X10390000Y-11350000D01*
X10390000Y-11310000D02*
X10350000Y-11350000D01*
X10390000Y-12340000D02*
X10430000Y-12380000D01*
X10430000Y-12340000D02*
X10390000Y-12380000D01*
X10410000Y-12220000D02*
X10450000Y-12260000D01*
X10450000Y-12220000D02*
X10410000Y-12260000D01*
X10416000Y-10862000D02*
X10456000Y-10902000D01*
X10456000Y-10862000D02*
X10416000Y-10902000D01*
X10420000Y-12790000D02*
X10460000Y-12830000D01*
X10460000Y-12790000D02*
X10420000Y-12830000D01*
X10430000Y-12510000D02*
X10470000Y-12550000D01*
X10470000Y-12510000D02*
X10430000Y-12550000D01*
X10512000Y-11058000D02*
X10552000Y-11098000D01*
X10552000Y-11058000D02*
X10512000Y-11098000D01*
X10517000Y-10862000D02*
X10557000Y-10902000D01*
X10557000Y-10862000D02*
X10517000Y-10902000D01*
X10570000Y-12820000D02*
X10610000Y-12860000D01*
X10610000Y-12820000D02*
X10570000Y-12860000D01*
X10575000Y-11176000D02*
X10615000Y-11216000D01*
X10615000Y-11176000D02*
X10575000Y-11216000D01*
X10576000Y-11366000D02*
X10616000Y-11406000D01*
X10616000Y-11366000D02*
X10576000Y-11406000D01*
X10576000Y-11547000D02*
X10616000Y-11587000D01*
X10616000Y-11547000D02*
X10576000Y-11587000D01*
X10579000Y-11734000D02*
X10619000Y-11774000D01*
X10619000Y-11734000D02*
X10579000Y-11774000D01*
X10596499Y-12003501D02*
X10636499Y-12043501D01*
X10636499Y-12003501D02*
X10596499Y-12043501D01*
X10596499Y-12483501D02*
X10636499Y-12523501D01*
X10636499Y-12483501D02*
X10596499Y-12523501D01*
X10611000Y-11058000D02*
X10651000Y-11098000D01*
X10651000Y-11058000D02*
X10611000Y-11098000D01*
X10617000Y-10862000D02*
X10657000Y-10902000D01*
X10657000Y-10862000D02*
X10617000Y-10902000D01*
X10669000Y-13099000D02*
X10709000Y-13139000D01*
X10709000Y-13099000D02*
X10669000Y-13139000D01*
X10693000Y-10795000D02*
X10733000Y-10835000D01*
X10733000Y-10795000D02*
X10693000Y-10835000D01*
X10710000Y-11060000D02*
X10750000Y-11100000D01*
X10750000Y-11060000D02*
X10710000Y-11100000D01*
X10730000Y-12790000D02*
X10770000Y-12830000D01*
X10770000Y-12790000D02*
X10730000Y-12830000D01*
X10793000Y-11117000D02*
X10833000Y-11157000D01*
X10833000Y-11117000D02*
X10793000Y-11157000D01*
X10820000Y-11460000D02*
X10860000Y-11500000D01*
X10860000Y-11460000D02*
X10820000Y-11500000D01*
X10850000Y-12130000D02*
X10890000Y-12170000D01*
X10890000Y-12130000D02*
X10850000Y-12170000D01*
X10851000Y-9882000D02*
X10891000Y-9922000D01*
X10891000Y-9882000D02*
X10851000Y-9922000D01*
X10930000Y-11830000D02*
X10970000Y-11870000D01*
X10970000Y-11830000D02*
X10930000Y-11870000D01*
X10930000Y-11960000D02*
X10970000Y-12000000D01*
X10970000Y-11960000D02*
X10930000Y-12000000D01*
X11071000Y-11116000D02*
X11111000Y-11156000D01*
X11111000Y-11116000D02*
X11071000Y-11156000D01*
X11092000Y-11908000D02*
X11132000Y-11948000D01*
X11132000Y-11908000D02*
X11092000Y-11948000D01*
X11144000Y-11187000D02*
X11184000Y-11227000D01*
X11184000Y-11187000D02*
X11144000Y-11227000D01*
X11200000Y-10530000D02*
X11240000Y-10570000D01*
X11240000Y-10530000D02*
X11200000Y-10570000D01*
X11210000Y-9650000D02*
X11250000Y-9690000D01*
X11250000Y-9650000D02*
X11210000Y-9690000D01*
X11210000Y-12620000D02*
X11250000Y-12660000D01*
X11250000Y-12620000D02*
X11210000Y-12660000D01*
X11210000Y-13510000D02*
X11250000Y-13550000D01*
X11250000Y-13510000D02*
X11210000Y-13550000D01*
X11215000Y-11260000D02*
X11255000Y-11300000D01*
X11255000Y-11260000D02*
X11215000Y-11300000D01*
X11219000Y-11013000D02*
X11259000Y-11053000D01*
X11259000Y-11013000D02*
X11219000Y-11053000D01*
X11235000Y-10792000D02*
X11275000Y-10832000D01*
X11275000Y-10792000D02*
X11235000Y-10832000D01*
X11286000Y-11330000D02*
X11326000Y-11370000D01*
X11326000Y-11330000D02*
X11286000Y-11370000D01*
X11294000Y-11082000D02*
X11334000Y-11122000D01*
X11334000Y-11082000D02*
X11294000Y-11122000D01*
X11300000Y-10660000D02*
X11340000Y-10700000D01*
X11340000Y-10660000D02*
X11300000Y-10700000D01*
X11306000Y-10864000D02*
X11346000Y-10904000D01*
X11346000Y-10864000D02*
X11306000Y-10904000D01*
X11310000Y-12510000D02*
X11350000Y-12550000D01*
X11350000Y-12510000D02*
X11310000Y-12550000D01*
X11357000Y-11401000D02*
X11397000Y-11441000D01*
X11397000Y-11401000D02*
X11357000Y-11441000D01*
X11363000Y-11156000D02*
X11403000Y-11196000D01*
X11403000Y-11156000D02*
X11363000Y-11196000D01*
X11380000Y-10939000D02*
X11420000Y-10979000D01*
X11420000Y-10939000D02*
X11380000Y-10979000D01*
X11429000Y-11474000D02*
X11469000Y-11514000D01*
X11469000Y-11474000D02*
X11429000Y-11514000D01*
X11433000Y-11229000D02*
X11473000Y-11269000D01*
X11473000Y-11229000D02*
X11433000Y-11269000D01*
X11446000Y-11007000D02*
X11486000Y-11047000D01*
X11486000Y-11007000D02*
X11446000Y-11047000D01*
X11503000Y-11548000D02*
X11543000Y-11588000D01*
X11543000Y-11548000D02*
X11503000Y-11588000D01*
X11504000Y-11300000D02*
X11544000Y-11340000D01*
X11544000Y-11300000D02*
X11504000Y-11340000D01*
X11522000Y-11078000D02*
X11562000Y-11118000D01*
X11562000Y-11078000D02*
X11522000Y-11118000D01*
X11580000Y-11930000D02*
X11620000Y-11970000D01*
X11620000Y-11930000D02*
X11580000Y-11970000D01*
X11660000Y-11930000D02*
X11700000Y-11970000D01*
X11700000Y-11930000D02*
X11660000Y-11970000D01*
X11680000Y-11480000D02*
X11720000Y-11520000D01*
X11720000Y-11480000D02*
X11680000Y-11520000D01*
X11680000Y-11680000D02*
X11720000Y-11720000D01*
X11720000Y-11680000D02*
X11680000Y-11720000D01*
X11740000Y-11930000D02*
X11780000Y-11970000D01*
X11780000Y-11930000D02*
X11740000Y-11970000D01*
X12200000Y-12500000D02*
X12240000Y-12540000D01*
X12240000Y-12500000D02*
X12200000Y-12540000D01*
X12210000Y-10650000D02*
X12250000Y-10690000D01*
X12250000Y-10650000D02*
X12210000Y-10690000D01*
X8750000Y-13160000D02*
G75*
G03*
X8750000Y-13160000I-50000J0D01*
G01*
X9004000Y-13160000D02*
G75*
G03*
X9004000Y-13160000I-50000J0D01*
G01*
X9258000Y-13160000D02*
G75*
G03*
X9258000Y-13160000I-50000J0D01*
G01*
X9512000Y-13160000D02*
G75*
G03*
X9512000Y-13160000I-50000J0D01*
G01*
X9766000Y-13160000D02*
G75*
G03*
X9766000Y-13160000I-50000J0D01*
G01*
X10020000Y-13160000D02*
G75*
G03*
X10020000Y-13160000I-50000J0D01*
G01*
X10274000Y-13160000D02*
G75*
G03*
X10274000Y-13160000I-50000J0D01*
G01*
X10528000Y-13160000D02*
G75*
G03*
X10528000Y-13160000I-50000J0D01*
G01*
X11960000Y-10894800D02*
X11960000Y-11135200D01*
X11839800Y-11015000D02*
X12080200Y-11015000D01*
X11960000Y-12064800D02*
X11960000Y-12305200D01*
X11839800Y-12185000D02*
X12080200Y-12185000D01*
D12*
X5578928Y-14073214D02*
X5578928Y-13773214D01*
X5650357Y-13773214D01*
X5693214Y-13787500D01*
X5721786Y-13816071D01*
X5736071Y-13844643D01*
X5750357Y-13901786D01*
X5750357Y-13944643D01*
X5736071Y-14001786D01*
X5721786Y-14030357D01*
X5693214Y-14058929D01*
X5650357Y-14073214D01*
X5578928Y-14073214D01*
X5878928Y-14073214D02*
X5878928Y-13873214D01*
X5878928Y-13930357D02*
X5893214Y-13901786D01*
X5907500Y-13887500D01*
X5936071Y-13873214D01*
X5964643Y-13873214D01*
X6064643Y-14073214D02*
X6064643Y-13873214D01*
X6064643Y-13773214D02*
X6050357Y-13787500D01*
X6064643Y-13801786D01*
X6078928Y-13787500D01*
X6064643Y-13773214D01*
X6064643Y-13801786D01*
X6250357Y-14073214D02*
X6221786Y-14058929D01*
X6207500Y-14030357D01*
X6207500Y-13773214D01*
X6407500Y-14073214D02*
X6378928Y-14058929D01*
X6364643Y-14030357D01*
X6364643Y-13773214D01*
X6750357Y-14073214D02*
X6750357Y-13773214D01*
X6850357Y-13987500D01*
X6950357Y-13773214D01*
X6950357Y-14073214D01*
X7221786Y-14073214D02*
X7221786Y-13916071D01*
X7207500Y-13887500D01*
X7178928Y-13873214D01*
X7121786Y-13873214D01*
X7093214Y-13887500D01*
X7221786Y-14058929D02*
X7193214Y-14073214D01*
X7121786Y-14073214D01*
X7093214Y-14058929D01*
X7078928Y-14030357D01*
X7078928Y-14001786D01*
X7093214Y-13973214D01*
X7121786Y-13958929D01*
X7193214Y-13958929D01*
X7221786Y-13944643D01*
X7364643Y-13873214D02*
X7364643Y-14173214D01*
X7364643Y-13887500D02*
X7393214Y-13873214D01*
X7450357Y-13873214D01*
X7478928Y-13887500D01*
X7493214Y-13901786D01*
X7507500Y-13930357D01*
X7507500Y-14016071D01*
X7493214Y-14044643D01*
X7478928Y-14058929D01*
X7450357Y-14073214D01*
X7393214Y-14073214D01*
X7364643Y-14058929D01*
X7636071Y-14044643D02*
X7650357Y-14058929D01*
X7636071Y-14073214D01*
X7621786Y-14058929D01*
X7636071Y-14044643D01*
X7636071Y-14073214D01*
X7636071Y-13887500D02*
X7650357Y-13901786D01*
X7636071Y-13916071D01*
X7621786Y-13901786D01*
X7636071Y-13887500D01*
X7636071Y-13916071D01*
X5252500Y-14547500D02*
X5292500Y-14587500D01*
X5292500Y-14547500D02*
X5252500Y-14587500D01*
X5636071Y-14403214D02*
X5664643Y-14403214D01*
X5693214Y-14417500D01*
X5707500Y-14431786D01*
X5721786Y-14460357D01*
X5736071Y-14517500D01*
X5736071Y-14588929D01*
X5721786Y-14646071D01*
X5707500Y-14674643D01*
X5693214Y-14688929D01*
X5664643Y-14703214D01*
X5636071Y-14703214D01*
X5607500Y-14688929D01*
X5593214Y-14674643D01*
X5578928Y-14646071D01*
X5564643Y-14588929D01*
X5564643Y-14517500D01*
X5578928Y-14460357D01*
X5593214Y-14431786D01*
X5607500Y-14417500D01*
X5636071Y-14403214D01*
X5864643Y-14674643D02*
X5878928Y-14688929D01*
X5864643Y-14703214D01*
X5850357Y-14688929D01*
X5864643Y-14674643D01*
X5864643Y-14703214D01*
X6136071Y-14503214D02*
X6136071Y-14703214D01*
X6064643Y-14388929D02*
X5993214Y-14603214D01*
X6178928Y-14603214D01*
X6350357Y-14403214D02*
X6378928Y-14403214D01*
X6407500Y-14417500D01*
X6421786Y-14431786D01*
X6436071Y-14460357D01*
X6450357Y-14517500D01*
X6450357Y-14588929D01*
X6436071Y-14646071D01*
X6421786Y-14674643D01*
X6407500Y-14688929D01*
X6378928Y-14703214D01*
X6350357Y-14703214D01*
X6321786Y-14688929D01*
X6307500Y-14674643D01*
X6293214Y-14646071D01*
X6278928Y-14588929D01*
X6278928Y-14517500D01*
X6293214Y-14460357D01*
X6307500Y-14431786D01*
X6321786Y-14417500D01*
X6350357Y-14403214D01*
X6636071Y-14403214D02*
X6664643Y-14403214D01*
X6693214Y-14417500D01*
X6707500Y-14431786D01*
X6721786Y-14460357D01*
X6736071Y-14517500D01*
X6736071Y-14588929D01*
X6721786Y-14646071D01*
X6707500Y-14674643D01*
X6693214Y-14688929D01*
X6664643Y-14703214D01*
X6636071Y-14703214D01*
X6607500Y-14688929D01*
X6593214Y-14674643D01*
X6578928Y-14646071D01*
X6564643Y-14588929D01*
X6564643Y-14517500D01*
X6578928Y-14460357D01*
X6593214Y-14431786D01*
X6607500Y-14417500D01*
X6636071Y-14403214D01*
X6864643Y-14703214D02*
X6864643Y-14503214D01*
X6864643Y-14531786D02*
X6878928Y-14517500D01*
X6907500Y-14503214D01*
X6950357Y-14503214D01*
X6978928Y-14517500D01*
X6993214Y-14546071D01*
X6993214Y-14703214D01*
X6993214Y-14546071D02*
X7007500Y-14517500D01*
X7036071Y-14503214D01*
X7078928Y-14503214D01*
X7107500Y-14517500D01*
X7121786Y-14546071D01*
X7121786Y-14703214D01*
X7264643Y-14703214D02*
X7264643Y-14503214D01*
X7264643Y-14531786D02*
X7278928Y-14517500D01*
X7307500Y-14503214D01*
X7350357Y-14503214D01*
X7378928Y-14517500D01*
X7393214Y-14546071D01*
X7393214Y-14703214D01*
X7393214Y-14546071D02*
X7407500Y-14517500D01*
X7436071Y-14503214D01*
X7478928Y-14503214D01*
X7507500Y-14517500D01*
X7521786Y-14546071D01*
X7521786Y-14703214D01*
X8107500Y-14388929D02*
X7850357Y-14774643D01*
X8493214Y-14403214D02*
X8521786Y-14403214D01*
X8550357Y-14417500D01*
X8564643Y-14431786D01*
X8578928Y-14460357D01*
X8593214Y-14517500D01*
X8593214Y-14588929D01*
X8578928Y-14646071D01*
X8564643Y-14674643D01*
X8550357Y-14688929D01*
X8521786Y-14703214D01*
X8493214Y-14703214D01*
X8464643Y-14688929D01*
X8450357Y-14674643D01*
X8436071Y-14646071D01*
X8421786Y-14588929D01*
X8421786Y-14517500D01*
X8436071Y-14460357D01*
X8450357Y-14431786D01*
X8464643Y-14417500D01*
X8493214Y-14403214D01*
X8721786Y-14674643D02*
X8736071Y-14688929D01*
X8721786Y-14703214D01*
X8707500Y-14688929D01*
X8721786Y-14674643D01*
X8721786Y-14703214D01*
X8921786Y-14403214D02*
X8950357Y-14403214D01*
X8978928Y-14417500D01*
X8993214Y-14431786D01*
X9007500Y-14460357D01*
X9021786Y-14517500D01*
X9021786Y-14588929D01*
X9007500Y-14646071D01*
X8993214Y-14674643D01*
X8978928Y-14688929D01*
X8950357Y-14703214D01*
X8921786Y-14703214D01*
X8893214Y-14688929D01*
X8878928Y-14674643D01*
X8864643Y-14646071D01*
X8850357Y-14588929D01*
X8850357Y-14517500D01*
X8864643Y-14460357D01*
X8878928Y-14431786D01*
X8893214Y-14417500D01*
X8921786Y-14403214D01*
X9307500Y-14703214D02*
X9136071Y-14703214D01*
X9221786Y-14703214D02*
X9221786Y-14403214D01*
X9193214Y-14446071D01*
X9164643Y-14474643D01*
X9136071Y-14488929D01*
X9578928Y-14403214D02*
X9436071Y-14403214D01*
X9421786Y-14546071D01*
X9436071Y-14531786D01*
X9464643Y-14517500D01*
X9536071Y-14517500D01*
X9564643Y-14531786D01*
X9578928Y-14546071D01*
X9593214Y-14574643D01*
X9593214Y-14646071D01*
X9578928Y-14674643D01*
X9564643Y-14688929D01*
X9536071Y-14703214D01*
X9464643Y-14703214D01*
X9436071Y-14688929D01*
X9421786Y-14674643D01*
X9693214Y-14403214D02*
X9893214Y-14403214D01*
X9764643Y-14703214D01*
X9993214Y-14403214D02*
X9993214Y-14460357D01*
X10107500Y-14403214D02*
X10107500Y-14460357D01*
X10550357Y-14817500D02*
X10536071Y-14803214D01*
X10507500Y-14760357D01*
X10493214Y-14731786D01*
X10478928Y-14688929D01*
X10464643Y-14617500D01*
X10464643Y-14560357D01*
X10478928Y-14488929D01*
X10493214Y-14446071D01*
X10507500Y-14417500D01*
X10536071Y-14374643D01*
X10550357Y-14360357D01*
X10821786Y-14703214D02*
X10650357Y-14703214D01*
X10736071Y-14703214D02*
X10736071Y-14403214D01*
X10707500Y-14446071D01*
X10678928Y-14474643D01*
X10650357Y-14488929D01*
X11093214Y-14403214D02*
X10950357Y-14403214D01*
X10936071Y-14546071D01*
X10950357Y-14531786D01*
X10978928Y-14517500D01*
X11050357Y-14517500D01*
X11078928Y-14531786D01*
X11093214Y-14546071D01*
X11107500Y-14574643D01*
X11107500Y-14646071D01*
X11093214Y-14674643D01*
X11078928Y-14688929D01*
X11050357Y-14703214D01*
X10978928Y-14703214D01*
X10950357Y-14688929D01*
X10936071Y-14674643D01*
X11378928Y-14403214D02*
X11236071Y-14403214D01*
X11221786Y-14546071D01*
X11236071Y-14531786D01*
X11264643Y-14517500D01*
X11336071Y-14517500D01*
X11364643Y-14531786D01*
X11378928Y-14546071D01*
X11393214Y-14574643D01*
X11393214Y-14646071D01*
X11378928Y-14674643D01*
X11364643Y-14688929D01*
X11336071Y-14703214D01*
X11264643Y-14703214D01*
X11236071Y-14688929D01*
X11221786Y-14674643D01*
X11750357Y-14703214D02*
X11750357Y-14403214D01*
X11878928Y-14703214D02*
X11878928Y-14546071D01*
X11864643Y-14517500D01*
X11836071Y-14503214D01*
X11793214Y-14503214D01*
X11764643Y-14517500D01*
X11750357Y-14531786D01*
X12064643Y-14703214D02*
X12036071Y-14688929D01*
X12021786Y-14674643D01*
X12007500Y-14646071D01*
X12007500Y-14560357D01*
X12021786Y-14531786D01*
X12036071Y-14517500D01*
X12064643Y-14503214D01*
X12107500Y-14503214D01*
X12136071Y-14517500D01*
X12150357Y-14531786D01*
X12164643Y-14560357D01*
X12164643Y-14646071D01*
X12150357Y-14674643D01*
X12136071Y-14688929D01*
X12107500Y-14703214D01*
X12064643Y-14703214D01*
X12336071Y-14703214D02*
X12307500Y-14688929D01*
X12293214Y-14660357D01*
X12293214Y-14403214D01*
X12564643Y-14688929D02*
X12536071Y-14703214D01*
X12478928Y-14703214D01*
X12450357Y-14688929D01*
X12436071Y-14660357D01*
X12436071Y-14546071D01*
X12450357Y-14517500D01*
X12478928Y-14503214D01*
X12536071Y-14503214D01*
X12564643Y-14517500D01*
X12578928Y-14546071D01*
X12578928Y-14574643D01*
X12436071Y-14603214D01*
X12693214Y-14688929D02*
X12721786Y-14703214D01*
X12778928Y-14703214D01*
X12807500Y-14688929D01*
X12821786Y-14660357D01*
X12821786Y-14646071D01*
X12807500Y-14617500D01*
X12778928Y-14603214D01*
X12736071Y-14603214D01*
X12707500Y-14588929D01*
X12693214Y-14560357D01*
X12693214Y-14546071D01*
X12707500Y-14517500D01*
X12736071Y-14503214D01*
X12778928Y-14503214D01*
X12807500Y-14517500D01*
X12921786Y-14817500D02*
X12936071Y-14803214D01*
X12964643Y-14760357D01*
X12978928Y-14731786D01*
X12993214Y-14688929D01*
X13007500Y-14617500D01*
X13007500Y-14560357D01*
X12993214Y-14488929D01*
X12978928Y-14446071D01*
X12964643Y-14417500D01*
X12936071Y-14374643D01*
X12921786Y-14360357D01*
X5292500Y-14963500D02*
G75*
G03*
X5292500Y-14963500I-50000J0D01*
G01*
X5736071Y-15099214D02*
X5564643Y-15099214D01*
X5650357Y-15099214D02*
X5650357Y-14799214D01*
X5621786Y-14842071D01*
X5593214Y-14870643D01*
X5564643Y-14884929D01*
X5864643Y-15070643D02*
X5878928Y-15084929D01*
X5864643Y-15099214D01*
X5850357Y-15084929D01*
X5864643Y-15070643D01*
X5864643Y-15099214D01*
X6064643Y-14799214D02*
X6093214Y-14799214D01*
X6121786Y-14813500D01*
X6136071Y-14827786D01*
X6150357Y-14856357D01*
X6164643Y-14913500D01*
X6164643Y-14984929D01*
X6150357Y-15042071D01*
X6136071Y-15070643D01*
X6121786Y-15084929D01*
X6093214Y-15099214D01*
X6064643Y-15099214D01*
X6036071Y-15084929D01*
X6021786Y-15070643D01*
X6007500Y-15042071D01*
X5993214Y-14984929D01*
X5993214Y-14913500D01*
X6007500Y-14856357D01*
X6021786Y-14827786D01*
X6036071Y-14813500D01*
X6064643Y-14799214D01*
X6350357Y-14799214D02*
X6378928Y-14799214D01*
X6407500Y-14813500D01*
X6421786Y-14827786D01*
X6436071Y-14856357D01*
X6450357Y-14913500D01*
X6450357Y-14984929D01*
X6436071Y-15042071D01*
X6421786Y-15070643D01*
X6407500Y-15084929D01*
X6378928Y-15099214D01*
X6350357Y-15099214D01*
X6321786Y-15084929D01*
X6307500Y-15070643D01*
X6293214Y-15042071D01*
X6278928Y-14984929D01*
X6278928Y-14913500D01*
X6293214Y-14856357D01*
X6307500Y-14827786D01*
X6321786Y-14813500D01*
X6350357Y-14799214D01*
X6636071Y-14799214D02*
X6664643Y-14799214D01*
X6693214Y-14813500D01*
X6707500Y-14827786D01*
X6721786Y-14856357D01*
X6736071Y-14913500D01*
X6736071Y-14984929D01*
X6721786Y-15042071D01*
X6707500Y-15070643D01*
X6693214Y-15084929D01*
X6664643Y-15099214D01*
X6636071Y-15099214D01*
X6607500Y-15084929D01*
X6593214Y-15070643D01*
X6578928Y-15042071D01*
X6564643Y-14984929D01*
X6564643Y-14913500D01*
X6578928Y-14856357D01*
X6593214Y-14827786D01*
X6607500Y-14813500D01*
X6636071Y-14799214D01*
X6864643Y-15099214D02*
X6864643Y-14899214D01*
X6864643Y-14927786D02*
X6878928Y-14913500D01*
X6907500Y-14899214D01*
X6950357Y-14899214D01*
X6978928Y-14913500D01*
X6993214Y-14942071D01*
X6993214Y-15099214D01*
X6993214Y-14942071D02*
X7007500Y-14913500D01*
X7036071Y-14899214D01*
X7078928Y-14899214D01*
X7107500Y-14913500D01*
X7121786Y-14942071D01*
X7121786Y-15099214D01*
X7264643Y-15099214D02*
X7264643Y-14899214D01*
X7264643Y-14927786D02*
X7278928Y-14913500D01*
X7307500Y-14899214D01*
X7350357Y-14899214D01*
X7378928Y-14913500D01*
X7393214Y-14942071D01*
X7393214Y-15099214D01*
X7393214Y-14942071D02*
X7407500Y-14913500D01*
X7436071Y-14899214D01*
X7478928Y-14899214D01*
X7507500Y-14913500D01*
X7521786Y-14942071D01*
X7521786Y-15099214D01*
X8107500Y-14784929D02*
X7850357Y-15170643D01*
X8493214Y-14799214D02*
X8521786Y-14799214D01*
X8550357Y-14813500D01*
X8564643Y-14827786D01*
X8578928Y-14856357D01*
X8593214Y-14913500D01*
X8593214Y-14984929D01*
X8578928Y-15042071D01*
X8564643Y-15070643D01*
X8550357Y-15084929D01*
X8521786Y-15099214D01*
X8493214Y-15099214D01*
X8464643Y-15084929D01*
X8450357Y-15070643D01*
X8436071Y-15042071D01*
X8421786Y-14984929D01*
X8421786Y-14913500D01*
X8436071Y-14856357D01*
X8450357Y-14827786D01*
X8464643Y-14813500D01*
X8493214Y-14799214D01*
X8721786Y-15070643D02*
X8736071Y-15084929D01*
X8721786Y-15099214D01*
X8707500Y-15084929D01*
X8721786Y-15070643D01*
X8721786Y-15099214D01*
X8921786Y-14799214D02*
X8950357Y-14799214D01*
X8978928Y-14813500D01*
X8993214Y-14827786D01*
X9007500Y-14856357D01*
X9021786Y-14913500D01*
X9021786Y-14984929D01*
X9007500Y-15042071D01*
X8993214Y-15070643D01*
X8978928Y-15084929D01*
X8950357Y-15099214D01*
X8921786Y-15099214D01*
X8893214Y-15084929D01*
X8878928Y-15070643D01*
X8864643Y-15042071D01*
X8850357Y-14984929D01*
X8850357Y-14913500D01*
X8864643Y-14856357D01*
X8878928Y-14827786D01*
X8893214Y-14813500D01*
X8921786Y-14799214D01*
X9121786Y-14799214D02*
X9307500Y-14799214D01*
X9207500Y-14913500D01*
X9250357Y-14913500D01*
X9278928Y-14927786D01*
X9293214Y-14942071D01*
X9307500Y-14970643D01*
X9307500Y-15042071D01*
X9293214Y-15070643D01*
X9278928Y-15084929D01*
X9250357Y-15099214D01*
X9164643Y-15099214D01*
X9136071Y-15084929D01*
X9121786Y-15070643D01*
X9450357Y-15099214D02*
X9507500Y-15099214D01*
X9536071Y-15084929D01*
X9550357Y-15070643D01*
X9578928Y-15027786D01*
X9593214Y-14970643D01*
X9593214Y-14856357D01*
X9578928Y-14827786D01*
X9564643Y-14813500D01*
X9536071Y-14799214D01*
X9478928Y-14799214D01*
X9450357Y-14813500D01*
X9436071Y-14827786D01*
X9421786Y-14856357D01*
X9421786Y-14927786D01*
X9436071Y-14956357D01*
X9450357Y-14970643D01*
X9478928Y-14984929D01*
X9536071Y-14984929D01*
X9564643Y-14970643D01*
X9578928Y-14956357D01*
X9593214Y-14927786D01*
X9850357Y-14899214D02*
X9850357Y-15099214D01*
X9778928Y-14784929D02*
X9707500Y-14999214D01*
X9893214Y-14999214D01*
X9993214Y-14799214D02*
X9993214Y-14856357D01*
X10107500Y-14799214D02*
X10107500Y-14856357D01*
X10550357Y-15213500D02*
X10536071Y-15199214D01*
X10507500Y-15156357D01*
X10493214Y-15127786D01*
X10478928Y-15084929D01*
X10464643Y-15013500D01*
X10464643Y-14956357D01*
X10478928Y-14884929D01*
X10493214Y-14842071D01*
X10507500Y-14813500D01*
X10536071Y-14770643D01*
X10550357Y-14756357D01*
X10707500Y-14927786D02*
X10678928Y-14913500D01*
X10664643Y-14899214D01*
X10650357Y-14870643D01*
X10650357Y-14856357D01*
X10664643Y-14827786D01*
X10678928Y-14813500D01*
X10707500Y-14799214D01*
X10764643Y-14799214D01*
X10793214Y-14813500D01*
X10807500Y-14827786D01*
X10821786Y-14856357D01*
X10821786Y-14870643D01*
X10807500Y-14899214D01*
X10793214Y-14913500D01*
X10764643Y-14927786D01*
X10707500Y-14927786D01*
X10678928Y-14942071D01*
X10664643Y-14956357D01*
X10650357Y-14984929D01*
X10650357Y-15042071D01*
X10664643Y-15070643D01*
X10678928Y-15084929D01*
X10707500Y-15099214D01*
X10764643Y-15099214D01*
X10793214Y-15084929D01*
X10807500Y-15070643D01*
X10821786Y-15042071D01*
X10821786Y-14984929D01*
X10807500Y-14956357D01*
X10793214Y-14942071D01*
X10764643Y-14927786D01*
X11178928Y-15099214D02*
X11178928Y-14799214D01*
X11307500Y-15099214D02*
X11307500Y-14942071D01*
X11293214Y-14913500D01*
X11264643Y-14899214D01*
X11221786Y-14899214D01*
X11193214Y-14913500D01*
X11178928Y-14927786D01*
X11493214Y-15099214D02*
X11464643Y-15084929D01*
X11450357Y-15070643D01*
X11436071Y-15042071D01*
X11436071Y-14956357D01*
X11450357Y-14927786D01*
X11464643Y-14913500D01*
X11493214Y-14899214D01*
X11536071Y-14899214D01*
X11564643Y-14913500D01*
X11578928Y-14927786D01*
X11593214Y-14956357D01*
X11593214Y-15042071D01*
X11578928Y-15070643D01*
X11564643Y-15084929D01*
X11536071Y-15099214D01*
X11493214Y-15099214D01*
X11764643Y-15099214D02*
X11736071Y-15084929D01*
X11721786Y-15056357D01*
X11721786Y-14799214D01*
X11993214Y-15084929D02*
X11964643Y-15099214D01*
X11907500Y-15099214D01*
X11878928Y-15084929D01*
X11864643Y-15056357D01*
X11864643Y-14942071D01*
X11878928Y-14913500D01*
X11907500Y-14899214D01*
X11964643Y-14899214D01*
X11993214Y-14913500D01*
X12007500Y-14942071D01*
X12007500Y-14970643D01*
X11864643Y-14999214D01*
X12121786Y-15084929D02*
X12150357Y-15099214D01*
X12207500Y-15099214D01*
X12236071Y-15084929D01*
X12250357Y-15056357D01*
X12250357Y-15042071D01*
X12236071Y-15013500D01*
X12207500Y-14999214D01*
X12164643Y-14999214D01*
X12136071Y-14984929D01*
X12121786Y-14956357D01*
X12121786Y-14942071D01*
X12136071Y-14913500D01*
X12164643Y-14899214D01*
X12207500Y-14899214D01*
X12236071Y-14913500D01*
X12350357Y-15213500D02*
X12364643Y-15199214D01*
X12393214Y-15156357D01*
X12407500Y-15127786D01*
X12421786Y-15084929D01*
X12436071Y-15013500D01*
X12436071Y-14956357D01*
X12421786Y-14884929D01*
X12407500Y-14842071D01*
X12393214Y-14813500D01*
X12364643Y-14770643D01*
X12350357Y-14756357D01*
X5172300Y-15239300D02*
X5172300Y-15479700D01*
X5052100Y-15359500D02*
X5292500Y-15359500D01*
X5564643Y-15223786D02*
X5578928Y-15209500D01*
X5607500Y-15195214D01*
X5678928Y-15195214D01*
X5707500Y-15209500D01*
X5721786Y-15223786D01*
X5736071Y-15252357D01*
X5736071Y-15280929D01*
X5721786Y-15323786D01*
X5550357Y-15495214D01*
X5736071Y-15495214D01*
X5864643Y-15466643D02*
X5878928Y-15480929D01*
X5864643Y-15495214D01*
X5850357Y-15480929D01*
X5864643Y-15466643D01*
X5864643Y-15495214D01*
X6136071Y-15295214D02*
X6136071Y-15495214D01*
X6064643Y-15180929D02*
X5993214Y-15395214D01*
X6178928Y-15395214D01*
X6350357Y-15195214D02*
X6378928Y-15195214D01*
X6407500Y-15209500D01*
X6421786Y-15223786D01*
X6436071Y-15252357D01*
X6450357Y-15309500D01*
X6450357Y-15380929D01*
X6436071Y-15438071D01*
X6421786Y-15466643D01*
X6407500Y-15480929D01*
X6378928Y-15495214D01*
X6350357Y-15495214D01*
X6321786Y-15480929D01*
X6307500Y-15466643D01*
X6293214Y-15438071D01*
X6278928Y-15380929D01*
X6278928Y-15309500D01*
X6293214Y-15252357D01*
X6307500Y-15223786D01*
X6321786Y-15209500D01*
X6350357Y-15195214D01*
X6707500Y-15295214D02*
X6707500Y-15495214D01*
X6636071Y-15180929D02*
X6564643Y-15395214D01*
X6750357Y-15395214D01*
X6864643Y-15495214D02*
X6864643Y-15295214D01*
X6864643Y-15323786D02*
X6878928Y-15309500D01*
X6907500Y-15295214D01*
X6950357Y-15295214D01*
X6978928Y-15309500D01*
X6993214Y-15338071D01*
X6993214Y-15495214D01*
X6993214Y-15338071D02*
X7007500Y-15309500D01*
X7036071Y-15295214D01*
X7078928Y-15295214D01*
X7107500Y-15309500D01*
X7121786Y-15338071D01*
X7121786Y-15495214D01*
X7264643Y-15495214D02*
X7264643Y-15295214D01*
X7264643Y-15323786D02*
X7278928Y-15309500D01*
X7307500Y-15295214D01*
X7350357Y-15295214D01*
X7378928Y-15309500D01*
X7393214Y-15338071D01*
X7393214Y-15495214D01*
X7393214Y-15338071D02*
X7407500Y-15309500D01*
X7436071Y-15295214D01*
X7478928Y-15295214D01*
X7507500Y-15309500D01*
X7521786Y-15338071D01*
X7521786Y-15495214D01*
X8107500Y-15180929D02*
X7850357Y-15566643D01*
X8493214Y-15195214D02*
X8521786Y-15195214D01*
X8550357Y-15209500D01*
X8564643Y-15223786D01*
X8578928Y-15252357D01*
X8593214Y-15309500D01*
X8593214Y-15380929D01*
X8578928Y-15438071D01*
X8564643Y-15466643D01*
X8550357Y-15480929D01*
X8521786Y-15495214D01*
X8493214Y-15495214D01*
X8464643Y-15480929D01*
X8450357Y-15466643D01*
X8436071Y-15438071D01*
X8421786Y-15380929D01*
X8421786Y-15309500D01*
X8436071Y-15252357D01*
X8450357Y-15223786D01*
X8464643Y-15209500D01*
X8493214Y-15195214D01*
X8721786Y-15466643D02*
X8736071Y-15480929D01*
X8721786Y-15495214D01*
X8707500Y-15480929D01*
X8721786Y-15466643D01*
X8721786Y-15495214D01*
X8921786Y-15195214D02*
X8950357Y-15195214D01*
X8978928Y-15209500D01*
X8993214Y-15223786D01*
X9007500Y-15252357D01*
X9021786Y-15309500D01*
X9021786Y-15380929D01*
X9007500Y-15438071D01*
X8993214Y-15466643D01*
X8978928Y-15480929D01*
X8950357Y-15495214D01*
X8921786Y-15495214D01*
X8893214Y-15480929D01*
X8878928Y-15466643D01*
X8864643Y-15438071D01*
X8850357Y-15380929D01*
X8850357Y-15309500D01*
X8864643Y-15252357D01*
X8878928Y-15223786D01*
X8893214Y-15209500D01*
X8921786Y-15195214D01*
X9164643Y-15495214D02*
X9221786Y-15495214D01*
X9250357Y-15480929D01*
X9264643Y-15466643D01*
X9293214Y-15423786D01*
X9307500Y-15366643D01*
X9307500Y-15252357D01*
X9293214Y-15223786D01*
X9278928Y-15209500D01*
X9250357Y-15195214D01*
X9193214Y-15195214D01*
X9164643Y-15209500D01*
X9150357Y-15223786D01*
X9136071Y-15252357D01*
X9136071Y-15323786D01*
X9150357Y-15352357D01*
X9164643Y-15366643D01*
X9193214Y-15380929D01*
X9250357Y-15380929D01*
X9278928Y-15366643D01*
X9293214Y-15352357D01*
X9307500Y-15323786D01*
X9564643Y-15295214D02*
X9564643Y-15495214D01*
X9493214Y-15180929D02*
X9421786Y-15395214D01*
X9607500Y-15395214D01*
X9850357Y-15195214D02*
X9793214Y-15195214D01*
X9764643Y-15209500D01*
X9750357Y-15223786D01*
X9721786Y-15266643D01*
X9707500Y-15323786D01*
X9707500Y-15438071D01*
X9721786Y-15466643D01*
X9736071Y-15480929D01*
X9764643Y-15495214D01*
X9821786Y-15495214D01*
X9850357Y-15480929D01*
X9864643Y-15466643D01*
X9878928Y-15438071D01*
X9878928Y-15366643D01*
X9864643Y-15338071D01*
X9850357Y-15323786D01*
X9821786Y-15309500D01*
X9764643Y-15309500D01*
X9736071Y-15323786D01*
X9721786Y-15338071D01*
X9707500Y-15366643D01*
X9993214Y-15195214D02*
X9993214Y-15252357D01*
X10107500Y-15195214D02*
X10107500Y-15252357D01*
X10550357Y-15609500D02*
X10536071Y-15595214D01*
X10507500Y-15552357D01*
X10493214Y-15523786D01*
X10478928Y-15480929D01*
X10464643Y-15409500D01*
X10464643Y-15352357D01*
X10478928Y-15280929D01*
X10493214Y-15238071D01*
X10507500Y-15209500D01*
X10536071Y-15166643D01*
X10550357Y-15152357D01*
X10650357Y-15223786D02*
X10664643Y-15209500D01*
X10693214Y-15195214D01*
X10764643Y-15195214D01*
X10793214Y-15209500D01*
X10807500Y-15223786D01*
X10821786Y-15252357D01*
X10821786Y-15280929D01*
X10807500Y-15323786D01*
X10636071Y-15495214D01*
X10821786Y-15495214D01*
X11178928Y-15495214D02*
X11178928Y-15195214D01*
X11307500Y-15495214D02*
X11307500Y-15338071D01*
X11293214Y-15309500D01*
X11264643Y-15295214D01*
X11221786Y-15295214D01*
X11193214Y-15309500D01*
X11178928Y-15323786D01*
X11493214Y-15495214D02*
X11464643Y-15480929D01*
X11450357Y-15466643D01*
X11436071Y-15438071D01*
X11436071Y-15352357D01*
X11450357Y-15323786D01*
X11464643Y-15309500D01*
X11493214Y-15295214D01*
X11536071Y-15295214D01*
X11564643Y-15309500D01*
X11578928Y-15323786D01*
X11593214Y-15352357D01*
X11593214Y-15438071D01*
X11578928Y-15466643D01*
X11564643Y-15480929D01*
X11536071Y-15495214D01*
X11493214Y-15495214D01*
X11764643Y-15495214D02*
X11736071Y-15480929D01*
X11721786Y-15452357D01*
X11721786Y-15195214D01*
X11993214Y-15480929D02*
X11964643Y-15495214D01*
X11907500Y-15495214D01*
X11878928Y-15480929D01*
X11864643Y-15452357D01*
X11864643Y-15338071D01*
X11878928Y-15309500D01*
X11907500Y-15295214D01*
X11964643Y-15295214D01*
X11993214Y-15309500D01*
X12007500Y-15338071D01*
X12007500Y-15366643D01*
X11864643Y-15395214D01*
X12121786Y-15480929D02*
X12150357Y-15495214D01*
X12207500Y-15495214D01*
X12236071Y-15480929D01*
X12250357Y-15452357D01*
X12250357Y-15438071D01*
X12236071Y-15409500D01*
X12207500Y-15395214D01*
X12164643Y-15395214D01*
X12136071Y-15380929D01*
X12121786Y-15352357D01*
X12121786Y-15338071D01*
X12136071Y-15309500D01*
X12164643Y-15295214D01*
X12207500Y-15295214D01*
X12236071Y-15309500D01*
X12350357Y-15609500D02*
X12364643Y-15595214D01*
X12393214Y-15552357D01*
X12407500Y-15523786D01*
X12421786Y-15480929D01*
X12436071Y-15409500D01*
X12436071Y-15352357D01*
X12421786Y-15280929D01*
X12407500Y-15238071D01*
X12393214Y-15209500D01*
X12364643Y-15166643D01*
X12350357Y-15152357D01*
M02*
