M48
; DRILL file {KiCad (5.1.12)-1} date 03/06/23 18:56:06
; FORMAT={-:-/ absolute / metric / decimal}
; #@! TF.CreationDate,2023-03-06T18:56:06+01:00
; #@! TF.GenerationSoftware,Kicad,Pcbnew,(5.1.12)-1
; #@! TF.FileFunction,Plated,1,2,PTH
FMAT,2
METRIC
T1C0.400
T2C1.000
T3C2.404
%
G90
G05
T1
X53.7Y-96.7
X53.7Y-135.3
X55.8Y-110.2
X57.74Y-124.52
X58.3Y-109.2
X59.305Y-98.675
X59.86Y-98.12
X60.6Y-112.2
X61.8Y-118.4
X61.8Y-126.7
X61.89Y-128.91
X61.9Y-101.9
X62.9Y-105.8
X63.6Y-121.1
X63.8Y-110.2
X64.1Y-125.9
X64.76Y-131.94
X65.7Y-116.2
X65.7Y-128.8
X65.8Y-104.2
X66.1Y-110.5
X66.7Y-111.8
X67.45Y-125.82
X67.6Y-119.4
X67.7Y-110.1
X69.8Y-118.4
X69.8Y-126.7
X69.9Y-101.9
X70.0Y-114.7
X70.2Y-108.1
X72.8Y-105.1
X72.8Y-111.1
X75.0Y-102.1
X75.7Y-100.3
X75.8Y-110.1
X76.2Y-112.1
X79.7Y-125.8
X80.0Y-132.0
X80.2Y-117.8
X80.4Y-120.2
X82.7Y-132.4
X83.6Y-120.6
X84.1Y-112.3
X84.5Y-122.5
X84.6Y-132.1
X84.7Y-124.6
X84.7Y-127.3
X84.7Y-129.9
X87.5Y-108.7
X88.4Y-125.9
X88.45Y-110.85
X90.3Y-116.9
X90.8Y-125.2
X92.2Y-110.6
X92.6Y-112.0
X93.4Y-124.4
X93.44Y-105.22
X94.1Y-108.4
X94.5Y-112.9
X94.77Y-104.83
X95.2Y-110.5
X95.2Y-123.7
X95.7Y-130.1
X96.3Y-108.08
X96.5Y-106.9
X97.6Y-106.7
X97.89Y-118.45
X97.9Y-101.8
X97.9Y-103.1
X97.9Y-113.8
X97.9Y-114.8
X97.9Y-115.8
X97.9Y-121.6
X97.9Y-124.2
X98.0Y-117.1
X98.1Y-126.4
X98.2Y-104.9
X99.7Y-128.5
X100.0Y-109.1
X100.0Y-110.3
X100.0Y-111.5
X100.0Y-116.8
X100.3Y-118.8
X100.3Y-122.4
X100.3Y-123.9
X100.5Y-114.1
X100.6Y-115.5
X100.9Y-129.9
X101.7Y-119.0
X101.79Y-114.11
X101.9Y-124.9
X102.1Y-116.5
X102.5Y-117.7
X103.0Y-104.2
X103.4Y-102.6
X103.4Y-119.09
X103.7Y-112.22
X103.7Y-113.3
X104.1Y-123.6
X104.3Y-122.4
X104.36Y-108.82
X104.4Y-128.1
X104.5Y-125.3
X105.32Y-110.78
X105.37Y-108.82
X105.9Y-128.4
X105.95Y-111.96
X105.96Y-113.86
X105.96Y-115.67
X105.99Y-117.54
X106.165Y-120.235
X106.165Y-125.035
X106.31Y-110.78
X106.37Y-108.82
X106.89Y-131.19
X107.13Y-108.15
X107.3Y-110.8
X107.5Y-128.1
X108.13Y-111.37
X108.4Y-114.8
X108.7Y-121.5
X108.71Y-99.02
X109.5Y-118.5
X109.5Y-119.8
X110.91Y-111.36
X111.12Y-119.28
X111.64Y-112.07
X112.2Y-105.5
X112.3Y-96.7
X112.3Y-126.4
X112.3Y-135.3
X112.35Y-112.8
X112.39Y-110.33
X112.55Y-108.12
X113.06Y-113.5
X113.14Y-111.02
X113.2Y-106.8
X113.26Y-108.84
X113.3Y-125.3
X113.77Y-114.21
X113.83Y-111.76
X114.0Y-109.59
X114.49Y-114.94
X114.53Y-112.49
X114.66Y-110.27
X115.23Y-115.68
X115.24Y-113.2
X115.42Y-110.98
X116.0Y-119.5
X116.8Y-119.5
X117.0Y-115.0
X117.0Y-117.0
X117.6Y-119.5
X122.2Y-125.2
X122.3Y-106.7
T2
X87.0Y-131.6
X89.54Y-131.6
X92.08Y-131.6
X94.62Y-131.6
X97.16Y-131.6
X99.7Y-131.6
X102.24Y-131.6
X104.78Y-131.6
T3
X119.6Y-110.15
X119.6Y-121.85
T0
M30
