%TF.GenerationSoftware,KiCad,Pcbnew,(5.1.12)-1*%
%TF.CreationDate,2023-03-06T18:53:53+01:00*%
%TF.ProjectId,C4V1,43345631-2e6b-4696-9361-645f70636258,rev?*%
%TF.SameCoordinates,Original*%
%TF.FileFunction,Legend,Top*%
%TF.FilePolarity,Positive*%
%FSLAX46Y46*%
G04 Gerber Fmt 4.6, Leading zero omitted, Abs format (unit mm)*
G04 Created by KiCad (PCBNEW (5.1.12)-1) date 2023-03-06 18:53:53*
%MOMM*%
%LPD*%
G01*
G04 APERTURE LIST*
%ADD10C,0.150000*%
%ADD11C,0.120000*%
%ADD12C,0.200000*%
%ADD13C,0.250000*%
%ADD14C,0.254000*%
%ADD15R,1.000000X1.500000*%
%ADD16R,1.550000X1.300000*%
%ADD17C,1.100000*%
%ADD18C,3.900000*%
%ADD19R,1.200000X1.400000*%
%ADD20R,1.550000X2.400000*%
%ADD21R,0.650000X0.350000*%
%ADD22R,1.350000X0.650000*%
%ADD23R,3.600000X3.600000*%
%ADD24R,0.250000X0.850000*%
%ADD25R,0.850000X0.250000*%
%ADD26R,1.200000X0.600000*%
%ADD27O,1.700000X1.700000*%
%ADD28R,1.700000X1.700000*%
G04 APERTURE END LIST*
D10*
X78233333Y-135052380D02*
X78233333Y-134052380D01*
X78471428Y-134052380D01*
X78614285Y-134100000D01*
X78709523Y-134195238D01*
X78757142Y-134290476D01*
X78804761Y-134480952D01*
X78804761Y-134623809D01*
X78757142Y-134814285D01*
X78709523Y-134909523D01*
X78614285Y-135004761D01*
X78471428Y-135052380D01*
X78233333Y-135052380D01*
X79423809Y-134052380D02*
X79614285Y-134052380D01*
X79709523Y-134100000D01*
X79804761Y-134195238D01*
X79852380Y-134385714D01*
X79852380Y-134719047D01*
X79804761Y-134909523D01*
X79709523Y-135004761D01*
X79614285Y-135052380D01*
X79423809Y-135052380D01*
X79328571Y-135004761D01*
X79233333Y-134909523D01*
X79185714Y-134719047D01*
X79185714Y-134385714D01*
X79233333Y-134195238D01*
X79328571Y-134100000D01*
X79423809Y-134052380D01*
X80280952Y-135052380D02*
X80280952Y-134052380D01*
X80852380Y-135052380D01*
X80852380Y-134052380D01*
X81852380Y-134100000D02*
X81757142Y-134052380D01*
X81614285Y-134052380D01*
X81471428Y-134100000D01*
X81376190Y-134195238D01*
X81328571Y-134290476D01*
X81280952Y-134480952D01*
X81280952Y-134623809D01*
X81328571Y-134814285D01*
X81376190Y-134909523D01*
X81471428Y-135004761D01*
X81614285Y-135052380D01*
X81709523Y-135052380D01*
X81852380Y-135004761D01*
X81900000Y-134957142D01*
X81900000Y-134623809D01*
X81709523Y-134623809D01*
X82804761Y-135052380D02*
X82328571Y-135052380D01*
X82328571Y-134052380D01*
X83138095Y-134528571D02*
X83471428Y-134528571D01*
X83614285Y-135052380D02*
X83138095Y-135052380D01*
X83138095Y-134052380D01*
X83614285Y-134052380D01*
X74228571Y-134957142D02*
X74180952Y-135004761D01*
X74038095Y-135052380D01*
X73942857Y-135052380D01*
X73800000Y-135004761D01*
X73704761Y-134909523D01*
X73657142Y-134814285D01*
X73609523Y-134623809D01*
X73609523Y-134480952D01*
X73657142Y-134290476D01*
X73704761Y-134195238D01*
X73800000Y-134100000D01*
X73942857Y-134052380D01*
X74038095Y-134052380D01*
X74180952Y-134100000D01*
X74228571Y-134147619D01*
X75085714Y-134385714D02*
X75085714Y-135052380D01*
X74847619Y-134004761D02*
X74609523Y-134719047D01*
X75228571Y-134719047D01*
X75466666Y-134052380D02*
X75800000Y-135052380D01*
X76133333Y-134052380D01*
X76990476Y-135052380D02*
X76419047Y-135052380D01*
X76704761Y-135052380D02*
X76704761Y-134052380D01*
X76609523Y-134195238D01*
X76514285Y-134290476D01*
X76419047Y-134338095D01*
X54957142Y-135052380D02*
X54957142Y-134052380D01*
X55338095Y-134052380D01*
X55433333Y-134100000D01*
X55480952Y-134147619D01*
X55528571Y-134242857D01*
X55528571Y-134385714D01*
X55480952Y-134480952D01*
X55433333Y-134528571D01*
X55338095Y-134576190D01*
X54957142Y-134576190D01*
X55957142Y-134052380D02*
X55957142Y-134861904D01*
X56004761Y-134957142D01*
X56052380Y-135004761D01*
X56147619Y-135052380D01*
X56338095Y-135052380D01*
X56433333Y-135004761D01*
X56480952Y-134957142D01*
X56528571Y-134861904D01*
X56528571Y-134052380D01*
X56957142Y-135004761D02*
X57100000Y-135052380D01*
X57338095Y-135052380D01*
X57433333Y-135004761D01*
X57480952Y-134957142D01*
X57528571Y-134861904D01*
X57528571Y-134766666D01*
X57480952Y-134671428D01*
X57433333Y-134623809D01*
X57338095Y-134576190D01*
X57147619Y-134528571D01*
X57052380Y-134480952D01*
X57004761Y-134433333D01*
X56957142Y-134338095D01*
X56957142Y-134242857D01*
X57004761Y-134147619D01*
X57052380Y-134100000D01*
X57147619Y-134052380D01*
X57385714Y-134052380D01*
X57528571Y-134100000D01*
X57861904Y-134052380D02*
X58528571Y-134052380D01*
X57861904Y-135052380D01*
X58528571Y-135052380D01*
X58909523Y-134528571D02*
X59242857Y-134528571D01*
X59385714Y-135052380D02*
X58909523Y-135052380D01*
X58909523Y-134052380D01*
X59385714Y-134052380D01*
X59814285Y-135052380D02*
X59814285Y-134052380D01*
X60385714Y-135052380D02*
X59957142Y-134480952D01*
X60385714Y-134052380D02*
X59814285Y-134623809D01*
X61576190Y-135052380D02*
X61576190Y-134052380D01*
X62052380Y-135052380D02*
X62052380Y-134052380D01*
X62623809Y-135052380D01*
X62623809Y-134052380D01*
X63671428Y-134957142D02*
X63623809Y-135004761D01*
X63480952Y-135052380D01*
X63385714Y-135052380D01*
X63242857Y-135004761D01*
X63147619Y-134909523D01*
X63100000Y-134814285D01*
X63052380Y-134623809D01*
X63052380Y-134480952D01*
X63100000Y-134290476D01*
X63147619Y-134195238D01*
X63242857Y-134100000D01*
X63385714Y-134052380D01*
X63480952Y-134052380D01*
X63623809Y-134100000D01*
X63671428Y-134147619D01*
X64290476Y-134052380D02*
X64480952Y-134052380D01*
X64576190Y-134100000D01*
X64671428Y-134195238D01*
X64719047Y-134385714D01*
X64719047Y-134719047D01*
X64671428Y-134909523D01*
X64576190Y-135004761D01*
X64480952Y-135052380D01*
X64290476Y-135052380D01*
X64195238Y-135004761D01*
X64100000Y-134909523D01*
X64052380Y-134719047D01*
X64052380Y-134385714D01*
X64100000Y-134195238D01*
X64195238Y-134100000D01*
X64290476Y-134052380D01*
X65719047Y-135052380D02*
X65385714Y-134576190D01*
X65147619Y-135052380D02*
X65147619Y-134052380D01*
X65528571Y-134052380D01*
X65623809Y-134100000D01*
X65671428Y-134147619D01*
X65719047Y-134242857D01*
X65719047Y-134385714D01*
X65671428Y-134480952D01*
X65623809Y-134528571D01*
X65528571Y-134576190D01*
X65147619Y-134576190D01*
X66147619Y-135052380D02*
X66147619Y-134052380D01*
X66528571Y-134052380D01*
X66623809Y-134100000D01*
X66671428Y-134147619D01*
X66719047Y-134242857D01*
X66719047Y-134385714D01*
X66671428Y-134480952D01*
X66623809Y-134528571D01*
X66528571Y-134576190D01*
X66147619Y-134576190D01*
X67338095Y-134052380D02*
X67528571Y-134052380D01*
X67623809Y-134100000D01*
X67719047Y-134195238D01*
X67766666Y-134385714D01*
X67766666Y-134719047D01*
X67719047Y-134909523D01*
X67623809Y-135004761D01*
X67528571Y-135052380D01*
X67338095Y-135052380D01*
X67242857Y-135004761D01*
X67147619Y-134909523D01*
X67100000Y-134719047D01*
X67100000Y-134385714D01*
X67147619Y-134195238D01*
X67242857Y-134100000D01*
X67338095Y-134052380D01*
X68766666Y-135052380D02*
X68433333Y-134576190D01*
X68195238Y-135052380D02*
X68195238Y-134052380D01*
X68576190Y-134052380D01*
X68671428Y-134100000D01*
X68719047Y-134147619D01*
X68766666Y-134242857D01*
X68766666Y-134385714D01*
X68719047Y-134480952D01*
X68671428Y-134528571D01*
X68576190Y-134576190D01*
X68195238Y-134576190D01*
X69147619Y-134766666D02*
X69623809Y-134766666D01*
X69052380Y-135052380D02*
X69385714Y-134052380D01*
X69719047Y-135052380D01*
X69909523Y-134052380D02*
X70480952Y-134052380D01*
X70195238Y-135052380D02*
X70195238Y-134052380D01*
X70814285Y-134528571D02*
X71147619Y-134528571D01*
X71290476Y-135052380D02*
X70814285Y-135052380D01*
X70814285Y-134052380D01*
X71290476Y-134052380D01*
X71719047Y-135052380D02*
X71719047Y-134052380D01*
X71957142Y-134052380D01*
X72100000Y-134100000D01*
X72195238Y-134195238D01*
X72242857Y-134290476D01*
X72290476Y-134480952D01*
X72290476Y-134623809D01*
X72242857Y-134814285D01*
X72195238Y-134909523D01*
X72100000Y-135004761D01*
X71957142Y-135052380D01*
X71719047Y-135052380D01*
X78747619Y-122252380D02*
X78414285Y-121776190D01*
X78176190Y-122252380D02*
X78176190Y-121252380D01*
X78557142Y-121252380D01*
X78652380Y-121300000D01*
X78700000Y-121347619D01*
X78747619Y-121442857D01*
X78747619Y-121585714D01*
X78700000Y-121680952D01*
X78652380Y-121728571D01*
X78557142Y-121776190D01*
X78176190Y-121776190D01*
X79176190Y-121728571D02*
X79509523Y-121728571D01*
X79652380Y-122252380D02*
X79176190Y-122252380D01*
X79176190Y-121252380D01*
X79652380Y-121252380D01*
X80033333Y-122204761D02*
X80176190Y-122252380D01*
X80414285Y-122252380D01*
X80509523Y-122204761D01*
X80557142Y-122157142D01*
X80604761Y-122061904D01*
X80604761Y-121966666D01*
X80557142Y-121871428D01*
X80509523Y-121823809D01*
X80414285Y-121776190D01*
X80223809Y-121728571D01*
X80128571Y-121680952D01*
X80080952Y-121633333D01*
X80033333Y-121538095D01*
X80033333Y-121442857D01*
X80080952Y-121347619D01*
X80128571Y-121300000D01*
X80223809Y-121252380D01*
X80461904Y-121252380D01*
X80604761Y-121300000D01*
X81033333Y-121728571D02*
X81366666Y-121728571D01*
X81509523Y-122252380D02*
X81033333Y-122252380D01*
X81033333Y-121252380D01*
X81509523Y-121252380D01*
X81795238Y-121252380D02*
X82366666Y-121252380D01*
X82080952Y-122252380D02*
X82080952Y-121252380D01*
X78166666Y-104928571D02*
X78309523Y-104976190D01*
X78357142Y-105023809D01*
X78404761Y-105119047D01*
X78404761Y-105261904D01*
X78357142Y-105357142D01*
X78309523Y-105404761D01*
X78214285Y-105452380D01*
X77833333Y-105452380D01*
X77833333Y-104452380D01*
X78166666Y-104452380D01*
X78261904Y-104500000D01*
X78309523Y-104547619D01*
X78357142Y-104642857D01*
X78357142Y-104738095D01*
X78309523Y-104833333D01*
X78261904Y-104880952D01*
X78166666Y-104928571D01*
X77833333Y-104928571D01*
X79023809Y-104452380D02*
X79214285Y-104452380D01*
X79309523Y-104500000D01*
X79404761Y-104595238D01*
X79452380Y-104785714D01*
X79452380Y-105119047D01*
X79404761Y-105309523D01*
X79309523Y-105404761D01*
X79214285Y-105452380D01*
X79023809Y-105452380D01*
X78928571Y-105404761D01*
X78833333Y-105309523D01*
X78785714Y-105119047D01*
X78785714Y-104785714D01*
X78833333Y-104595238D01*
X78928571Y-104500000D01*
X79023809Y-104452380D01*
X80071428Y-104452380D02*
X80261904Y-104452380D01*
X80357142Y-104500000D01*
X80452380Y-104595238D01*
X80500000Y-104785714D01*
X80500000Y-105119047D01*
X80452380Y-105309523D01*
X80357142Y-105404761D01*
X80261904Y-105452380D01*
X80071428Y-105452380D01*
X79976190Y-105404761D01*
X79880952Y-105309523D01*
X79833333Y-105119047D01*
X79833333Y-104785714D01*
X79880952Y-104595238D01*
X79976190Y-104500000D01*
X80071428Y-104452380D01*
X80785714Y-104452380D02*
X81357142Y-104452380D01*
X81071428Y-105452380D02*
X81071428Y-104452380D01*
X81880952Y-104452380D02*
X81976190Y-104452380D01*
X82071428Y-104500000D01*
X82119047Y-104547619D01*
X82166666Y-104642857D01*
X82214285Y-104833333D01*
X82214285Y-105071428D01*
X82166666Y-105261904D01*
X82119047Y-105357142D01*
X82071428Y-105404761D01*
X81976190Y-105452380D01*
X81880952Y-105452380D01*
X81785714Y-105404761D01*
X81738095Y-105357142D01*
X81690476Y-105261904D01*
X81642857Y-105071428D01*
X81642857Y-104833333D01*
X81690476Y-104642857D01*
X81738095Y-104547619D01*
X81785714Y-104500000D01*
X81880952Y-104452380D01*
X110299523Y-115502380D02*
X110394761Y-115502380D01*
X110490000Y-115550000D01*
X110537619Y-115597619D01*
X110585238Y-115692857D01*
X110632857Y-115883333D01*
X110632857Y-116121428D01*
X110585238Y-116311904D01*
X110537619Y-116407142D01*
X110490000Y-116454761D01*
X110394761Y-116502380D01*
X110299523Y-116502380D01*
X110204285Y-116454761D01*
X110156666Y-116407142D01*
X110109047Y-116311904D01*
X110061428Y-116121428D01*
X110061428Y-115883333D01*
X110109047Y-115692857D01*
X110156666Y-115597619D01*
X110204285Y-115550000D01*
X110299523Y-115502380D01*
X111061428Y-116407142D02*
X111109047Y-116454761D01*
X111061428Y-116502380D01*
X111013809Y-116454761D01*
X111061428Y-116407142D01*
X111061428Y-116502380D01*
X112013809Y-115502380D02*
X111537619Y-115502380D01*
X111490000Y-115978571D01*
X111537619Y-115930952D01*
X111632857Y-115883333D01*
X111870952Y-115883333D01*
X111966190Y-115930952D01*
X112013809Y-115978571D01*
X112061428Y-116073809D01*
X112061428Y-116311904D01*
X112013809Y-116407142D01*
X111966190Y-116454761D01*
X111870952Y-116502380D01*
X111632857Y-116502380D01*
X111537619Y-116454761D01*
X111490000Y-116407142D01*
X112442380Y-116216666D02*
X112918571Y-116216666D01*
X112347142Y-116502380D02*
X112680476Y-115502380D01*
X113013809Y-116502380D01*
D11*
X104360000Y-105110000D02*
X104360000Y-97810000D01*
X109860000Y-105110000D02*
X109860000Y-97810000D01*
X109860000Y-97810000D02*
X108710000Y-97810000D01*
X83430000Y-113770000D02*
X83430000Y-113800000D01*
X83430000Y-120230000D02*
X83430000Y-120200000D01*
X76970000Y-120230000D02*
X76970000Y-120200000D01*
X76970000Y-113800000D02*
X76970000Y-113770000D01*
X83430000Y-115700000D02*
X83430000Y-118300000D01*
X76970000Y-113770000D02*
X83430000Y-113770000D01*
X76970000Y-115700000D02*
X76970000Y-118300000D01*
X76970000Y-120230000D02*
X83430000Y-120230000D01*
X76870000Y-113230000D02*
X76870000Y-113200000D01*
X76870000Y-106770000D02*
X76870000Y-106800000D01*
X83330000Y-106770000D02*
X83330000Y-106800000D01*
X83330000Y-113200000D02*
X83330000Y-113230000D01*
X76870000Y-111300000D02*
X76870000Y-108700000D01*
X83330000Y-113230000D02*
X76870000Y-113230000D01*
X83330000Y-111300000D02*
X83330000Y-108700000D01*
X83330000Y-106770000D02*
X76870000Y-106770000D01*
X95060000Y-104192164D02*
X95060000Y-104407836D01*
X94340000Y-104192164D02*
X94340000Y-104407836D01*
X65046359Y-100720000D02*
X65353641Y-100720000D01*
X65046359Y-101480000D02*
X65353641Y-101480000D01*
X65320000Y-119953641D02*
X65320000Y-119646359D01*
X66080000Y-119953641D02*
X66080000Y-119646359D01*
X60380000Y-108656359D02*
X60380000Y-108963641D01*
X59620000Y-108656359D02*
X59620000Y-108963641D01*
X69820000Y-111653641D02*
X69820000Y-111346359D01*
X70580000Y-111653641D02*
X70580000Y-111346359D01*
X65980000Y-125246359D02*
X65980000Y-125553641D01*
X65220000Y-125246359D02*
X65220000Y-125553641D01*
X102480000Y-105746359D02*
X102480000Y-106053641D01*
X101720000Y-105746359D02*
X101720000Y-106053641D01*
X66160000Y-103092164D02*
X66160000Y-103307836D01*
X65440000Y-103092164D02*
X65440000Y-103307836D01*
X65340000Y-117307836D02*
X65340000Y-117092164D01*
X66060000Y-117307836D02*
X66060000Y-117092164D01*
X60360000Y-111292164D02*
X60360000Y-111507836D01*
X59640000Y-111292164D02*
X59640000Y-111507836D01*
X69840000Y-109107836D02*
X69840000Y-108892164D01*
X70560000Y-109107836D02*
X70560000Y-108892164D01*
X65960000Y-127892164D02*
X65960000Y-128107836D01*
X65240000Y-127892164D02*
X65240000Y-128107836D01*
X106536252Y-129460000D02*
X105113748Y-129460000D01*
X106536252Y-126740000D02*
X105113748Y-126740000D01*
X91450000Y-111300000D02*
X94750000Y-111300000D01*
X94750000Y-111300000D02*
X94750000Y-107300000D01*
X111060000Y-120760000D02*
X111060000Y-120610000D01*
X107940000Y-120760000D02*
X111060000Y-120760000D01*
X109500000Y-117640000D02*
X111060000Y-117640000D01*
X107940000Y-120760000D02*
X107940000Y-120610000D01*
X111060000Y-117640000D02*
X111060000Y-117790000D01*
X97920000Y-105553641D02*
X97920000Y-105246359D01*
X98680000Y-105553641D02*
X98680000Y-105246359D01*
X95780000Y-110846359D02*
X95780000Y-111153641D01*
X95020000Y-110846359D02*
X95020000Y-111153641D01*
X94420000Y-128453641D02*
X94420000Y-128146359D01*
X95180000Y-128453641D02*
X95180000Y-128146359D01*
X104153641Y-125780000D02*
X103846359Y-125780000D01*
X104153641Y-125020000D02*
X103846359Y-125020000D01*
X94320000Y-122153641D02*
X94320000Y-121846359D01*
X95080000Y-122153641D02*
X95080000Y-121846359D01*
X103780000Y-119446359D02*
X103780000Y-119753641D01*
X103020000Y-119446359D02*
X103020000Y-119753641D01*
D12*
X100875000Y-129250000D02*
X97325000Y-129250000D01*
X97325000Y-129250000D02*
X97325000Y-124350000D01*
X97325000Y-124350000D02*
X100875000Y-124350000D01*
X100875000Y-124350000D02*
X100875000Y-129250000D01*
X102575000Y-129380000D02*
X101225000Y-129380000D01*
X100875000Y-123250000D02*
X97325000Y-123250000D01*
X97325000Y-123250000D02*
X97325000Y-118350000D01*
X97325000Y-118350000D02*
X100875000Y-118350000D01*
X100875000Y-118350000D02*
X100875000Y-123250000D01*
X102575000Y-123380000D02*
X101225000Y-123380000D01*
D11*
X95940000Y-107707836D02*
X95940000Y-107492164D01*
X96660000Y-107707836D02*
X96660000Y-107492164D01*
X101407836Y-114460000D02*
X101192164Y-114460000D01*
X101407836Y-113740000D02*
X101192164Y-113740000D01*
X104060000Y-112592164D02*
X104060000Y-112807836D01*
X103340000Y-112592164D02*
X103340000Y-112807836D01*
X95107836Y-112860000D02*
X94892164Y-112860000D01*
X95107836Y-112140000D02*
X94892164Y-112140000D01*
X107792164Y-114440000D02*
X108007836Y-114440000D01*
X107792164Y-115160000D02*
X108007836Y-115160000D01*
X92992164Y-111640000D02*
X93207836Y-111640000D01*
X92992164Y-112360000D02*
X93207836Y-112360000D01*
X93207836Y-106960000D02*
X92992164Y-106960000D01*
X93207836Y-106240000D02*
X92992164Y-106240000D01*
X112560000Y-118692164D02*
X112560000Y-118907836D01*
X111840000Y-118692164D02*
X111840000Y-118907836D01*
X107892164Y-121140000D02*
X108107836Y-121140000D01*
X107892164Y-121860000D02*
X108107836Y-121860000D01*
X107160000Y-118592164D02*
X107160000Y-118807836D01*
X106440000Y-118592164D02*
X106440000Y-118807836D01*
D13*
X97250000Y-107800000D02*
G75*
G03*
X97250000Y-107800000I-125000J0D01*
G01*
D12*
X110100000Y-110962000D02*
X109500000Y-110962000D01*
X109500000Y-110962000D02*
X109500000Y-108038000D01*
X109500000Y-108038000D02*
X110100000Y-108038000D01*
X110100000Y-108038000D02*
X110100000Y-110962000D01*
X111650000Y-111100000D02*
X110450000Y-111100000D01*
D11*
X107837221Y-115590000D02*
X108162779Y-115590000D01*
X107837221Y-116610000D02*
X108162779Y-116610000D01*
D10*
X104062380Y-102198095D02*
X103062380Y-102198095D01*
X103062380Y-101960000D01*
X103110000Y-101817142D01*
X103205238Y-101721904D01*
X103300476Y-101674285D01*
X103490952Y-101626666D01*
X103633809Y-101626666D01*
X103824285Y-101674285D01*
X103919523Y-101721904D01*
X104014761Y-101817142D01*
X104062380Y-101960000D01*
X104062380Y-102198095D01*
X104062380Y-100674285D02*
X104062380Y-101245714D01*
X104062380Y-100960000D02*
X103062380Y-100960000D01*
X103205238Y-101055238D01*
X103300476Y-101150476D01*
X103348095Y-101245714D01*
X105962380Y-105324285D02*
X105962380Y-105895714D01*
X105962380Y-105610000D02*
X104962380Y-105610000D01*
X105105238Y-105705238D01*
X105200476Y-105800476D01*
X105248095Y-105895714D01*
X78936666Y-110974761D02*
X79079523Y-111022380D01*
X79317619Y-111022380D01*
X79412857Y-110974761D01*
X79460476Y-110927142D01*
X79508095Y-110831904D01*
X79508095Y-110736666D01*
X79460476Y-110641428D01*
X79412857Y-110593809D01*
X79317619Y-110546190D01*
X79127142Y-110498571D01*
X79031904Y-110450952D01*
X78984285Y-110403333D01*
X78936666Y-110308095D01*
X78936666Y-110212857D01*
X78984285Y-110117619D01*
X79031904Y-110070000D01*
X79127142Y-110022380D01*
X79365238Y-110022380D01*
X79508095Y-110070000D01*
X79841428Y-110022380D02*
X80079523Y-111022380D01*
X80270000Y-110308095D01*
X80460476Y-111022380D01*
X80698571Y-110022380D01*
X81508095Y-110022380D02*
X81317619Y-110022380D01*
X81222380Y-110070000D01*
X81174761Y-110117619D01*
X81079523Y-110260476D01*
X81031904Y-110450952D01*
X81031904Y-110831904D01*
X81079523Y-110927142D01*
X81127142Y-110974761D01*
X81222380Y-111022380D01*
X81412857Y-111022380D01*
X81508095Y-110974761D01*
X81555714Y-110927142D01*
X81603333Y-110831904D01*
X81603333Y-110593809D01*
X81555714Y-110498571D01*
X81508095Y-110450952D01*
X81412857Y-110403333D01*
X81222380Y-110403333D01*
X81127142Y-110450952D01*
X81079523Y-110498571D01*
X81031904Y-110593809D01*
X78776666Y-117314761D02*
X78919523Y-117362380D01*
X79157619Y-117362380D01*
X79252857Y-117314761D01*
X79300476Y-117267142D01*
X79348095Y-117171904D01*
X79348095Y-117076666D01*
X79300476Y-116981428D01*
X79252857Y-116933809D01*
X79157619Y-116886190D01*
X78967142Y-116838571D01*
X78871904Y-116790952D01*
X78824285Y-116743333D01*
X78776666Y-116648095D01*
X78776666Y-116552857D01*
X78824285Y-116457619D01*
X78871904Y-116410000D01*
X78967142Y-116362380D01*
X79205238Y-116362380D01*
X79348095Y-116410000D01*
X79681428Y-116362380D02*
X79919523Y-117362380D01*
X80110000Y-116648095D01*
X80300476Y-117362380D01*
X80538571Y-116362380D01*
X80824285Y-116362380D02*
X81490952Y-116362380D01*
X81062380Y-117362380D01*
X96217142Y-104942857D02*
X96264761Y-104990476D01*
X96312380Y-105133333D01*
X96312380Y-105228571D01*
X96264761Y-105371428D01*
X96169523Y-105466666D01*
X96074285Y-105514285D01*
X95883809Y-105561904D01*
X95740952Y-105561904D01*
X95550476Y-105514285D01*
X95455238Y-105466666D01*
X95360000Y-105371428D01*
X95312380Y-105228571D01*
X95312380Y-105133333D01*
X95360000Y-104990476D01*
X95407619Y-104942857D01*
X96312380Y-103990476D02*
X96312380Y-104561904D01*
X96312380Y-104276190D02*
X95312380Y-104276190D01*
X95455238Y-104371428D01*
X95550476Y-104466666D01*
X95598095Y-104561904D01*
X95312380Y-103657142D02*
X95312380Y-102990476D01*
X96312380Y-103419047D01*
X64557142Y-100382380D02*
X64223809Y-99906190D01*
X63985714Y-100382380D02*
X63985714Y-99382380D01*
X64366666Y-99382380D01*
X64461904Y-99430000D01*
X64509523Y-99477619D01*
X64557142Y-99572857D01*
X64557142Y-99715714D01*
X64509523Y-99810952D01*
X64461904Y-99858571D01*
X64366666Y-99906190D01*
X63985714Y-99906190D01*
X65509523Y-100382380D02*
X64938095Y-100382380D01*
X65223809Y-100382380D02*
X65223809Y-99382380D01*
X65128571Y-99525238D01*
X65033333Y-99620476D01*
X64938095Y-99668095D01*
X65890476Y-99477619D02*
X65938095Y-99430000D01*
X66033333Y-99382380D01*
X66271428Y-99382380D01*
X66366666Y-99430000D01*
X66414285Y-99477619D01*
X66461904Y-99572857D01*
X66461904Y-99668095D01*
X66414285Y-99810952D01*
X65842857Y-100382380D01*
X66461904Y-100382380D01*
X64982380Y-120442857D02*
X64506190Y-120776190D01*
X64982380Y-121014285D02*
X63982380Y-121014285D01*
X63982380Y-120633333D01*
X64030000Y-120538095D01*
X64077619Y-120490476D01*
X64172857Y-120442857D01*
X64315714Y-120442857D01*
X64410952Y-120490476D01*
X64458571Y-120538095D01*
X64506190Y-120633333D01*
X64506190Y-121014285D01*
X64982380Y-119490476D02*
X64982380Y-120061904D01*
X64982380Y-119776190D02*
X63982380Y-119776190D01*
X64125238Y-119871428D01*
X64220476Y-119966666D01*
X64268095Y-120061904D01*
X64982380Y-118538095D02*
X64982380Y-119109523D01*
X64982380Y-118823809D02*
X63982380Y-118823809D01*
X64125238Y-118919047D01*
X64220476Y-119014285D01*
X64268095Y-119109523D01*
X61622380Y-109452857D02*
X61146190Y-109786190D01*
X61622380Y-110024285D02*
X60622380Y-110024285D01*
X60622380Y-109643333D01*
X60670000Y-109548095D01*
X60717619Y-109500476D01*
X60812857Y-109452857D01*
X60955714Y-109452857D01*
X61050952Y-109500476D01*
X61098571Y-109548095D01*
X61146190Y-109643333D01*
X61146190Y-110024285D01*
X61622380Y-108500476D02*
X61622380Y-109071904D01*
X61622380Y-108786190D02*
X60622380Y-108786190D01*
X60765238Y-108881428D01*
X60860476Y-108976666D01*
X60908095Y-109071904D01*
X60622380Y-107881428D02*
X60622380Y-107786190D01*
X60670000Y-107690952D01*
X60717619Y-107643333D01*
X60812857Y-107595714D01*
X61003333Y-107548095D01*
X61241428Y-107548095D01*
X61431904Y-107595714D01*
X61527142Y-107643333D01*
X61574761Y-107690952D01*
X61622380Y-107786190D01*
X61622380Y-107881428D01*
X61574761Y-107976666D01*
X61527142Y-108024285D01*
X61431904Y-108071904D01*
X61241428Y-108119523D01*
X61003333Y-108119523D01*
X60812857Y-108071904D01*
X60717619Y-108024285D01*
X60670000Y-107976666D01*
X60622380Y-107881428D01*
X69482380Y-111666666D02*
X69006190Y-112000000D01*
X69482380Y-112238095D02*
X68482380Y-112238095D01*
X68482380Y-111857142D01*
X68530000Y-111761904D01*
X68577619Y-111714285D01*
X68672857Y-111666666D01*
X68815714Y-111666666D01*
X68910952Y-111714285D01*
X68958571Y-111761904D01*
X69006190Y-111857142D01*
X69006190Y-112238095D01*
X69482380Y-111190476D02*
X69482380Y-111000000D01*
X69434761Y-110904761D01*
X69387142Y-110857142D01*
X69244285Y-110761904D01*
X69053809Y-110714285D01*
X68672857Y-110714285D01*
X68577619Y-110761904D01*
X68530000Y-110809523D01*
X68482380Y-110904761D01*
X68482380Y-111095238D01*
X68530000Y-111190476D01*
X68577619Y-111238095D01*
X68672857Y-111285714D01*
X68910952Y-111285714D01*
X69006190Y-111238095D01*
X69053809Y-111190476D01*
X69101428Y-111095238D01*
X69101428Y-110904761D01*
X69053809Y-110809523D01*
X69006190Y-110761904D01*
X68910952Y-110714285D01*
X67222380Y-125566666D02*
X66746190Y-125900000D01*
X67222380Y-126138095D02*
X66222380Y-126138095D01*
X66222380Y-125757142D01*
X66270000Y-125661904D01*
X66317619Y-125614285D01*
X66412857Y-125566666D01*
X66555714Y-125566666D01*
X66650952Y-125614285D01*
X66698571Y-125661904D01*
X66746190Y-125757142D01*
X66746190Y-126138095D01*
X66650952Y-124995238D02*
X66603333Y-125090476D01*
X66555714Y-125138095D01*
X66460476Y-125185714D01*
X66412857Y-125185714D01*
X66317619Y-125138095D01*
X66270000Y-125090476D01*
X66222380Y-124995238D01*
X66222380Y-124804761D01*
X66270000Y-124709523D01*
X66317619Y-124661904D01*
X66412857Y-124614285D01*
X66460476Y-124614285D01*
X66555714Y-124661904D01*
X66603333Y-124709523D01*
X66650952Y-124804761D01*
X66650952Y-124995238D01*
X66698571Y-125090476D01*
X66746190Y-125138095D01*
X66841428Y-125185714D01*
X67031904Y-125185714D01*
X67127142Y-125138095D01*
X67174761Y-125090476D01*
X67222380Y-124995238D01*
X67222380Y-124804761D01*
X67174761Y-124709523D01*
X67127142Y-124661904D01*
X67031904Y-124614285D01*
X66841428Y-124614285D01*
X66746190Y-124661904D01*
X66698571Y-124709523D01*
X66650952Y-124804761D01*
X103722380Y-106066666D02*
X103246190Y-106400000D01*
X103722380Y-106638095D02*
X102722380Y-106638095D01*
X102722380Y-106257142D01*
X102770000Y-106161904D01*
X102817619Y-106114285D01*
X102912857Y-106066666D01*
X103055714Y-106066666D01*
X103150952Y-106114285D01*
X103198571Y-106161904D01*
X103246190Y-106257142D01*
X103246190Y-106638095D01*
X102722380Y-105733333D02*
X102722380Y-105066666D01*
X103722380Y-105495238D01*
X67317142Y-103842857D02*
X67364761Y-103890476D01*
X67412380Y-104033333D01*
X67412380Y-104128571D01*
X67364761Y-104271428D01*
X67269523Y-104366666D01*
X67174285Y-104414285D01*
X66983809Y-104461904D01*
X66840952Y-104461904D01*
X66650476Y-104414285D01*
X66555238Y-104366666D01*
X66460000Y-104271428D01*
X66412380Y-104128571D01*
X66412380Y-104033333D01*
X66460000Y-103890476D01*
X66507619Y-103842857D01*
X67412380Y-102890476D02*
X67412380Y-103461904D01*
X67412380Y-103176190D02*
X66412380Y-103176190D01*
X66555238Y-103271428D01*
X66650476Y-103366666D01*
X66698095Y-103461904D01*
X66412380Y-102033333D02*
X66412380Y-102223809D01*
X66460000Y-102319047D01*
X66507619Y-102366666D01*
X66650476Y-102461904D01*
X66840952Y-102509523D01*
X67221904Y-102509523D01*
X67317142Y-102461904D01*
X67364761Y-102414285D01*
X67412380Y-102319047D01*
X67412380Y-102128571D01*
X67364761Y-102033333D01*
X67317142Y-101985714D01*
X67221904Y-101938095D01*
X66983809Y-101938095D01*
X66888571Y-101985714D01*
X66840952Y-102033333D01*
X66793333Y-102128571D01*
X66793333Y-102319047D01*
X66840952Y-102414285D01*
X66888571Y-102461904D01*
X66983809Y-102509523D01*
X64897142Y-117842857D02*
X64944761Y-117890476D01*
X64992380Y-118033333D01*
X64992380Y-118128571D01*
X64944761Y-118271428D01*
X64849523Y-118366666D01*
X64754285Y-118414285D01*
X64563809Y-118461904D01*
X64420952Y-118461904D01*
X64230476Y-118414285D01*
X64135238Y-118366666D01*
X64040000Y-118271428D01*
X63992380Y-118128571D01*
X63992380Y-118033333D01*
X64040000Y-117890476D01*
X64087619Y-117842857D01*
X64992380Y-116890476D02*
X64992380Y-117461904D01*
X64992380Y-117176190D02*
X63992380Y-117176190D01*
X64135238Y-117271428D01*
X64230476Y-117366666D01*
X64278095Y-117461904D01*
X63992380Y-115985714D02*
X63992380Y-116461904D01*
X64468571Y-116509523D01*
X64420952Y-116461904D01*
X64373333Y-116366666D01*
X64373333Y-116128571D01*
X64420952Y-116033333D01*
X64468571Y-115985714D01*
X64563809Y-115938095D01*
X64801904Y-115938095D01*
X64897142Y-115985714D01*
X64944761Y-116033333D01*
X64992380Y-116128571D01*
X64992380Y-116366666D01*
X64944761Y-116461904D01*
X64897142Y-116509523D01*
X61517142Y-112042857D02*
X61564761Y-112090476D01*
X61612380Y-112233333D01*
X61612380Y-112328571D01*
X61564761Y-112471428D01*
X61469523Y-112566666D01*
X61374285Y-112614285D01*
X61183809Y-112661904D01*
X61040952Y-112661904D01*
X60850476Y-112614285D01*
X60755238Y-112566666D01*
X60660000Y-112471428D01*
X60612380Y-112328571D01*
X60612380Y-112233333D01*
X60660000Y-112090476D01*
X60707619Y-112042857D01*
X61612380Y-111090476D02*
X61612380Y-111661904D01*
X61612380Y-111376190D02*
X60612380Y-111376190D01*
X60755238Y-111471428D01*
X60850476Y-111566666D01*
X60898095Y-111661904D01*
X60945714Y-110233333D02*
X61612380Y-110233333D01*
X60564761Y-110471428D02*
X61279047Y-110709523D01*
X61279047Y-110090476D01*
X69397142Y-109642857D02*
X69444761Y-109690476D01*
X69492380Y-109833333D01*
X69492380Y-109928571D01*
X69444761Y-110071428D01*
X69349523Y-110166666D01*
X69254285Y-110214285D01*
X69063809Y-110261904D01*
X68920952Y-110261904D01*
X68730476Y-110214285D01*
X68635238Y-110166666D01*
X68540000Y-110071428D01*
X68492380Y-109928571D01*
X68492380Y-109833333D01*
X68540000Y-109690476D01*
X68587619Y-109642857D01*
X69492380Y-108690476D02*
X69492380Y-109261904D01*
X69492380Y-108976190D02*
X68492380Y-108976190D01*
X68635238Y-109071428D01*
X68730476Y-109166666D01*
X68778095Y-109261904D01*
X68492380Y-108357142D02*
X68492380Y-107738095D01*
X68873333Y-108071428D01*
X68873333Y-107928571D01*
X68920952Y-107833333D01*
X68968571Y-107785714D01*
X69063809Y-107738095D01*
X69301904Y-107738095D01*
X69397142Y-107785714D01*
X69444761Y-107833333D01*
X69492380Y-107928571D01*
X69492380Y-108214285D01*
X69444761Y-108309523D01*
X69397142Y-108357142D01*
X67117142Y-128642857D02*
X67164761Y-128690476D01*
X67212380Y-128833333D01*
X67212380Y-128928571D01*
X67164761Y-129071428D01*
X67069523Y-129166666D01*
X66974285Y-129214285D01*
X66783809Y-129261904D01*
X66640952Y-129261904D01*
X66450476Y-129214285D01*
X66355238Y-129166666D01*
X66260000Y-129071428D01*
X66212380Y-128928571D01*
X66212380Y-128833333D01*
X66260000Y-128690476D01*
X66307619Y-128642857D01*
X67212380Y-127690476D02*
X67212380Y-128261904D01*
X67212380Y-127976190D02*
X66212380Y-127976190D01*
X66355238Y-128071428D01*
X66450476Y-128166666D01*
X66498095Y-128261904D01*
X66307619Y-127309523D02*
X66260000Y-127261904D01*
X66212380Y-127166666D01*
X66212380Y-126928571D01*
X66260000Y-126833333D01*
X66307619Y-126785714D01*
X66402857Y-126738095D01*
X66498095Y-126738095D01*
X66640952Y-126785714D01*
X67212380Y-127357142D01*
X67212380Y-126738095D01*
X105658333Y-130757142D02*
X105610714Y-130804761D01*
X105467857Y-130852380D01*
X105372619Y-130852380D01*
X105229761Y-130804761D01*
X105134523Y-130709523D01*
X105086904Y-130614285D01*
X105039285Y-130423809D01*
X105039285Y-130280952D01*
X105086904Y-130090476D01*
X105134523Y-129995238D01*
X105229761Y-129900000D01*
X105372619Y-129852380D01*
X105467857Y-129852380D01*
X105610714Y-129900000D01*
X105658333Y-129947619D01*
X105991666Y-129852380D02*
X106658333Y-129852380D01*
X106229761Y-130852380D01*
X90626190Y-109776190D02*
X91102380Y-109776190D01*
X90102380Y-110109523D02*
X90626190Y-109776190D01*
X90102380Y-109442857D01*
X91102380Y-108585714D02*
X91102380Y-109157142D01*
X91102380Y-108871428D02*
X90102380Y-108871428D01*
X90245238Y-108966666D01*
X90340476Y-109061904D01*
X90388095Y-109157142D01*
X109198095Y-120972380D02*
X109198095Y-121781904D01*
X109245714Y-121877142D01*
X109293333Y-121924761D01*
X109388571Y-121972380D01*
X109579047Y-121972380D01*
X109674285Y-121924761D01*
X109721904Y-121877142D01*
X109769523Y-121781904D01*
X109769523Y-120972380D01*
X110769523Y-121972380D02*
X110198095Y-121972380D01*
X110483809Y-121972380D02*
X110483809Y-120972380D01*
X110388571Y-121115238D01*
X110293333Y-121210476D01*
X110198095Y-121258095D01*
X97582380Y-105566666D02*
X97106190Y-105900000D01*
X97582380Y-106138095D02*
X96582380Y-106138095D01*
X96582380Y-105757142D01*
X96630000Y-105661904D01*
X96677619Y-105614285D01*
X96772857Y-105566666D01*
X96915714Y-105566666D01*
X97010952Y-105614285D01*
X97058571Y-105661904D01*
X97106190Y-105757142D01*
X97106190Y-106138095D01*
X96582380Y-104709523D02*
X96582380Y-104900000D01*
X96630000Y-104995238D01*
X96677619Y-105042857D01*
X96820476Y-105138095D01*
X97010952Y-105185714D01*
X97391904Y-105185714D01*
X97487142Y-105138095D01*
X97534761Y-105090476D01*
X97582380Y-104995238D01*
X97582380Y-104804761D01*
X97534761Y-104709523D01*
X97487142Y-104661904D01*
X97391904Y-104614285D01*
X97153809Y-104614285D01*
X97058571Y-104661904D01*
X97010952Y-104709523D01*
X96963333Y-104804761D01*
X96963333Y-104995238D01*
X97010952Y-105090476D01*
X97058571Y-105138095D01*
X97153809Y-105185714D01*
X97022380Y-111166666D02*
X96546190Y-111500000D01*
X97022380Y-111738095D02*
X96022380Y-111738095D01*
X96022380Y-111357142D01*
X96070000Y-111261904D01*
X96117619Y-111214285D01*
X96212857Y-111166666D01*
X96355714Y-111166666D01*
X96450952Y-111214285D01*
X96498571Y-111261904D01*
X96546190Y-111357142D01*
X96546190Y-111738095D01*
X96022380Y-110261904D02*
X96022380Y-110738095D01*
X96498571Y-110785714D01*
X96450952Y-110738095D01*
X96403333Y-110642857D01*
X96403333Y-110404761D01*
X96450952Y-110309523D01*
X96498571Y-110261904D01*
X96593809Y-110214285D01*
X96831904Y-110214285D01*
X96927142Y-110261904D01*
X96974761Y-110309523D01*
X97022380Y-110404761D01*
X97022380Y-110642857D01*
X96974761Y-110738095D01*
X96927142Y-110785714D01*
X94082380Y-128466666D02*
X93606190Y-128800000D01*
X94082380Y-129038095D02*
X93082380Y-129038095D01*
X93082380Y-128657142D01*
X93130000Y-128561904D01*
X93177619Y-128514285D01*
X93272857Y-128466666D01*
X93415714Y-128466666D01*
X93510952Y-128514285D01*
X93558571Y-128561904D01*
X93606190Y-128657142D01*
X93606190Y-129038095D01*
X93415714Y-127609523D02*
X94082380Y-127609523D01*
X93034761Y-127847619D02*
X93749047Y-128085714D01*
X93749047Y-127466666D01*
X103833333Y-124652380D02*
X103500000Y-124176190D01*
X103261904Y-124652380D02*
X103261904Y-123652380D01*
X103642857Y-123652380D01*
X103738095Y-123700000D01*
X103785714Y-123747619D01*
X103833333Y-123842857D01*
X103833333Y-123985714D01*
X103785714Y-124080952D01*
X103738095Y-124128571D01*
X103642857Y-124176190D01*
X103261904Y-124176190D01*
X104166666Y-123652380D02*
X104785714Y-123652380D01*
X104452380Y-124033333D01*
X104595238Y-124033333D01*
X104690476Y-124080952D01*
X104738095Y-124128571D01*
X104785714Y-124223809D01*
X104785714Y-124461904D01*
X104738095Y-124557142D01*
X104690476Y-124604761D01*
X104595238Y-124652380D01*
X104309523Y-124652380D01*
X104214285Y-124604761D01*
X104166666Y-124557142D01*
X93982380Y-122166666D02*
X93506190Y-122500000D01*
X93982380Y-122738095D02*
X92982380Y-122738095D01*
X92982380Y-122357142D01*
X93030000Y-122261904D01*
X93077619Y-122214285D01*
X93172857Y-122166666D01*
X93315714Y-122166666D01*
X93410952Y-122214285D01*
X93458571Y-122261904D01*
X93506190Y-122357142D01*
X93506190Y-122738095D01*
X93077619Y-121785714D02*
X93030000Y-121738095D01*
X92982380Y-121642857D01*
X92982380Y-121404761D01*
X93030000Y-121309523D01*
X93077619Y-121261904D01*
X93172857Y-121214285D01*
X93268095Y-121214285D01*
X93410952Y-121261904D01*
X93982380Y-121833333D01*
X93982380Y-121214285D01*
X105022380Y-119766666D02*
X104546190Y-120100000D01*
X105022380Y-120338095D02*
X104022380Y-120338095D01*
X104022380Y-119957142D01*
X104070000Y-119861904D01*
X104117619Y-119814285D01*
X104212857Y-119766666D01*
X104355714Y-119766666D01*
X104450952Y-119814285D01*
X104498571Y-119861904D01*
X104546190Y-119957142D01*
X104546190Y-120338095D01*
X105022380Y-118814285D02*
X105022380Y-119385714D01*
X105022380Y-119100000D02*
X104022380Y-119100000D01*
X104165238Y-119195238D01*
X104260476Y-119290476D01*
X104308095Y-119385714D01*
D14*
X97860238Y-127374523D02*
X97860238Y-126104523D01*
X99190714Y-127253571D02*
X99130238Y-127314047D01*
X98948809Y-127374523D01*
X98827857Y-127374523D01*
X98646428Y-127314047D01*
X98525476Y-127193095D01*
X98465000Y-127072142D01*
X98404523Y-126830238D01*
X98404523Y-126648809D01*
X98465000Y-126406904D01*
X98525476Y-126285952D01*
X98646428Y-126165000D01*
X98827857Y-126104523D01*
X98948809Y-126104523D01*
X99130238Y-126165000D01*
X99190714Y-126225476D01*
X99674523Y-126225476D02*
X99735000Y-126165000D01*
X99855952Y-126104523D01*
X100158333Y-126104523D01*
X100279285Y-126165000D01*
X100339761Y-126225476D01*
X100400238Y-126346428D01*
X100400238Y-126467380D01*
X100339761Y-126648809D01*
X99614047Y-127374523D01*
X100400238Y-127374523D01*
X97860238Y-121374523D02*
X97860238Y-120104523D01*
X99190714Y-121253571D02*
X99130238Y-121314047D01*
X98948809Y-121374523D01*
X98827857Y-121374523D01*
X98646428Y-121314047D01*
X98525476Y-121193095D01*
X98465000Y-121072142D01*
X98404523Y-120830238D01*
X98404523Y-120648809D01*
X98465000Y-120406904D01*
X98525476Y-120285952D01*
X98646428Y-120165000D01*
X98827857Y-120104523D01*
X98948809Y-120104523D01*
X99130238Y-120165000D01*
X99190714Y-120225476D01*
X100400238Y-121374523D02*
X99674523Y-121374523D01*
X100037380Y-121374523D02*
X100037380Y-120104523D01*
X99916428Y-120285952D01*
X99795476Y-120406904D01*
X99674523Y-120467380D01*
D10*
X95497142Y-108242857D02*
X95544761Y-108290476D01*
X95592380Y-108433333D01*
X95592380Y-108528571D01*
X95544761Y-108671428D01*
X95449523Y-108766666D01*
X95354285Y-108814285D01*
X95163809Y-108861904D01*
X95020952Y-108861904D01*
X94830476Y-108814285D01*
X94735238Y-108766666D01*
X94640000Y-108671428D01*
X94592380Y-108528571D01*
X94592380Y-108433333D01*
X94640000Y-108290476D01*
X94687619Y-108242857D01*
X95592380Y-107290476D02*
X95592380Y-107861904D01*
X95592380Y-107576190D02*
X94592380Y-107576190D01*
X94735238Y-107671428D01*
X94830476Y-107766666D01*
X94878095Y-107861904D01*
X95592380Y-106338095D02*
X95592380Y-106909523D01*
X95592380Y-106623809D02*
X94592380Y-106623809D01*
X94735238Y-106719047D01*
X94830476Y-106814285D01*
X94878095Y-106909523D01*
X100477142Y-115657142D02*
X100429523Y-115704761D01*
X100286666Y-115752380D01*
X100191428Y-115752380D01*
X100048571Y-115704761D01*
X99953333Y-115609523D01*
X99905714Y-115514285D01*
X99858095Y-115323809D01*
X99858095Y-115180952D01*
X99905714Y-114990476D01*
X99953333Y-114895238D01*
X100048571Y-114800000D01*
X100191428Y-114752380D01*
X100286666Y-114752380D01*
X100429523Y-114800000D01*
X100477142Y-114847619D01*
X101429523Y-115752380D02*
X100858095Y-115752380D01*
X101143809Y-115752380D02*
X101143809Y-114752380D01*
X101048571Y-114895238D01*
X100953333Y-114990476D01*
X100858095Y-115038095D01*
X102048571Y-114752380D02*
X102143809Y-114752380D01*
X102239047Y-114800000D01*
X102286666Y-114847619D01*
X102334285Y-114942857D01*
X102381904Y-115133333D01*
X102381904Y-115371428D01*
X102334285Y-115561904D01*
X102286666Y-115657142D01*
X102239047Y-115704761D01*
X102143809Y-115752380D01*
X102048571Y-115752380D01*
X101953333Y-115704761D01*
X101905714Y-115657142D01*
X101858095Y-115561904D01*
X101810476Y-115371428D01*
X101810476Y-115133333D01*
X101858095Y-114942857D01*
X101905714Y-114847619D01*
X101953333Y-114800000D01*
X102048571Y-114752380D01*
X105217142Y-112866666D02*
X105264761Y-112914285D01*
X105312380Y-113057142D01*
X105312380Y-113152380D01*
X105264761Y-113295238D01*
X105169523Y-113390476D01*
X105074285Y-113438095D01*
X104883809Y-113485714D01*
X104740952Y-113485714D01*
X104550476Y-113438095D01*
X104455238Y-113390476D01*
X104360000Y-113295238D01*
X104312380Y-113152380D01*
X104312380Y-113057142D01*
X104360000Y-112914285D01*
X104407619Y-112866666D01*
X105312380Y-112390476D02*
X105312380Y-112200000D01*
X105264761Y-112104761D01*
X105217142Y-112057142D01*
X105074285Y-111961904D01*
X104883809Y-111914285D01*
X104502857Y-111914285D01*
X104407619Y-111961904D01*
X104360000Y-112009523D01*
X104312380Y-112104761D01*
X104312380Y-112295238D01*
X104360000Y-112390476D01*
X104407619Y-112438095D01*
X104502857Y-112485714D01*
X104740952Y-112485714D01*
X104836190Y-112438095D01*
X104883809Y-112390476D01*
X104931428Y-112295238D01*
X104931428Y-112104761D01*
X104883809Y-112009523D01*
X104836190Y-111961904D01*
X104740952Y-111914285D01*
X94833333Y-114017142D02*
X94785714Y-114064761D01*
X94642857Y-114112380D01*
X94547619Y-114112380D01*
X94404761Y-114064761D01*
X94309523Y-113969523D01*
X94261904Y-113874285D01*
X94214285Y-113683809D01*
X94214285Y-113540952D01*
X94261904Y-113350476D01*
X94309523Y-113255238D01*
X94404761Y-113160000D01*
X94547619Y-113112380D01*
X94642857Y-113112380D01*
X94785714Y-113160000D01*
X94833333Y-113207619D01*
X95404761Y-113540952D02*
X95309523Y-113493333D01*
X95261904Y-113445714D01*
X95214285Y-113350476D01*
X95214285Y-113302857D01*
X95261904Y-113207619D01*
X95309523Y-113160000D01*
X95404761Y-113112380D01*
X95595238Y-113112380D01*
X95690476Y-113160000D01*
X95738095Y-113207619D01*
X95785714Y-113302857D01*
X95785714Y-113350476D01*
X95738095Y-113445714D01*
X95690476Y-113493333D01*
X95595238Y-113540952D01*
X95404761Y-113540952D01*
X95309523Y-113588571D01*
X95261904Y-113636190D01*
X95214285Y-113731428D01*
X95214285Y-113921904D01*
X95261904Y-114017142D01*
X95309523Y-114064761D01*
X95404761Y-114112380D01*
X95595238Y-114112380D01*
X95690476Y-114064761D01*
X95738095Y-114017142D01*
X95785714Y-113921904D01*
X95785714Y-113731428D01*
X95738095Y-113636190D01*
X95690476Y-113588571D01*
X95595238Y-113540952D01*
X107733333Y-112557142D02*
X107685714Y-112604761D01*
X107542857Y-112652380D01*
X107447619Y-112652380D01*
X107304761Y-112604761D01*
X107209523Y-112509523D01*
X107161904Y-112414285D01*
X107114285Y-112223809D01*
X107114285Y-112080952D01*
X107161904Y-111890476D01*
X107209523Y-111795238D01*
X107304761Y-111700000D01*
X107447619Y-111652380D01*
X107542857Y-111652380D01*
X107685714Y-111700000D01*
X107733333Y-111747619D01*
X108590476Y-111652380D02*
X108400000Y-111652380D01*
X108304761Y-111700000D01*
X108257142Y-111747619D01*
X108161904Y-111890476D01*
X108114285Y-112080952D01*
X108114285Y-112461904D01*
X108161904Y-112557142D01*
X108209523Y-112604761D01*
X108304761Y-112652380D01*
X108495238Y-112652380D01*
X108590476Y-112604761D01*
X108638095Y-112557142D01*
X108685714Y-112461904D01*
X108685714Y-112223809D01*
X108638095Y-112128571D01*
X108590476Y-112080952D01*
X108495238Y-112033333D01*
X108304761Y-112033333D01*
X108209523Y-112080952D01*
X108161904Y-112128571D01*
X108114285Y-112223809D01*
X92933333Y-113557142D02*
X92885714Y-113604761D01*
X92742857Y-113652380D01*
X92647619Y-113652380D01*
X92504761Y-113604761D01*
X92409523Y-113509523D01*
X92361904Y-113414285D01*
X92314285Y-113223809D01*
X92314285Y-113080952D01*
X92361904Y-112890476D01*
X92409523Y-112795238D01*
X92504761Y-112700000D01*
X92647619Y-112652380D01*
X92742857Y-112652380D01*
X92885714Y-112700000D01*
X92933333Y-112747619D01*
X93838095Y-112652380D02*
X93361904Y-112652380D01*
X93314285Y-113128571D01*
X93361904Y-113080952D01*
X93457142Y-113033333D01*
X93695238Y-113033333D01*
X93790476Y-113080952D01*
X93838095Y-113128571D01*
X93885714Y-113223809D01*
X93885714Y-113461904D01*
X93838095Y-113557142D01*
X93790476Y-113604761D01*
X93695238Y-113652380D01*
X93457142Y-113652380D01*
X93361904Y-113604761D01*
X93314285Y-113557142D01*
X93133333Y-105057142D02*
X93085714Y-105104761D01*
X92942857Y-105152380D01*
X92847619Y-105152380D01*
X92704761Y-105104761D01*
X92609523Y-105009523D01*
X92561904Y-104914285D01*
X92514285Y-104723809D01*
X92514285Y-104580952D01*
X92561904Y-104390476D01*
X92609523Y-104295238D01*
X92704761Y-104200000D01*
X92847619Y-104152380D01*
X92942857Y-104152380D01*
X93085714Y-104200000D01*
X93133333Y-104247619D01*
X93990476Y-104485714D02*
X93990476Y-105152380D01*
X93752380Y-104104761D02*
X93514285Y-104819047D01*
X94133333Y-104819047D01*
X113717142Y-118966666D02*
X113764761Y-119014285D01*
X113812380Y-119157142D01*
X113812380Y-119252380D01*
X113764761Y-119395238D01*
X113669523Y-119490476D01*
X113574285Y-119538095D01*
X113383809Y-119585714D01*
X113240952Y-119585714D01*
X113050476Y-119538095D01*
X112955238Y-119490476D01*
X112860000Y-119395238D01*
X112812380Y-119252380D01*
X112812380Y-119157142D01*
X112860000Y-119014285D01*
X112907619Y-118966666D01*
X112812380Y-118633333D02*
X112812380Y-118014285D01*
X113193333Y-118347619D01*
X113193333Y-118204761D01*
X113240952Y-118109523D01*
X113288571Y-118061904D01*
X113383809Y-118014285D01*
X113621904Y-118014285D01*
X113717142Y-118061904D01*
X113764761Y-118109523D01*
X113812380Y-118204761D01*
X113812380Y-118490476D01*
X113764761Y-118585714D01*
X113717142Y-118633333D01*
X107493333Y-123027142D02*
X107445714Y-123074761D01*
X107302857Y-123122380D01*
X107207619Y-123122380D01*
X107064761Y-123074761D01*
X106969523Y-122979523D01*
X106921904Y-122884285D01*
X106874285Y-122693809D01*
X106874285Y-122550952D01*
X106921904Y-122360476D01*
X106969523Y-122265238D01*
X107064761Y-122170000D01*
X107207619Y-122122380D01*
X107302857Y-122122380D01*
X107445714Y-122170000D01*
X107493333Y-122217619D01*
X107874285Y-122217619D02*
X107921904Y-122170000D01*
X108017142Y-122122380D01*
X108255238Y-122122380D01*
X108350476Y-122170000D01*
X108398095Y-122217619D01*
X108445714Y-122312857D01*
X108445714Y-122408095D01*
X108398095Y-122550952D01*
X107826666Y-123122380D01*
X108445714Y-123122380D01*
X106057142Y-118886666D02*
X106104761Y-118934285D01*
X106152380Y-119077142D01*
X106152380Y-119172380D01*
X106104761Y-119315238D01*
X106009523Y-119410476D01*
X105914285Y-119458095D01*
X105723809Y-119505714D01*
X105580952Y-119505714D01*
X105390476Y-119458095D01*
X105295238Y-119410476D01*
X105200000Y-119315238D01*
X105152380Y-119172380D01*
X105152380Y-119077142D01*
X105200000Y-118934285D01*
X105247619Y-118886666D01*
X106152380Y-117934285D02*
X106152380Y-118505714D01*
X106152380Y-118220000D02*
X105152380Y-118220000D01*
X105295238Y-118315238D01*
X105390476Y-118410476D01*
X105438095Y-118505714D01*
D14*
X99032380Y-109604523D02*
X99032380Y-110632619D01*
X99092857Y-110753571D01*
X99153333Y-110814047D01*
X99274285Y-110874523D01*
X99516190Y-110874523D01*
X99637142Y-110814047D01*
X99697619Y-110753571D01*
X99758095Y-110632619D01*
X99758095Y-109604523D01*
X100241904Y-109604523D02*
X101028095Y-109604523D01*
X100604761Y-110088333D01*
X100786190Y-110088333D01*
X100907142Y-110148809D01*
X100967619Y-110209285D01*
X101028095Y-110330238D01*
X101028095Y-110632619D01*
X100967619Y-110753571D01*
X100907142Y-110814047D01*
X100786190Y-110874523D01*
X100423333Y-110874523D01*
X100302380Y-110814047D01*
X100241904Y-110753571D01*
X108832380Y-106064523D02*
X108832380Y-107092619D01*
X108892857Y-107213571D01*
X108953333Y-107274047D01*
X109074285Y-107334523D01*
X109316190Y-107334523D01*
X109437142Y-107274047D01*
X109497619Y-107213571D01*
X109558095Y-107092619D01*
X109558095Y-106064523D01*
X110102380Y-106185476D02*
X110162857Y-106125000D01*
X110283809Y-106064523D01*
X110586190Y-106064523D01*
X110707142Y-106125000D01*
X110767619Y-106185476D01*
X110828095Y-106306428D01*
X110828095Y-106427380D01*
X110767619Y-106608809D01*
X110041904Y-107334523D01*
X110828095Y-107334523D01*
D10*
X107666666Y-113528571D02*
X107333333Y-113528571D01*
X107333333Y-114052380D02*
X107333333Y-113052380D01*
X107809523Y-113052380D01*
X108714285Y-114052380D02*
X108142857Y-114052380D01*
X108428571Y-114052380D02*
X108428571Y-113052380D01*
X108333333Y-113195238D01*
X108238095Y-113290476D01*
X108142857Y-113338095D01*
%LPC*%
D15*
X105510000Y-103910000D03*
X108710000Y-103910000D03*
X105510000Y-99010000D03*
X108710000Y-99010000D03*
D16*
X84175000Y-119250000D03*
X84175000Y-114750000D03*
X76225000Y-114750000D03*
X76225000Y-119250000D03*
X76125000Y-107750000D03*
X76125000Y-112250000D03*
X84075000Y-112250000D03*
X84075000Y-107750000D03*
G36*
G01*
X94530000Y-104500000D02*
X94870000Y-104500000D01*
G75*
G02*
X95010000Y-104640000I0J-140000D01*
G01*
X95010000Y-104920000D01*
G75*
G02*
X94870000Y-105060000I-140000J0D01*
G01*
X94530000Y-105060000D01*
G75*
G02*
X94390000Y-104920000I0J140000D01*
G01*
X94390000Y-104640000D01*
G75*
G02*
X94530000Y-104500000I140000J0D01*
G01*
G37*
G36*
G01*
X94530000Y-103540000D02*
X94870000Y-103540000D01*
G75*
G02*
X95010000Y-103680000I0J-140000D01*
G01*
X95010000Y-103960000D01*
G75*
G02*
X94870000Y-104100000I-140000J0D01*
G01*
X94530000Y-104100000D01*
G75*
G02*
X94390000Y-103960000I0J140000D01*
G01*
X94390000Y-103680000D01*
G75*
G02*
X94530000Y-103540000I140000J0D01*
G01*
G37*
G36*
G01*
X65440000Y-101285000D02*
X65440000Y-100915000D01*
G75*
G02*
X65575000Y-100780000I135000J0D01*
G01*
X65845000Y-100780000D01*
G75*
G02*
X65980000Y-100915000I0J-135000D01*
G01*
X65980000Y-101285000D01*
G75*
G02*
X65845000Y-101420000I-135000J0D01*
G01*
X65575000Y-101420000D01*
G75*
G02*
X65440000Y-101285000I0J135000D01*
G01*
G37*
G36*
G01*
X64420000Y-101285000D02*
X64420000Y-100915000D01*
G75*
G02*
X64555000Y-100780000I135000J0D01*
G01*
X64825000Y-100780000D01*
G75*
G02*
X64960000Y-100915000I0J-135000D01*
G01*
X64960000Y-101285000D01*
G75*
G02*
X64825000Y-101420000I-135000J0D01*
G01*
X64555000Y-101420000D01*
G75*
G02*
X64420000Y-101285000I0J135000D01*
G01*
G37*
G36*
G01*
X65885000Y-119560000D02*
X65515000Y-119560000D01*
G75*
G02*
X65380000Y-119425000I0J135000D01*
G01*
X65380000Y-119155000D01*
G75*
G02*
X65515000Y-119020000I135000J0D01*
G01*
X65885000Y-119020000D01*
G75*
G02*
X66020000Y-119155000I0J-135000D01*
G01*
X66020000Y-119425000D01*
G75*
G02*
X65885000Y-119560000I-135000J0D01*
G01*
G37*
G36*
G01*
X65885000Y-120580000D02*
X65515000Y-120580000D01*
G75*
G02*
X65380000Y-120445000I0J135000D01*
G01*
X65380000Y-120175000D01*
G75*
G02*
X65515000Y-120040000I135000J0D01*
G01*
X65885000Y-120040000D01*
G75*
G02*
X66020000Y-120175000I0J-135000D01*
G01*
X66020000Y-120445000D01*
G75*
G02*
X65885000Y-120580000I-135000J0D01*
G01*
G37*
G36*
G01*
X59815000Y-109050000D02*
X60185000Y-109050000D01*
G75*
G02*
X60320000Y-109185000I0J-135000D01*
G01*
X60320000Y-109455000D01*
G75*
G02*
X60185000Y-109590000I-135000J0D01*
G01*
X59815000Y-109590000D01*
G75*
G02*
X59680000Y-109455000I0J135000D01*
G01*
X59680000Y-109185000D01*
G75*
G02*
X59815000Y-109050000I135000J0D01*
G01*
G37*
G36*
G01*
X59815000Y-108030000D02*
X60185000Y-108030000D01*
G75*
G02*
X60320000Y-108165000I0J-135000D01*
G01*
X60320000Y-108435000D01*
G75*
G02*
X60185000Y-108570000I-135000J0D01*
G01*
X59815000Y-108570000D01*
G75*
G02*
X59680000Y-108435000I0J135000D01*
G01*
X59680000Y-108165000D01*
G75*
G02*
X59815000Y-108030000I135000J0D01*
G01*
G37*
G36*
G01*
X70385000Y-111260000D02*
X70015000Y-111260000D01*
G75*
G02*
X69880000Y-111125000I0J135000D01*
G01*
X69880000Y-110855000D01*
G75*
G02*
X70015000Y-110720000I135000J0D01*
G01*
X70385000Y-110720000D01*
G75*
G02*
X70520000Y-110855000I0J-135000D01*
G01*
X70520000Y-111125000D01*
G75*
G02*
X70385000Y-111260000I-135000J0D01*
G01*
G37*
G36*
G01*
X70385000Y-112280000D02*
X70015000Y-112280000D01*
G75*
G02*
X69880000Y-112145000I0J135000D01*
G01*
X69880000Y-111875000D01*
G75*
G02*
X70015000Y-111740000I135000J0D01*
G01*
X70385000Y-111740000D01*
G75*
G02*
X70520000Y-111875000I0J-135000D01*
G01*
X70520000Y-112145000D01*
G75*
G02*
X70385000Y-112280000I-135000J0D01*
G01*
G37*
G36*
G01*
X65415000Y-125640000D02*
X65785000Y-125640000D01*
G75*
G02*
X65920000Y-125775000I0J-135000D01*
G01*
X65920000Y-126045000D01*
G75*
G02*
X65785000Y-126180000I-135000J0D01*
G01*
X65415000Y-126180000D01*
G75*
G02*
X65280000Y-126045000I0J135000D01*
G01*
X65280000Y-125775000D01*
G75*
G02*
X65415000Y-125640000I135000J0D01*
G01*
G37*
G36*
G01*
X65415000Y-124620000D02*
X65785000Y-124620000D01*
G75*
G02*
X65920000Y-124755000I0J-135000D01*
G01*
X65920000Y-125025000D01*
G75*
G02*
X65785000Y-125160000I-135000J0D01*
G01*
X65415000Y-125160000D01*
G75*
G02*
X65280000Y-125025000I0J135000D01*
G01*
X65280000Y-124755000D01*
G75*
G02*
X65415000Y-124620000I135000J0D01*
G01*
G37*
G36*
G01*
X101915000Y-106140000D02*
X102285000Y-106140000D01*
G75*
G02*
X102420000Y-106275000I0J-135000D01*
G01*
X102420000Y-106545000D01*
G75*
G02*
X102285000Y-106680000I-135000J0D01*
G01*
X101915000Y-106680000D01*
G75*
G02*
X101780000Y-106545000I0J135000D01*
G01*
X101780000Y-106275000D01*
G75*
G02*
X101915000Y-106140000I135000J0D01*
G01*
G37*
G36*
G01*
X101915000Y-105120000D02*
X102285000Y-105120000D01*
G75*
G02*
X102420000Y-105255000I0J-135000D01*
G01*
X102420000Y-105525000D01*
G75*
G02*
X102285000Y-105660000I-135000J0D01*
G01*
X101915000Y-105660000D01*
G75*
G02*
X101780000Y-105525000I0J135000D01*
G01*
X101780000Y-105255000D01*
G75*
G02*
X101915000Y-105120000I135000J0D01*
G01*
G37*
G36*
G01*
X65630000Y-103400000D02*
X65970000Y-103400000D01*
G75*
G02*
X66110000Y-103540000I0J-140000D01*
G01*
X66110000Y-103820000D01*
G75*
G02*
X65970000Y-103960000I-140000J0D01*
G01*
X65630000Y-103960000D01*
G75*
G02*
X65490000Y-103820000I0J140000D01*
G01*
X65490000Y-103540000D01*
G75*
G02*
X65630000Y-103400000I140000J0D01*
G01*
G37*
G36*
G01*
X65630000Y-102440000D02*
X65970000Y-102440000D01*
G75*
G02*
X66110000Y-102580000I0J-140000D01*
G01*
X66110000Y-102860000D01*
G75*
G02*
X65970000Y-103000000I-140000J0D01*
G01*
X65630000Y-103000000D01*
G75*
G02*
X65490000Y-102860000I0J140000D01*
G01*
X65490000Y-102580000D01*
G75*
G02*
X65630000Y-102440000I140000J0D01*
G01*
G37*
G36*
G01*
X65870000Y-117000000D02*
X65530000Y-117000000D01*
G75*
G02*
X65390000Y-116860000I0J140000D01*
G01*
X65390000Y-116580000D01*
G75*
G02*
X65530000Y-116440000I140000J0D01*
G01*
X65870000Y-116440000D01*
G75*
G02*
X66010000Y-116580000I0J-140000D01*
G01*
X66010000Y-116860000D01*
G75*
G02*
X65870000Y-117000000I-140000J0D01*
G01*
G37*
G36*
G01*
X65870000Y-117960000D02*
X65530000Y-117960000D01*
G75*
G02*
X65390000Y-117820000I0J140000D01*
G01*
X65390000Y-117540000D01*
G75*
G02*
X65530000Y-117400000I140000J0D01*
G01*
X65870000Y-117400000D01*
G75*
G02*
X66010000Y-117540000I0J-140000D01*
G01*
X66010000Y-117820000D01*
G75*
G02*
X65870000Y-117960000I-140000J0D01*
G01*
G37*
G36*
G01*
X59830000Y-111600000D02*
X60170000Y-111600000D01*
G75*
G02*
X60310000Y-111740000I0J-140000D01*
G01*
X60310000Y-112020000D01*
G75*
G02*
X60170000Y-112160000I-140000J0D01*
G01*
X59830000Y-112160000D01*
G75*
G02*
X59690000Y-112020000I0J140000D01*
G01*
X59690000Y-111740000D01*
G75*
G02*
X59830000Y-111600000I140000J0D01*
G01*
G37*
G36*
G01*
X59830000Y-110640000D02*
X60170000Y-110640000D01*
G75*
G02*
X60310000Y-110780000I0J-140000D01*
G01*
X60310000Y-111060000D01*
G75*
G02*
X60170000Y-111200000I-140000J0D01*
G01*
X59830000Y-111200000D01*
G75*
G02*
X59690000Y-111060000I0J140000D01*
G01*
X59690000Y-110780000D01*
G75*
G02*
X59830000Y-110640000I140000J0D01*
G01*
G37*
G36*
G01*
X70370000Y-108800000D02*
X70030000Y-108800000D01*
G75*
G02*
X69890000Y-108660000I0J140000D01*
G01*
X69890000Y-108380000D01*
G75*
G02*
X70030000Y-108240000I140000J0D01*
G01*
X70370000Y-108240000D01*
G75*
G02*
X70510000Y-108380000I0J-140000D01*
G01*
X70510000Y-108660000D01*
G75*
G02*
X70370000Y-108800000I-140000J0D01*
G01*
G37*
G36*
G01*
X70370000Y-109760000D02*
X70030000Y-109760000D01*
G75*
G02*
X69890000Y-109620000I0J140000D01*
G01*
X69890000Y-109340000D01*
G75*
G02*
X70030000Y-109200000I140000J0D01*
G01*
X70370000Y-109200000D01*
G75*
G02*
X70510000Y-109340000I0J-140000D01*
G01*
X70510000Y-109620000D01*
G75*
G02*
X70370000Y-109760000I-140000J0D01*
G01*
G37*
G36*
G01*
X65430000Y-128200000D02*
X65770000Y-128200000D01*
G75*
G02*
X65910000Y-128340000I0J-140000D01*
G01*
X65910000Y-128620000D01*
G75*
G02*
X65770000Y-128760000I-140000J0D01*
G01*
X65430000Y-128760000D01*
G75*
G02*
X65290000Y-128620000I0J140000D01*
G01*
X65290000Y-128340000D01*
G75*
G02*
X65430000Y-128200000I140000J0D01*
G01*
G37*
G36*
G01*
X65430000Y-127240000D02*
X65770000Y-127240000D01*
G75*
G02*
X65910000Y-127380000I0J-140000D01*
G01*
X65910000Y-127660000D01*
G75*
G02*
X65770000Y-127800000I-140000J0D01*
G01*
X65430000Y-127800000D01*
G75*
G02*
X65290000Y-127660000I0J140000D01*
G01*
X65290000Y-127380000D01*
G75*
G02*
X65430000Y-127240000I140000J0D01*
G01*
G37*
D17*
X119600000Y-113750000D03*
X119600000Y-118250000D03*
D18*
X119600000Y-110150000D03*
X119600000Y-121850000D03*
G36*
G01*
X104925000Y-126999999D02*
X104925000Y-129200001D01*
G75*
G02*
X104675001Y-129450000I-249999J0D01*
G01*
X104024999Y-129450000D01*
G75*
G02*
X103775000Y-129200001I0J249999D01*
G01*
X103775000Y-126999999D01*
G75*
G02*
X104024999Y-126750000I249999J0D01*
G01*
X104675001Y-126750000D01*
G75*
G02*
X104925000Y-126999999I0J-249999D01*
G01*
G37*
G36*
G01*
X107875000Y-126999999D02*
X107875000Y-129200001D01*
G75*
G02*
X107625001Y-129450000I-249999J0D01*
G01*
X106974999Y-129450000D01*
G75*
G02*
X106725000Y-129200001I0J249999D01*
G01*
X106725000Y-126999999D01*
G75*
G02*
X106974999Y-126750000I249999J0D01*
G01*
X107625001Y-126750000D01*
G75*
G02*
X107875000Y-126999999I0J-249999D01*
G01*
G37*
D19*
X92250000Y-110400000D03*
X92250000Y-108200000D03*
X93950000Y-108200000D03*
X93950000Y-110400000D03*
D20*
X109500000Y-119200000D03*
D21*
X111050000Y-118225000D03*
X111050000Y-118875000D03*
X111050000Y-119525000D03*
X111050000Y-120175000D03*
X107950000Y-120175000D03*
X107950000Y-119525000D03*
X107950000Y-118875000D03*
X107950000Y-118225000D03*
G36*
G01*
X98485000Y-105160000D02*
X98115000Y-105160000D01*
G75*
G02*
X97980000Y-105025000I0J135000D01*
G01*
X97980000Y-104755000D01*
G75*
G02*
X98115000Y-104620000I135000J0D01*
G01*
X98485000Y-104620000D01*
G75*
G02*
X98620000Y-104755000I0J-135000D01*
G01*
X98620000Y-105025000D01*
G75*
G02*
X98485000Y-105160000I-135000J0D01*
G01*
G37*
G36*
G01*
X98485000Y-106180000D02*
X98115000Y-106180000D01*
G75*
G02*
X97980000Y-106045000I0J135000D01*
G01*
X97980000Y-105775000D01*
G75*
G02*
X98115000Y-105640000I135000J0D01*
G01*
X98485000Y-105640000D01*
G75*
G02*
X98620000Y-105775000I0J-135000D01*
G01*
X98620000Y-106045000D01*
G75*
G02*
X98485000Y-106180000I-135000J0D01*
G01*
G37*
G36*
G01*
X95215000Y-111240000D02*
X95585000Y-111240000D01*
G75*
G02*
X95720000Y-111375000I0J-135000D01*
G01*
X95720000Y-111645000D01*
G75*
G02*
X95585000Y-111780000I-135000J0D01*
G01*
X95215000Y-111780000D01*
G75*
G02*
X95080000Y-111645000I0J135000D01*
G01*
X95080000Y-111375000D01*
G75*
G02*
X95215000Y-111240000I135000J0D01*
G01*
G37*
G36*
G01*
X95215000Y-110220000D02*
X95585000Y-110220000D01*
G75*
G02*
X95720000Y-110355000I0J-135000D01*
G01*
X95720000Y-110625000D01*
G75*
G02*
X95585000Y-110760000I-135000J0D01*
G01*
X95215000Y-110760000D01*
G75*
G02*
X95080000Y-110625000I0J135000D01*
G01*
X95080000Y-110355000D01*
G75*
G02*
X95215000Y-110220000I135000J0D01*
G01*
G37*
G36*
G01*
X94985000Y-128060000D02*
X94615000Y-128060000D01*
G75*
G02*
X94480000Y-127925000I0J135000D01*
G01*
X94480000Y-127655000D01*
G75*
G02*
X94615000Y-127520000I135000J0D01*
G01*
X94985000Y-127520000D01*
G75*
G02*
X95120000Y-127655000I0J-135000D01*
G01*
X95120000Y-127925000D01*
G75*
G02*
X94985000Y-128060000I-135000J0D01*
G01*
G37*
G36*
G01*
X94985000Y-129080000D02*
X94615000Y-129080000D01*
G75*
G02*
X94480000Y-128945000I0J135000D01*
G01*
X94480000Y-128675000D01*
G75*
G02*
X94615000Y-128540000I135000J0D01*
G01*
X94985000Y-128540000D01*
G75*
G02*
X95120000Y-128675000I0J-135000D01*
G01*
X95120000Y-128945000D01*
G75*
G02*
X94985000Y-129080000I-135000J0D01*
G01*
G37*
G36*
G01*
X103760000Y-125215000D02*
X103760000Y-125585000D01*
G75*
G02*
X103625000Y-125720000I-135000J0D01*
G01*
X103355000Y-125720000D01*
G75*
G02*
X103220000Y-125585000I0J135000D01*
G01*
X103220000Y-125215000D01*
G75*
G02*
X103355000Y-125080000I135000J0D01*
G01*
X103625000Y-125080000D01*
G75*
G02*
X103760000Y-125215000I0J-135000D01*
G01*
G37*
G36*
G01*
X104780000Y-125215000D02*
X104780000Y-125585000D01*
G75*
G02*
X104645000Y-125720000I-135000J0D01*
G01*
X104375000Y-125720000D01*
G75*
G02*
X104240000Y-125585000I0J135000D01*
G01*
X104240000Y-125215000D01*
G75*
G02*
X104375000Y-125080000I135000J0D01*
G01*
X104645000Y-125080000D01*
G75*
G02*
X104780000Y-125215000I0J-135000D01*
G01*
G37*
G36*
G01*
X94885000Y-121760000D02*
X94515000Y-121760000D01*
G75*
G02*
X94380000Y-121625000I0J135000D01*
G01*
X94380000Y-121355000D01*
G75*
G02*
X94515000Y-121220000I135000J0D01*
G01*
X94885000Y-121220000D01*
G75*
G02*
X95020000Y-121355000I0J-135000D01*
G01*
X95020000Y-121625000D01*
G75*
G02*
X94885000Y-121760000I-135000J0D01*
G01*
G37*
G36*
G01*
X94885000Y-122780000D02*
X94515000Y-122780000D01*
G75*
G02*
X94380000Y-122645000I0J135000D01*
G01*
X94380000Y-122375000D01*
G75*
G02*
X94515000Y-122240000I135000J0D01*
G01*
X94885000Y-122240000D01*
G75*
G02*
X95020000Y-122375000I0J-135000D01*
G01*
X95020000Y-122645000D01*
G75*
G02*
X94885000Y-122780000I-135000J0D01*
G01*
G37*
G36*
G01*
X103215000Y-119840000D02*
X103585000Y-119840000D01*
G75*
G02*
X103720000Y-119975000I0J-135000D01*
G01*
X103720000Y-120245000D01*
G75*
G02*
X103585000Y-120380000I-135000J0D01*
G01*
X103215000Y-120380000D01*
G75*
G02*
X103080000Y-120245000I0J135000D01*
G01*
X103080000Y-119975000D01*
G75*
G02*
X103215000Y-119840000I135000J0D01*
G01*
G37*
G36*
G01*
X103215000Y-118820000D02*
X103585000Y-118820000D01*
G75*
G02*
X103720000Y-118955000I0J-135000D01*
G01*
X103720000Y-119225000D01*
G75*
G02*
X103585000Y-119360000I-135000J0D01*
G01*
X103215000Y-119360000D01*
G75*
G02*
X103080000Y-119225000I0J135000D01*
G01*
X103080000Y-118955000D01*
G75*
G02*
X103215000Y-118820000I135000J0D01*
G01*
G37*
D22*
X96300000Y-128705000D03*
X96300000Y-127435000D03*
X96300000Y-126165000D03*
X96300000Y-124895000D03*
X101900000Y-124895000D03*
X101900000Y-126165000D03*
X101900000Y-127435000D03*
X101900000Y-128705000D03*
X96300000Y-122705000D03*
X96300000Y-121435000D03*
X96300000Y-120165000D03*
X96300000Y-118895000D03*
X101900000Y-118895000D03*
X101900000Y-120165000D03*
X101900000Y-121435000D03*
X101900000Y-122705000D03*
G36*
G01*
X96470000Y-107400000D02*
X96130000Y-107400000D01*
G75*
G02*
X95990000Y-107260000I0J140000D01*
G01*
X95990000Y-106980000D01*
G75*
G02*
X96130000Y-106840000I140000J0D01*
G01*
X96470000Y-106840000D01*
G75*
G02*
X96610000Y-106980000I0J-140000D01*
G01*
X96610000Y-107260000D01*
G75*
G02*
X96470000Y-107400000I-140000J0D01*
G01*
G37*
G36*
G01*
X96470000Y-108360000D02*
X96130000Y-108360000D01*
G75*
G02*
X95990000Y-108220000I0J140000D01*
G01*
X95990000Y-107940000D01*
G75*
G02*
X96130000Y-107800000I140000J0D01*
G01*
X96470000Y-107800000D01*
G75*
G02*
X96610000Y-107940000I0J-140000D01*
G01*
X96610000Y-108220000D01*
G75*
G02*
X96470000Y-108360000I-140000J0D01*
G01*
G37*
G36*
G01*
X101100000Y-113930000D02*
X101100000Y-114270000D01*
G75*
G02*
X100960000Y-114410000I-140000J0D01*
G01*
X100680000Y-114410000D01*
G75*
G02*
X100540000Y-114270000I0J140000D01*
G01*
X100540000Y-113930000D01*
G75*
G02*
X100680000Y-113790000I140000J0D01*
G01*
X100960000Y-113790000D01*
G75*
G02*
X101100000Y-113930000I0J-140000D01*
G01*
G37*
G36*
G01*
X102060000Y-113930000D02*
X102060000Y-114270000D01*
G75*
G02*
X101920000Y-114410000I-140000J0D01*
G01*
X101640000Y-114410000D01*
G75*
G02*
X101500000Y-114270000I0J140000D01*
G01*
X101500000Y-113930000D01*
G75*
G02*
X101640000Y-113790000I140000J0D01*
G01*
X101920000Y-113790000D01*
G75*
G02*
X102060000Y-113930000I0J-140000D01*
G01*
G37*
G36*
G01*
X103530000Y-112900000D02*
X103870000Y-112900000D01*
G75*
G02*
X104010000Y-113040000I0J-140000D01*
G01*
X104010000Y-113320000D01*
G75*
G02*
X103870000Y-113460000I-140000J0D01*
G01*
X103530000Y-113460000D01*
G75*
G02*
X103390000Y-113320000I0J140000D01*
G01*
X103390000Y-113040000D01*
G75*
G02*
X103530000Y-112900000I140000J0D01*
G01*
G37*
G36*
G01*
X103530000Y-111940000D02*
X103870000Y-111940000D01*
G75*
G02*
X104010000Y-112080000I0J-140000D01*
G01*
X104010000Y-112360000D01*
G75*
G02*
X103870000Y-112500000I-140000J0D01*
G01*
X103530000Y-112500000D01*
G75*
G02*
X103390000Y-112360000I0J140000D01*
G01*
X103390000Y-112080000D01*
G75*
G02*
X103530000Y-111940000I140000J0D01*
G01*
G37*
G36*
G01*
X94800000Y-112330000D02*
X94800000Y-112670000D01*
G75*
G02*
X94660000Y-112810000I-140000J0D01*
G01*
X94380000Y-112810000D01*
G75*
G02*
X94240000Y-112670000I0J140000D01*
G01*
X94240000Y-112330000D01*
G75*
G02*
X94380000Y-112190000I140000J0D01*
G01*
X94660000Y-112190000D01*
G75*
G02*
X94800000Y-112330000I0J-140000D01*
G01*
G37*
G36*
G01*
X95760000Y-112330000D02*
X95760000Y-112670000D01*
G75*
G02*
X95620000Y-112810000I-140000J0D01*
G01*
X95340000Y-112810000D01*
G75*
G02*
X95200000Y-112670000I0J140000D01*
G01*
X95200000Y-112330000D01*
G75*
G02*
X95340000Y-112190000I140000J0D01*
G01*
X95620000Y-112190000D01*
G75*
G02*
X95760000Y-112330000I0J-140000D01*
G01*
G37*
G36*
G01*
X108100000Y-114970000D02*
X108100000Y-114630000D01*
G75*
G02*
X108240000Y-114490000I140000J0D01*
G01*
X108520000Y-114490000D01*
G75*
G02*
X108660000Y-114630000I0J-140000D01*
G01*
X108660000Y-114970000D01*
G75*
G02*
X108520000Y-115110000I-140000J0D01*
G01*
X108240000Y-115110000D01*
G75*
G02*
X108100000Y-114970000I0J140000D01*
G01*
G37*
G36*
G01*
X107140000Y-114970000D02*
X107140000Y-114630000D01*
G75*
G02*
X107280000Y-114490000I140000J0D01*
G01*
X107560000Y-114490000D01*
G75*
G02*
X107700000Y-114630000I0J-140000D01*
G01*
X107700000Y-114970000D01*
G75*
G02*
X107560000Y-115110000I-140000J0D01*
G01*
X107280000Y-115110000D01*
G75*
G02*
X107140000Y-114970000I0J140000D01*
G01*
G37*
G36*
G01*
X93300000Y-112170000D02*
X93300000Y-111830000D01*
G75*
G02*
X93440000Y-111690000I140000J0D01*
G01*
X93720000Y-111690000D01*
G75*
G02*
X93860000Y-111830000I0J-140000D01*
G01*
X93860000Y-112170000D01*
G75*
G02*
X93720000Y-112310000I-140000J0D01*
G01*
X93440000Y-112310000D01*
G75*
G02*
X93300000Y-112170000I0J140000D01*
G01*
G37*
G36*
G01*
X92340000Y-112170000D02*
X92340000Y-111830000D01*
G75*
G02*
X92480000Y-111690000I140000J0D01*
G01*
X92760000Y-111690000D01*
G75*
G02*
X92900000Y-111830000I0J-140000D01*
G01*
X92900000Y-112170000D01*
G75*
G02*
X92760000Y-112310000I-140000J0D01*
G01*
X92480000Y-112310000D01*
G75*
G02*
X92340000Y-112170000I0J140000D01*
G01*
G37*
G36*
G01*
X92900000Y-106430000D02*
X92900000Y-106770000D01*
G75*
G02*
X92760000Y-106910000I-140000J0D01*
G01*
X92480000Y-106910000D01*
G75*
G02*
X92340000Y-106770000I0J140000D01*
G01*
X92340000Y-106430000D01*
G75*
G02*
X92480000Y-106290000I140000J0D01*
G01*
X92760000Y-106290000D01*
G75*
G02*
X92900000Y-106430000I0J-140000D01*
G01*
G37*
G36*
G01*
X93860000Y-106430000D02*
X93860000Y-106770000D01*
G75*
G02*
X93720000Y-106910000I-140000J0D01*
G01*
X93440000Y-106910000D01*
G75*
G02*
X93300000Y-106770000I0J140000D01*
G01*
X93300000Y-106430000D01*
G75*
G02*
X93440000Y-106290000I140000J0D01*
G01*
X93720000Y-106290000D01*
G75*
G02*
X93860000Y-106430000I0J-140000D01*
G01*
G37*
G36*
G01*
X112030000Y-119000000D02*
X112370000Y-119000000D01*
G75*
G02*
X112510000Y-119140000I0J-140000D01*
G01*
X112510000Y-119420000D01*
G75*
G02*
X112370000Y-119560000I-140000J0D01*
G01*
X112030000Y-119560000D01*
G75*
G02*
X111890000Y-119420000I0J140000D01*
G01*
X111890000Y-119140000D01*
G75*
G02*
X112030000Y-119000000I140000J0D01*
G01*
G37*
G36*
G01*
X112030000Y-118040000D02*
X112370000Y-118040000D01*
G75*
G02*
X112510000Y-118180000I0J-140000D01*
G01*
X112510000Y-118460000D01*
G75*
G02*
X112370000Y-118600000I-140000J0D01*
G01*
X112030000Y-118600000D01*
G75*
G02*
X111890000Y-118460000I0J140000D01*
G01*
X111890000Y-118180000D01*
G75*
G02*
X112030000Y-118040000I140000J0D01*
G01*
G37*
G36*
G01*
X108200000Y-121670000D02*
X108200000Y-121330000D01*
G75*
G02*
X108340000Y-121190000I140000J0D01*
G01*
X108620000Y-121190000D01*
G75*
G02*
X108760000Y-121330000I0J-140000D01*
G01*
X108760000Y-121670000D01*
G75*
G02*
X108620000Y-121810000I-140000J0D01*
G01*
X108340000Y-121810000D01*
G75*
G02*
X108200000Y-121670000I0J140000D01*
G01*
G37*
G36*
G01*
X107240000Y-121670000D02*
X107240000Y-121330000D01*
G75*
G02*
X107380000Y-121190000I140000J0D01*
G01*
X107660000Y-121190000D01*
G75*
G02*
X107800000Y-121330000I0J-140000D01*
G01*
X107800000Y-121670000D01*
G75*
G02*
X107660000Y-121810000I-140000J0D01*
G01*
X107380000Y-121810000D01*
G75*
G02*
X107240000Y-121670000I0J140000D01*
G01*
G37*
G36*
G01*
X106630000Y-118900000D02*
X106970000Y-118900000D01*
G75*
G02*
X107110000Y-119040000I0J-140000D01*
G01*
X107110000Y-119320000D01*
G75*
G02*
X106970000Y-119460000I-140000J0D01*
G01*
X106630000Y-119460000D01*
G75*
G02*
X106490000Y-119320000I0J140000D01*
G01*
X106490000Y-119040000D01*
G75*
G02*
X106630000Y-118900000I140000J0D01*
G01*
G37*
G36*
G01*
X106630000Y-117940000D02*
X106970000Y-117940000D01*
G75*
G02*
X107110000Y-118080000I0J-140000D01*
G01*
X107110000Y-118360000D01*
G75*
G02*
X106970000Y-118500000I-140000J0D01*
G01*
X106630000Y-118500000D01*
G75*
G02*
X106490000Y-118360000I0J140000D01*
G01*
X106490000Y-118080000D01*
G75*
G02*
X106630000Y-117940000I140000J0D01*
G01*
G37*
D23*
X100000000Y-110300000D03*
D24*
X98250000Y-107850000D03*
X98750000Y-107850000D03*
X99250000Y-107850000D03*
X99750000Y-107850000D03*
X100250000Y-107850000D03*
X100750000Y-107850000D03*
X101250000Y-107850000D03*
X101750000Y-107850000D03*
D25*
X102450000Y-108550000D03*
X102450000Y-109050000D03*
X102450000Y-109550000D03*
X102450000Y-110050000D03*
X102450000Y-110550000D03*
X102450000Y-111050000D03*
X102450000Y-111550000D03*
X102450000Y-112050000D03*
D24*
X101750000Y-112750000D03*
X101250000Y-112750000D03*
X100750000Y-112750000D03*
X100250000Y-112750000D03*
X99750000Y-112750000D03*
X99250000Y-112750000D03*
X98750000Y-112750000D03*
X98250000Y-112750000D03*
D25*
X97550000Y-112050000D03*
X97550000Y-111550000D03*
X97550000Y-111050000D03*
X97550000Y-110550000D03*
X97550000Y-110050000D03*
X97550000Y-109550000D03*
X97550000Y-109050000D03*
X97550000Y-108550000D03*
D26*
X108550000Y-110450000D03*
X108550000Y-109500000D03*
X108550000Y-108550000D03*
X111050000Y-108550000D03*
X111050000Y-109500000D03*
X111050000Y-110450000D03*
D27*
X104780000Y-131600000D03*
X102240000Y-131600000D03*
X99700000Y-131600000D03*
X97160000Y-131600000D03*
X94620000Y-131600000D03*
X92080000Y-131600000D03*
X89540000Y-131600000D03*
D28*
X87000000Y-131600000D03*
G36*
G01*
X108350000Y-116356250D02*
X108350000Y-115843750D01*
G75*
G02*
X108568750Y-115625000I218750J0D01*
G01*
X109006250Y-115625000D01*
G75*
G02*
X109225000Y-115843750I0J-218750D01*
G01*
X109225000Y-116356250D01*
G75*
G02*
X109006250Y-116575000I-218750J0D01*
G01*
X108568750Y-116575000D01*
G75*
G02*
X108350000Y-116356250I0J218750D01*
G01*
G37*
G36*
G01*
X106775000Y-116356250D02*
X106775000Y-115843750D01*
G75*
G02*
X106993750Y-115625000I218750J0D01*
G01*
X107431250Y-115625000D01*
G75*
G02*
X107650000Y-115843750I0J-218750D01*
G01*
X107650000Y-116356250D01*
G75*
G02*
X107431250Y-116575000I-218750J0D01*
G01*
X106993750Y-116575000D01*
G75*
G02*
X106775000Y-116356250I0J218750D01*
G01*
G37*
M02*
